<svg width="358" height="435" viewBox="0 0 358 435" fill="none" xmlns="http://www.w3.org/2000/svg">
<g clip-path="url(#clip0_120_773)">
<path d="M355.805 278.155C353.413 325.434 329.254 345.218 314.088 353.051C289.822 363.967 265.384 337.072 267.382 380.775L240.74 381.762C239.96 364.657 238.365 329.922 237.576 312.94C239.22 311.535 242.738 308.534 244.341 307.145L267.973 309.8L280.114 332.946C337.359 343.919 336.611 210.649 286.132 207.361C277.262 207.196 266.494 229.915 266.494 229.915L247.284 228.822L239.064 231.625C239.581 213.764 240.617 177.812 241.135 159.942C289.97 156.893 257.575 175.444 287.282 183.713C296.579 184.856 300.936 177.138 312.46 186.097C330.199 200.251 358.213 230.383 355.805 278.155Z" fill="white"/>
<path d="M355.805 278.155C353.413 325.434 329.254 345.218 314.088 353.051C289.822 363.967 265.384 337.072 267.382 380.775L240.74 381.762C239.96 364.657 238.365 329.922 237.576 312.94C239.22 311.535 242.738 308.534 244.341 307.145L267.973 309.8L280.114 332.946C337.359 343.919 336.611 210.649 286.132 207.361C277.262 207.196 266.494 229.915 266.494 229.915L247.284 228.822L239.064 231.625C239.581 213.764 240.617 177.812 241.135 159.942C289.97 156.893 257.575 175.444 287.282 183.713C296.579 184.856 300.936 177.138 312.46 186.097C330.199 200.251 358.213 230.384 355.805 278.155Z" stroke="black" stroke-width="2.5348" stroke-miterlimit="10"/>
<path d="M231.124 169.791L42.1775 166.298C41.2335 166.278 40.3354 165.886 39.6794 165.207C39.0233 164.528 38.6626 163.617 38.6758 162.673C35.7823 138.902 50.6689 114.474 76.4881 115.205L215.407 117.77C246.668 116.759 259.228 168.024 231.124 169.791Z" fill="#FFEDC0"/>
<path d="M248.665 413.874C178.063 439.618 93.939 439.396 23.4355 412.608C27.2716 345.209 31.1076 277.809 34.9436 210.409C36.215 188.151 37.4809 165.892 38.7413 143.634C39.2016 134.149 48.219 128.724 57.1213 130.039L225.945 132.57C236.573 131.288 247.449 137.938 247.227 149.453C246.432 171.054 245.857 192.74 245.5 214.51C244.382 281.171 245.517 347.773 248.665 413.874Z" fill="white" stroke="black" stroke-width="2.5348" stroke-miterlimit="10"/>
<path d="M226.652 386.438C170.887 410.422 102.183 410.48 46.4761 385.797C49.6983 323.181 52.9261 260.565 56.1593 197.949C57.2553 177.279 58.3212 156.605 59.3569 135.924C59.8337 127.245 66.5659 122.116 74.0955 123.25L209.159 125.198C218.201 124.055 226.224 130.319 226.142 140.815C225.451 160.876 224.939 181.019 224.605 201.245C223.536 263.187 224.284 325.03 226.652 386.438Z" fill="#FFD136"/>
<path d="M80.68 376.911C77.5179 376.846 74.5102 375.532 72.3149 373.255C70.1197 370.978 68.9157 367.925 68.9664 364.762L73.0024 146.19C73.2097 143.133 74.5848 140.273 76.8429 138.202C79.101 136.131 82.0692 135.008 85.1328 135.065C88.1964 135.122 91.1207 136.355 93.3002 138.508C95.4796 140.662 96.7473 143.571 96.8406 146.634L92.8046 365.198C92.7355 368.354 91.4229 371.355 89.1523 373.549C86.8817 375.742 83.8368 376.951 80.68 376.911Z" fill="url(#paint0_linear_120_773)" stroke="black" stroke-width="2.5348" stroke-miterlimit="10"/>
<path d="M188.74 377.655C185.578 377.59 182.57 376.276 180.375 373.999C178.18 371.722 176.976 368.669 177.026 365.507L181.062 146.934C181.27 143.877 182.645 141.017 184.903 138.946C187.161 136.875 190.129 135.752 193.193 135.809C196.256 135.866 199.181 137.099 201.36 139.252C203.54 141.406 204.807 144.315 204.901 147.378L200.856 365.942C200.792 369.098 199.481 372.101 197.212 374.295C194.942 376.489 191.897 377.697 188.74 377.655Z" fill="url(#paint1_linear_120_773)" stroke="black" stroke-width="2.5348" stroke-miterlimit="10"/>
<path d="M134.488 389.22C127.09 389.984 120.054 384.757 120.259 377.022L124.443 150.912C124.525 135.04 151.331 135.459 150.821 151.405L146.646 377.507C146.577 380.669 145.259 383.675 142.982 385.869C140.704 388.064 137.651 389.268 134.488 389.22Z" fill="url(#paint2_linear_120_773)" stroke="black" stroke-width="2.5348" stroke-miterlimit="10"/>
<path d="M258.533 81.1855C269.391 43.5649 229.878 7.48138 193.43 21.4627C176.834 -5.47254 132.519 -7.49453 113.547 17.8873C86.5115 -7.67536 37.1008 9.24857 31.5111 45.9568C-29.6708 73.7222 12.3502 165.468 73.6143 136.618C64.5147 204.149 165.679 216.125 172.814 148.651C176.369 148.386 179.886 147.738 183.303 146.72C227.066 190.357 295.778 130.576 258.533 81.1855Z" fill="white" stroke="black" stroke-width="2.5348" stroke-miterlimit="10"/>
</g>
<defs>
<linearGradient id="paint0_linear_120_773" x1="88.4793" y1="120.317" x2="77.6537" y2="410.431" gradientUnits="userSpaceOnUse">
<stop stop-color="#E49435"/>
<stop offset="1" stop-color="#E8A615"/>
</linearGradient>
<linearGradient id="paint1_linear_120_773" x1="196.444" y1="124.356" x2="185.611" y2="414.469" gradientUnits="userSpaceOnUse">
<stop stop-color="#E49435"/>
<stop offset="1" stop-color="#E8A615"/>
</linearGradient>
<linearGradient id="paint2_linear_120_773" x1="141.34" y1="122.308" x2="130.513" y2="412.503" gradientUnits="userSpaceOnUse">
<stop stop-color="#E49435"/>
<stop offset="1" stop-color="#E8A615"/>
</linearGradient>
<clipPath id="clip0_120_773">
<rect width="358" height="435" fill="white"/>
</clipPath>
</defs>
</svg>
