<svg width="1439" height="118" viewBox="0 0 1439 118" fill="none" xmlns="http://www.w3.org/2000/svg">
<path fill-rule="evenodd" clip-rule="evenodd" d="M0 0.569824V60.2012C81.1603 33.1543 171.44 18.858 245.305 54.4054C258.904 60.9908 271.482 69.0486 284.054 77.1025C298.036 86.0602 312.011 95.0132 327.377 101.931C353.78 113.675 383.436 119.157 413.212 117.797C442.988 116.436 471.777 108.285 496.537 94.203C514.782 83.5349 530.545 69.6498 546.25 55.8153C569.793 35.0762 593.208 14.4509 624.661 4.94817C633.519 2.86653 642.541 1.40527 651.636 0.569824H0ZM688.096 0.569824C689.254 0.676258 690.412 0.792887 691.569 0.919724C713.966 3.37506 735.555 9.60574 755.065 19.2444C772.818 26.7667 789.858 35.1968 806.973 43.6644C828.539 54.334 850.226 65.0633 873.613 74.111C931.626 94.2464 996.084 96.7044 1056 81.0659C1106.52 61.7609 1158.27 44.8624 1211.02 30.4495C1287.93 18.2526 1364.4 45.1592 1436.05 70.3696L1439 71.4063V0.569824H688.096Z" fill="#EDE7DD"/>
</svg>
