<svg width="1439" height="126" viewBox="0 0 1439 126" fill="none" xmlns="http://www.w3.org/2000/svg">
<path fill-rule="evenodd" clip-rule="evenodd" d="M0 126V57.7988C81.1603 84.8457 171.44 99.142 245.305 63.5946C258.904 57.0092 271.482 48.9514 284.054 40.8975C298.036 31.9398 312.011 22.9868 327.377 16.0693C353.78 4.32491 383.436 -1.15688 413.212 0.203384C442.988 1.56361 471.777 9.71535 496.537 23.797C514.782 34.4651 530.545 48.3502 546.25 62.1847C569.793 82.9238 593.208 103.549 624.661 113.052C646.423 118.166 669.173 119.536 691.569 117.08C713.966 114.625 735.555 108.394 755.065 98.7556C772.818 91.2333 789.858 82.8032 806.973 74.3356C828.539 63.6659 850.226 52.9367 873.613 43.889C931.626 23.7536 996.084 21.2956 1056 36.9341C1106.52 56.2391 1158.27 73.1376 1211.02 87.5505C1287.93 99.7474 1364.4 72.8408 1436.05 47.6304L1439 46.5937V126H0Z" fill="#EDE7DD"/>
</svg>
