<svg width="1440" height="205" viewBox="0 0 1440 205" fill="none" xmlns="http://www.w3.org/2000/svg">
<path d="M1300.38 162.499C1227.83 146.998 1145.25 137.053 1077.26 159.282C1044.61 173.496 1010.8 186.578 975.97 198.474C945.786 203.124 914.458 203.864 883.823 200.649C853.187 197.435 823.862 190.332 797.567 179.755C744.909 158.243 684.994 145.106 622.814 141.44C588.557 142.052 555.424 149.404 527.909 162.499C505.901 176.12 481.913 188.362 456.274 199.059C393.764 217.193 324.867 190.285 269.658 165.716C214.449 141.148 141.445 117.165 83.4981 138.223C45.6274 152.262 28.289 180.925 0 201.984V43.7519C81.2167 64.2255 171.559 75.0473 245.475 48.1391C274.221 37.6098 298.403 22.1083 327.605 12.164C354.026 3.27382 383.703 -0.875717 413.499 0.153946C443.296 1.18361 472.105 7.35422 496.882 18.0136C542.51 38.1948 572.624 73.5849 625.095 85.5767C646.872 89.4478 669.638 90.4847 692.05 88.6261C714.462 86.7674 736.066 82.051 755.589 74.7549C795.741 61.8857 832.243 45.5068 874.221 33.2226C932.273 17.9807 996.776 16.1201 1056.73 27.9579C1107.29 42.5712 1159.08 55.3628 1211.86 66.2729C1289.89 75.6323 1367.45 54.5737 1440 35.2699V192.04C1392.72 183.693 1346.12 173.834 1300.38 162.499Z" fill="#709D5C"/>
</svg>
