<svg width="1440" height="205" viewBox="0 0 1440 205" fill="none" xmlns="http://www.w3.org/2000/svg">
<path d="M1300.38 42.5009C1227.83 58.0024 1145.25 67.9467 1077.26 45.7182C1044.61 31.5044 1010.8 18.4216 975.97 6.52575C945.786 1.87567 914.458 1.13613 883.823 4.3505C853.187 7.56488 823.862 14.6684 797.567 25.2445C744.909 46.7573 684.994 59.8936 622.814 63.5595C588.557 62.9484 555.424 55.5963 527.909 42.5009C505.901 28.8801 481.913 16.6378 456.274 5.94079C393.764 -12.193 324.867 14.7152 269.658 39.2836C214.449 63.852 141.445 87.8354 83.4981 66.7768C45.6274 52.7377 28.289 24.0746 0 3.01598V161.248C81.2167 140.774 171.559 129.953 245.475 156.861C274.221 167.39 298.403 182.892 327.605 192.836C354.026 201.726 383.703 205.876 413.499 204.846C443.296 203.816 472.105 197.646 496.882 186.986C542.51 166.805 572.624 131.415 625.095 119.423C646.872 115.552 669.638 114.515 692.05 116.374C714.462 118.233 736.066 122.949 755.589 130.245C795.741 143.114 832.243 159.493 874.221 171.777C932.273 187.019 996.776 188.88 1056.73 177.042C1107.29 162.429 1159.08 149.637 1211.86 138.727C1289.89 129.368 1367.45 150.426 1440 169.73V12.9603C1392.72 21.3069 1346.12 31.1661 1300.38 42.5009Z" fill="#709D5C"/>
</svg>
