<svg width="1201" height="99" viewBox="0 0 1201 99" fill="none" xmlns="http://www.w3.org/2000/svg">
<path fill-rule="evenodd" clip-rule="evenodd" d="M0 0V62.5045C67.737 45.4265 143.085 36.3995 204.733 58.845C216.084 63.0031 226.581 68.091 237.073 73.1764C248.743 78.8325 260.407 84.4856 273.231 88.8535C295.267 96.2692 320.019 99.7305 344.87 98.8716C369.721 98.0127 393.749 92.8655 414.414 83.974C429.641 77.238 442.796 68.4706 455.904 59.7352C475.554 46.6401 495.095 33.6168 521.347 27.6165C539.509 24.3874 558.496 23.5226 577.189 25.0729C595.881 26.6233 613.9 30.5574 630.182 36.6435C645 41.3933 659.221 46.7162 673.506 52.0629C691.505 58.7999 709.605 65.5746 729.124 71.2875C777.542 84.0014 831.339 85.5535 881.342 75.679C923.509 63.4894 966.704 52.8193 1010.73 43.7187C1074.92 36.0173 1138.74 53.0066 1198.54 68.925L1201 69.5797L1201 0H0Z" fill="#709D5C"/>
</svg>
