<svg width="467" height="317" viewBox="0 0 467 317" fill="none" xmlns="http://www.w3.org/2000/svg">
<path d="M32.5548 315.154H434.383C445.694 315.154 454.87 308.075 454.87 299.362V20.0152C454.87 11.3026 445.694 4.22363 434.383 4.22363H32.5548C21.244 4.22363 12.0681 11.3026 12.0681 20.0152V299.362C12.1135 308.075 21.244 315.154 32.5548 315.154Z" stroke="black" stroke-width="2.27108" stroke-miterlimit="10"/>
<path d="M5.20907 10.1227H461.729C463.546 10.1227 465 8.98822 465 7.5815V4.54117C465 3.13445 463.546 2 461.729 2H5.20907C3.39208 2 1.93848 3.13445 1.93848 4.54117V7.5815C1.93848 8.98822 3.39208 10.1227 5.20907 10.1227Z" fill="#DA5C42" stroke="black" stroke-width="2.27108" stroke-miterlimit="10"/>
<path d="M111.184 61.9445V95.1158C111.184 95.4334 110.911 95.6603 110.684 95.6603C110.366 95.6603 110.139 95.4334 110.139 95.1158V65.3024L105.007 81.6385C104.916 81.8654 104.734 82.0016 104.461 82.0016C104.234 82.0016 104.053 81.8654 104.007 81.6385L98.4658 65.1663V95.3427C98.4658 95.6603 98.1933 95.8872 97.9662 95.8872C97.6483 95.8872 97.4211 95.6603 97.4211 95.3427V61.9445C97.4211 61.6722 97.6483 61.4907 97.8299 61.4453C98.1025 61.4453 98.375 61.5814 98.4204 61.8083L104.461 79.8234L110.094 61.8083C110.185 61.5814 110.412 61.4453 110.684 61.4453C110.957 61.4453 111.184 61.6722 111.184 61.9445Z" fill="black"/>
<path d="M127.219 95.1151C127.265 95.3874 127.083 95.6597 126.765 95.7051C126.447 95.7051 126.174 95.4782 126.174 95.2513L125.13 84.769H117.363C116.454 90.6227 116.045 95.1605 116 95.2513C116 95.5235 115.727 95.7051 115.5 95.7051C115.5 95.7051 115.5 95.7051 115.455 95.7051C115.182 95.6597 114.91 95.3874 115.001 95.1151C115.001 95.0244 115.546 90.2597 116.409 84.2244C116.409 84.179 116.454 84.1337 116.454 84.0883C117.59 76.8278 119.316 67.6614 121.587 62.2161C121.678 61.9892 121.905 61.8984 122.132 61.8984H123.495C123.767 61.8984 124.04 62.0346 124.04 62.3522L127.219 95.1151ZM124.993 83.6799L122.904 62.8514H122.404C120.27 68.1606 118.589 76.6917 117.499 83.6799H124.993Z" fill="black"/>
<path d="M138.349 78.8253C137.441 81.0034 135.26 81.8202 133.216 81.8202C132.808 81.8202 132.444 81.7748 132.035 81.7295V95.5698C132.035 95.842 131.808 96.0235 131.536 96.0235C131.263 96.0235 130.991 95.7967 130.991 95.5698V62.2169C130.991 62.1715 130.991 62.1715 130.991 62.1715V62.1262V62.0808L131.036 62.0354V61.99C131.036 61.99 131.036 61.99 131.082 61.9447C131.082 61.8993 131.127 61.8993 131.127 61.8993V61.8539C131.172 61.8539 131.172 61.8539 131.172 61.8085H131.218H131.263C131.263 61.7631 131.263 61.7631 131.309 61.7631C131.309 61.7631 131.309 61.7631 131.354 61.7631C131.354 61.7631 131.354 61.7631 131.399 61.7631C138.44 61.2186 138.758 65.3026 138.985 68.2976C139.212 70.1581 139.485 76.0572 138.349 78.8253ZM137.94 68.2522C137.713 65.3934 137.531 62.4438 131.99 62.6707V80.6858C134.034 81.0488 136.441 80.6404 137.35 78.4623C138.213 76.2841 138.213 71.1564 137.94 68.2522Z" fill="black"/>
<path d="M158.108 100.697C158.063 100.924 157.836 101.06 157.563 101.06C157.563 101.06 157.518 101.06 157.472 101.06C154.02 100.288 152.567 93.3455 151.477 88.2178C151.159 86.5842 150.841 85.1774 150.568 84.3606C149.478 81.2749 147.025 78.2346 143.891 78.4161V95.0245C143.891 95.2967 143.664 95.4782 143.346 95.4782C143.074 95.4782 142.892 95.2514 142.892 95.0245V62.5338C142.892 62.2162 143.119 61.9893 143.346 61.9893C143.664 61.9893 143.891 62.2162 143.891 62.5338V77.3724C143.891 77.327 143.937 77.327 143.937 77.2817C147.661 73.3338 149.206 67.7976 150.523 62.3977C150.614 62.1254 150.886 61.9893 151.159 62.0346C151.431 62.1254 151.568 62.3977 151.522 62.6699C150.205 67.9338 148.661 73.4245 145.027 77.5539C148.252 78.0985 150.523 81.2749 151.431 84.1337C151.749 85.0413 152.067 86.4934 152.431 88.1724C153.384 92.7102 154.838 99.6076 157.654 100.198C157.972 100.198 158.199 100.424 158.108 100.697Z" fill="black"/>
<path d="M165.786 95.7064C165.786 95.9787 165.513 96.1602 165.241 96.1602H158.428C158.11 96.1602 157.883 95.9333 157.883 95.7064V62.3082C157.883 61.9906 158.11 61.7637 158.428 61.7637H165.241C165.513 61.7637 165.786 61.9906 165.786 62.3082C165.786 62.6259 165.513 62.8074 165.241 62.8074H158.973V80.6409C159.018 80.6409 159.064 80.6409 159.109 80.6409H164.423C164.741 80.6409 164.923 80.8678 164.923 81.1855C164.923 81.4577 164.696 81.73 164.423 81.73H159.109C159.064 81.73 159.018 81.6846 158.973 81.6846V95.2073H165.241C165.559 95.1619 165.786 95.3888 165.786 95.7064Z" fill="black"/>
<path d="M181.093 62.3082C181.093 62.6259 180.866 62.8981 180.594 62.8981H175.416V95.2527C175.416 95.5703 175.143 95.7518 174.871 95.7518C174.553 95.7518 174.326 95.5249 174.326 95.2527V62.8981H168.194C167.921 62.8981 167.74 62.6259 167.74 62.3082C167.74 62.0359 167.967 61.7637 168.194 61.7637H180.503C180.912 61.7637 181.093 62.0359 181.093 62.3082Z" fill="black"/>
<path d="M194.312 61.7621V95.1603C194.312 95.478 194.04 95.7049 193.767 95.7049C193.449 95.7049 193.222 95.478 193.222 95.1603V65.4831L184.547 95.3418C184.456 95.5687 184.229 95.7049 184.047 95.7049H184.002C183.729 95.6595 183.547 95.4326 183.547 95.1603V61.7621C183.547 61.4445 183.775 61.2176 184.092 61.2176C184.41 61.2176 184.592 61.4445 184.592 61.7621V91.4393L193.268 61.5806C193.313 61.3083 193.586 61.1722 193.858 61.2176C194.131 61.3083 194.312 61.4898 194.312 61.7621Z" fill="black"/>
<path d="M207.44 62.3541V94.754C207.44 95.0717 207.213 95.2985 206.895 95.2985C206.623 95.2985 206.395 95.0717 206.395 94.754V78.4633C205.85 78.5087 205.124 78.5541 204.351 78.5541C202.58 78.5541 200.445 78.4633 199.128 78.2364V94.7086C199.128 95.0263 198.901 95.2532 198.628 95.2532C198.31 95.2532 198.083 95.0263 198.083 94.7086V62.3087C198.083 61.9911 198.31 61.8096 198.628 61.8096C198.946 61.8096 199.128 62.0365 199.128 62.3087V77.1473C200.945 77.5104 204.897 77.5557 206.395 77.4196V62.3541C206.395 62.0365 206.668 61.855 206.895 61.855C207.213 61.8096 207.44 62.0365 207.44 62.3541Z" fill="black"/>
<path d="M218.751 62.2623C218.751 62.58 218.478 62.8069 218.206 62.8069H212.21V95.7059C212.21 95.9328 211.983 96.1597 211.711 96.1597C211.438 96.1597 211.166 95.8874 211.166 95.7059V62.2623C211.166 61.99 211.438 61.7178 211.711 61.7178H218.251C218.524 61.7178 218.751 61.99 218.751 62.2623Z" fill="black"/>
<path d="M223.975 94.6621C221.25 92.3479 220.886 83.9983 220.75 76.3294C220.75 75.4219 220.705 74.6504 220.705 74.0152C220.705 69.7496 221.886 60.9463 225.61 60.9463C226.7 60.9463 227.79 61.7177 228.971 63.3059C232.787 68.6605 232.242 80.595 230.697 87.3563C230.697 87.3563 230.697 87.3563 230.697 87.4017C230.606 87.6739 230.47 87.9916 230.379 88.3092C229.607 91.1227 228.381 95.3882 225.883 95.3882C225.292 95.4336 224.611 95.1613 223.975 94.6621ZM221.749 74.0152C221.749 74.6051 221.795 75.3765 221.795 76.2387C221.886 81.2303 222.067 91.6218 224.656 93.8453C225.11 94.2084 225.474 94.3899 225.837 94.3899C227.563 94.3899 228.699 90.2605 229.335 88.0823C229.426 87.7193 229.562 87.447 229.607 87.1294C231.106 80.7765 231.651 68.9782 228.108 63.9412C227.154 62.6707 226.337 61.99 225.61 61.99C223.475 62.0354 221.749 68.5244 221.749 74.0152Z" fill="black"/>
<path d="M241.872 83.9983C243.553 85.7227 243.507 88.6269 243.326 91.7126C243.28 93.0739 242.735 94.1176 241.827 94.889C240.646 95.7966 239.056 95.9327 237.875 95.9327C237.057 95.9327 236.376 95.842 236.285 95.842C236.194 95.842 236.149 95.842 236.058 95.7966C235.786 95.7512 235.604 95.5243 235.604 95.2974V62.3076C235.604 62.2622 235.604 62.2622 235.604 62.2622C235.604 62.2169 235.604 62.2169 235.604 62.2169C235.649 62.1715 235.649 62.1715 235.649 62.1715C235.649 62.1261 235.649 62.1261 235.649 62.1261C235.649 62.0807 235.649 62.0807 235.695 62.0807V62.0354C235.695 62.0354 235.74 62.0353 235.74 61.99C235.74 61.99 235.74 61.99 235.786 61.99V61.9446C235.831 61.9446 235.831 61.9446 235.831 61.9446C235.877 61.9446 235.877 61.8992 235.877 61.8992H235.922H235.967C236.285 61.8085 240.101 60.9917 242.326 62.716C243.326 63.4874 243.825 64.5765 243.871 65.9832V66.6185C244.098 70.9294 244.507 80.2319 240.101 83C240.827 83.2269 241.373 83.5445 241.872 83.9983ZM241.1 84.7244C240.419 83.9983 239.329 83.6807 237.875 83.726C237.83 83.726 237.83 83.726 237.83 83.726H237.784H237.739L237.693 83.6807C237.603 83.6353 237.466 83.5899 237.421 83.4084C237.375 83.363 237.375 83.363 237.375 83.363C237.375 83.3176 237.375 83.3176 237.375 83.3176C237.375 83.2723 237.375 83.2723 237.375 83.2723V83.2269C237.375 83.1815 237.375 83.1815 237.375 83.1815C237.375 83.1361 237.375 83.1361 237.375 83.1361C237.375 83.0907 237.375 83.0907 237.375 83.0907C237.375 83.0454 237.421 83.0454 237.421 83.0454V83C237.421 83 237.421 82.9546 237.466 82.9546C237.466 82.9546 237.466 82.9546 237.466 82.9092H237.512C237.512 82.8639 237.512 82.8639 237.557 82.8639C237.603 82.8185 237.603 82.8185 237.603 82.8185C237.648 82.8185 237.648 82.8185 237.648 82.8185C237.693 82.8185 237.693 82.7731 237.693 82.7731H237.739H237.784C243.598 82.2286 243.099 71.3379 242.917 66.6639V66.074C242.871 64.9849 242.508 64.1227 241.781 63.5782C240.282 62.4438 237.648 62.6706 236.649 62.8522V94.9798C237.33 95.0252 239.737 95.2521 241.145 94.163C241.872 93.5731 242.236 92.8016 242.281 91.7579C242.417 88.8084 242.508 86.1311 241.1 84.7244Z" fill="black"/>
<path d="M255.817 83.1361C255.954 85.1328 256.226 90.805 255.091 93.4823C254.182 95.6605 251.911 96.0235 250.185 96.0235C249.368 96.0235 248.686 95.9781 248.232 95.8874H248.187H248.141C248.141 95.8874 248.141 95.8874 248.096 95.8874C248.096 95.8874 248.096 95.8874 248.05 95.8874V95.842C248.005 95.842 248.005 95.842 248.005 95.7966C248.005 95.7966 248.005 95.7966 247.96 95.7966V95.7512L247.914 95.7058C247.914 95.7058 247.914 95.7058 247.914 95.6605C247.869 95.6151 247.869 95.6151 247.869 95.6151C247.869 95.5697 247.869 95.5697 247.869 95.5697C247.869 95.5243 247.869 95.5243 247.869 95.5243C247.869 95.4789 247.869 95.479 247.869 95.479V62.2169C247.869 61.9446 248.096 61.7177 248.414 61.7177C248.686 61.7177 248.913 61.99 248.913 62.2169V76.8286C255.227 76.5563 255.545 80.3681 255.817 83.1361ZM254.773 83.2269C254.5 80.4588 254.319 77.6 248.868 77.7815V94.9344C250.276 95.0706 253.183 95.2067 254.137 92.9832C255.045 90.9412 254.954 86.0403 254.773 83.2269ZM258.952 62.1261V95.3882C258.952 95.7058 258.724 95.842 258.406 95.842C258.134 95.842 257.907 95.7058 257.907 95.3882V62.1261C257.907 61.8538 258.179 61.627 258.406 61.627C258.724 61.627 258.952 61.8538 258.952 62.1261Z" fill="black"/>
<path d="M273.215 62.0803V94.6617C273.215 94.9794 272.943 95.2063 272.67 95.2063C272.352 95.2063 272.17 94.9794 272.17 94.6617V65.7106L263.722 94.8433C263.676 95.0701 263.449 95.2063 263.268 95.2063C263.222 95.2063 263.222 95.2063 263.177 95.2063C262.95 95.1609 262.768 94.934 262.768 94.6617V62.0803C262.768 61.8081 262.995 61.5358 263.313 61.5358C263.586 61.5358 263.813 61.8081 263.813 62.0803V91.0315L272.216 61.8988C272.307 61.6719 272.534 61.5358 272.806 61.5812C272.988 61.6266 273.215 61.8081 273.215 62.0803ZM267.356 60.9459C267.129 60.8098 267.129 60.4014 267.356 60.2198L270.944 56.1812C271.171 55.9543 271.489 55.9543 271.671 56.1358C271.898 56.3627 271.943 56.6804 271.716 56.8619L268.082 60.9005C267.992 61.0366 267.81 61.1274 267.719 61.1274C267.583 61.082 267.446 61.0366 267.356 60.9459Z" fill="black"/>
<path d="M300.834 95.1151C300.879 95.3874 300.697 95.6597 300.379 95.7051C300.061 95.7051 299.789 95.4782 299.789 95.2513L298.744 84.769H290.977C290.069 90.6227 289.66 95.1605 289.614 95.2513C289.614 95.5235 289.342 95.7051 289.115 95.7051C289.115 95.7051 289.115 95.7051 289.069 95.7051C288.797 95.6597 288.524 95.3874 288.615 95.1151C288.615 95.0244 289.16 90.2597 290.023 84.2244C290.023 84.179 290.069 84.1337 290.069 84.0883C291.204 76.8278 292.93 67.6614 295.201 62.2161C295.292 61.9892 295.519 61.8984 295.746 61.8984H297.109C297.382 61.8984 297.654 62.0346 297.654 62.3522L300.834 95.1151ZM298.653 83.6799L296.564 62.8514H296.019C293.884 68.1606 292.204 76.6917 291.113 83.6799H298.653Z" fill="black"/>
<path d="M313.961 62.3541V94.754C313.961 95.0717 313.734 95.2985 313.416 95.2985C313.144 95.2985 312.917 95.0717 312.917 94.754V78.4633C312.372 78.5087 311.645 78.5541 310.873 78.5541C309.101 78.5541 306.966 78.4633 305.649 78.2364V94.7086C305.649 95.0263 305.422 95.2532 305.15 95.2532C304.832 95.2532 304.604 95.0263 304.604 94.7086V62.3087C304.604 61.9911 304.832 61.8096 305.15 61.8096C305.468 61.8096 305.649 62.0365 305.649 62.3087V77.1473C307.466 77.5104 311.418 77.5557 312.917 77.4196V62.3541C312.917 62.0365 313.189 61.855 313.416 61.855C313.734 61.8096 313.961 62.0365 313.961 62.3541Z" fill="black"/>
<path d="M329.996 95.1151C330.041 95.3874 329.86 95.6597 329.542 95.7051C329.224 95.7051 328.951 95.4782 328.951 95.2513L327.907 84.769H320.14C319.231 90.6227 318.822 95.1605 318.777 95.2513C318.777 95.5235 318.504 95.7051 318.277 95.7051C318.277 95.7051 318.277 95.7051 318.232 95.7051C317.959 95.6597 317.687 95.3874 317.778 95.1151C317.778 95.0244 318.323 90.2597 319.186 84.2244C319.186 84.179 319.231 84.1337 319.231 84.0883C320.367 76.8278 322.093 67.6614 324.364 62.2161C324.455 61.9892 324.682 61.8984 324.909 61.8984H326.271C326.544 61.8984 326.816 62.0346 326.816 62.3522L329.996 95.1151ZM327.77 83.6799L325.681 62.8514H325.136C323.001 68.1606 321.32 76.6917 320.23 83.6799H327.77Z" fill="black"/>
<path d="M345.396 95.0706C343.533 83.3177 340.308 64.4858 339.355 62.0808H338.719L334.812 95.0253C334.767 95.3429 334.494 95.5244 334.222 95.479C333.904 95.4337 333.677 95.1614 333.768 94.8891L337.81 61.4909C337.81 61.2186 338.037 61.0371 338.355 61.0371H339.718C339.809 61.0371 339.99 61.0825 340.081 61.1733C341.399 62.6253 345.623 89.4891 346.44 94.8437C346.486 95.1614 346.35 95.4337 346.032 95.479C346.032 95.479 345.986 95.479 345.941 95.479C345.668 95.479 345.396 95.2521 345.396 95.0706Z" fill="black"/>
<path d="M360.976 61.7621V95.1603C360.976 95.478 360.703 95.7049 360.431 95.7049C360.113 95.7049 359.886 95.478 359.886 95.1603V65.4831L351.21 95.3418C351.119 95.5687 350.892 95.7049 350.711 95.7049H350.665C350.393 95.6595 350.211 95.4326 350.211 95.1603V61.7621C350.211 61.4445 350.438 61.2176 350.756 61.2176C351.074 61.2176 351.256 61.4445 351.256 61.7621V91.4393L359.931 61.5806C359.977 61.3083 360.249 61.1722 360.522 61.2176C360.749 61.3083 360.976 61.4898 360.976 61.7621Z" fill="black"/>
<path d="M365.837 95.8412C365.519 95.8412 365.292 95.705 365.292 95.3874C365.292 95.0698 365.565 94.8429 365.837 94.8429C372.014 95.1151 373.695 90.0328 374.149 87.0832V87.0378C374.603 85.0412 374.195 79.4143 371.833 76.2379C370.788 74.8312 369.425 74.0144 367.881 73.8782C367.609 73.8328 367.472 73.606 367.427 73.3337C367.427 73.0614 367.563 72.8799 367.836 72.7892C370.516 72.1992 372.605 69.2043 372.923 66.7539C373.059 65.7556 372.968 63.8951 371.151 62.9875C371.106 62.9421 371.061 62.9421 371.015 62.8967C370.425 62.6245 369.062 61.8984 365.519 63.6228C365.247 63.7135 364.929 63.6228 364.838 63.3505C364.747 63.0783 364.838 62.7606 365.11 62.6699C369.153 60.7186 370.788 61.5808 371.469 61.9892C371.515 61.9892 371.56 61.9892 371.56 62.0346C373.377 62.9421 374.24 64.6665 373.968 66.89C373.695 69.2043 372.105 71.8816 369.743 73.1522C370.879 73.606 371.878 74.4228 372.741 75.5572C375.285 79.0513 375.648 84.9505 375.239 87.174C374.649 90.4412 372.877 95.8412 366.291 95.8412C366.064 95.8866 365.928 95.8866 365.837 95.8412Z" fill="black"/>
<path d="M109.004 144.803C108.232 149.432 106.46 150.839 105.097 151.292C104.78 151.338 104.462 151.383 104.144 151.383C102.736 151.383 101.418 150.476 100.646 149.613C97.8754 146.437 97.7846 138.496 97.6483 133.232C97.6483 132.188 97.6483 131.281 97.6029 130.6C97.3758 126.471 97.2849 121.887 97.5575 118.983C97.6029 118.711 97.83 118.529 98.1479 118.575C98.4205 118.575 98.6022 118.847 98.5567 119.074C98.2842 121.933 98.4659 126.471 98.6022 130.555C98.6476 131.281 98.6476 132.188 98.693 133.232C98.7384 138.042 98.8293 146.074 101.418 148.978C102.145 149.795 103.462 150.657 104.825 150.294C106.324 149.886 107.459 147.889 108.004 144.667C109.095 138.45 109.14 130.192 108.141 118.711C108.141 118.393 108.368 118.166 108.595 118.121C108.867 118.121 109.095 118.348 109.095 118.575C110.185 130.192 110.139 138.496 109.004 144.803Z" fill="black"/>
<path d="M114.729 150.886V118.622C114.729 118.349 114.956 118.168 115.274 118.168C115.546 118.168 115.728 118.395 115.728 118.622V150.886C115.728 151.158 115.501 151.385 115.274 151.385C114.91 151.385 114.729 151.158 114.729 150.886Z" fill="black"/>
<path d="M126.402 136.227C124.722 136.136 122.95 136 120.952 136C120.679 136 120.498 135.773 120.498 135.546C120.498 135.274 120.725 135.093 120.952 135.093C122.996 135.093 124.767 135.183 126.448 135.32C128.628 135.456 130.672 135.592 133.125 135.456C133.397 135.456 133.579 135.682 133.67 135.909C133.67 136.181 133.443 136.363 133.216 136.363C132.625 136.408 132.08 136.408 131.535 136.408C129.718 136.408 128.083 136.317 126.402 136.227Z" fill="black"/>
<path d="M149.023 144.804C148.251 149.433 146.48 150.84 145.117 151.293C144.799 151.339 144.481 151.384 144.163 151.384C142.755 151.384 141.438 150.477 140.666 149.614C137.895 146.438 137.804 138.497 137.668 133.233C137.668 132.189 137.668 131.282 137.623 130.601C137.396 126.472 137.305 121.888 137.577 118.984C137.623 118.712 137.85 118.53 138.168 118.576C138.44 118.576 138.622 118.848 138.577 119.075C138.304 121.934 138.486 126.472 138.622 130.556C138.667 131.282 138.667 132.189 138.713 133.233C138.758 138.043 138.849 146.075 141.438 148.979C142.165 149.796 143.482 150.658 144.845 150.295C146.344 149.887 147.479 147.89 148.024 144.668C149.114 138.451 149.16 130.193 148.16 118.712C148.16 118.394 148.388 118.167 148.615 118.122C148.887 118.122 149.114 118.349 149.114 118.576C150.204 130.193 150.114 138.497 149.023 144.804Z" fill="black"/>
<path d="M165.195 151.384C165.149 151.384 165.104 151.43 165.059 151.43C164.832 151.43 164.65 151.294 164.604 151.067L159.608 136.183L154.657 150.931C154.612 151.157 154.385 151.294 154.203 151.294C154.157 151.294 154.112 151.294 154.067 151.248C153.794 151.203 153.703 150.885 153.749 150.613L159.018 134.64L153.749 118.984C153.658 118.712 153.749 118.44 154.021 118.349C154.294 118.258 154.612 118.395 154.703 118.667L159.563 133.052L164.332 118.485C164.423 118.213 164.695 118.077 164.968 118.168C165.24 118.258 165.377 118.531 165.286 118.803L160.108 134.594L165.558 150.704C165.604 151.021 165.422 151.294 165.195 151.384Z" fill="black"/>
<path d="M197.493 151.386L194.268 156.559C194.131 156.831 193.813 156.922 193.541 156.786C193.268 156.65 193.223 156.241 193.404 156.06L196.13 151.658H180.413L182.23 156.877C182.321 157.149 182.185 157.467 181.912 157.557C181.821 157.557 181.776 157.603 181.685 157.603C181.458 157.603 181.276 157.467 181.185 157.24L179.186 151.295C179.096 151.159 179.141 150.978 179.232 150.841C179.323 150.705 179.459 150.614 179.595 150.614H182.593C182.911 147.801 185.319 127.699 188.544 118.215C188.635 117.988 188.862 117.852 189.044 117.852H190.77C191.042 117.852 191.224 118.078 191.269 118.305L193.95 150.614H197.038C197.266 150.614 197.402 150.705 197.493 150.887C197.629 151.023 197.629 151.25 197.493 151.386ZM192.859 150.614L190.225 118.895H189.453C186.318 128.379 184.002 147.438 183.638 150.614H192.859V150.614Z" fill="black"/>
<path d="M210.256 117.579V150.977C210.256 151.294 209.984 151.521 209.711 151.521C209.393 151.521 209.166 151.294 209.166 150.977V121.3L200.491 151.158C200.4 151.385 200.173 151.521 199.991 151.521H199.945C199.673 151.476 199.491 151.249 199.491 150.977V117.579C199.491 117.261 199.718 117.034 200.036 117.034C200.354 117.034 200.536 117.261 200.536 117.579V147.256L209.211 117.397C209.257 117.125 209.529 116.989 209.802 117.034C210.029 117.125 210.256 117.306 210.256 117.579Z" fill="black"/>
<path d="M215.118 151.658C214.8 151.658 214.573 151.521 214.573 151.204C214.573 150.886 214.845 150.659 215.118 150.659C221.295 150.932 222.975 145.849 223.43 142.9V142.854C223.884 140.858 223.475 135.231 221.113 132.054C220.069 130.648 218.706 129.831 217.162 129.695C216.889 129.649 216.753 129.422 216.707 129.15C216.707 128.878 216.844 128.696 217.116 128.606C219.796 128.016 221.885 125.021 222.203 122.57C222.34 121.572 222.249 119.711 220.432 118.804C220.386 118.759 220.341 118.759 220.296 118.713C219.705 118.441 218.343 117.715 214.8 119.439C214.527 119.53 214.209 119.439 214.118 119.167C214.027 118.895 214.118 118.577 214.391 118.486C218.433 116.535 220.069 117.397 220.75 117.806C220.795 117.806 220.841 117.806 220.841 117.851C222.658 118.759 223.521 120.483 223.248 122.706C222.975 125.021 221.386 127.698 219.024 128.969C220.159 129.422 221.159 130.239 222.022 131.374C224.565 134.868 224.929 140.767 224.52 142.99C223.929 146.258 222.158 151.658 215.572 151.658C215.39 151.703 215.208 151.703 215.118 151.658Z" fill="black"/>
<path d="M239.373 150.931C239.419 151.203 239.237 151.475 238.919 151.52C238.601 151.52 238.329 151.294 238.329 151.067L237.284 140.584H229.517C228.609 146.438 228.2 150.976 228.154 151.067C228.154 151.339 227.882 151.52 227.655 151.52C227.655 151.52 227.655 151.52 227.609 151.52C227.337 151.475 227.064 151.203 227.155 150.931C227.155 150.84 227.7 146.075 228.563 140.04C228.563 139.994 228.609 139.949 228.609 139.904C229.744 132.643 231.47 123.477 233.741 118.032C233.832 117.805 234.059 117.714 234.286 117.714H235.649C235.921 117.714 236.194 117.85 236.194 118.168L239.373 150.931ZM237.148 139.495L235.058 118.667H234.513C232.379 123.976 230.698 132.507 229.608 139.495H237.148Z" fill="black"/>
<path d="M253.637 117.895V150.476C253.637 150.794 253.364 151.021 253.092 151.021C252.774 151.021 252.592 150.794 252.592 150.476V121.525L244.144 150.658C244.098 150.885 243.871 151.021 243.69 151.021C243.644 151.021 243.644 151.021 243.599 151.021C243.372 150.975 243.19 150.748 243.19 150.476V117.895C243.19 117.623 243.417 117.35 243.735 117.35C244.008 117.35 244.235 117.623 244.235 117.895V146.846L252.638 117.713C252.728 117.486 252.956 117.35 253.228 117.396C253.41 117.441 253.637 117.623 253.637 117.895ZM247.778 116.76C247.55 116.624 247.55 116.216 247.778 116.034L251.366 111.996C251.593 111.769 251.911 111.769 252.093 111.95C252.32 112.177 252.365 112.495 252.138 112.676L248.504 116.715C248.413 116.851 248.232 116.942 248.141 116.942C247.959 116.896 247.868 116.851 247.778 116.76Z" fill="black"/>
<path d="M266.72 118.168V150.567C266.72 150.885 266.493 151.112 266.175 151.112C265.902 151.112 265.675 150.885 265.675 150.567V134.277C265.13 134.322 264.403 134.368 263.631 134.368C261.86 134.368 259.725 134.277 258.408 134.05V150.522C258.408 150.84 258.18 151.067 257.908 151.067C257.59 151.067 257.363 150.84 257.363 150.522V118.122C257.363 117.805 257.59 117.623 257.908 117.623C258.226 117.623 258.408 117.85 258.408 118.122V132.961C260.224 133.324 264.176 133.369 265.675 133.233V118.168C265.675 117.85 265.947 117.668 266.175 117.668C266.538 117.623 266.72 117.85 266.72 118.168Z" fill="black"/>
<path d="M104.779 190.455C103.871 192.633 101.691 193.45 99.6468 193.45C99.238 193.45 98.8746 193.405 98.4658 193.359V207.2C98.4658 207.472 98.2387 207.653 97.9662 207.653C97.6937 207.653 97.4211 207.427 97.4211 207.2V173.847C97.4211 173.801 97.4211 173.801 97.4211 173.801V173.756V173.711L97.4666 173.665V173.62C97.4666 173.62 97.4666 173.62 97.512 173.575C97.512 173.529 97.5574 173.529 97.5574 173.529V173.484C97.6028 173.484 97.6028 173.484 97.6028 173.438H97.6483H97.6937C97.6937 173.393 97.6937 173.393 97.7391 173.393C97.7391 173.393 97.7391 173.393 97.7845 173.393C97.7845 173.393 97.7845 173.393 97.8299 173.393C104.87 172.848 105.188 176.932 105.415 179.927C105.688 181.788 105.96 187.687 104.779 190.455ZM104.416 179.882C104.189 177.023 104.007 174.074 98.4658 174.301V192.316C100.51 192.679 102.917 192.27 103.826 190.092C104.689 187.914 104.689 182.786 104.416 179.882Z" fill="black"/>
<path d="M121.677 206.745C121.723 207.017 121.541 207.29 121.223 207.335C120.905 207.335 120.633 207.108 120.633 206.881L119.588 196.399H111.821C110.912 202.253 110.504 206.79 110.458 206.881C110.458 207.153 110.186 207.335 109.959 207.335C109.959 207.335 109.959 207.335 109.913 207.335C109.641 207.29 109.368 207.017 109.459 206.745C109.459 206.654 110.004 201.89 110.867 195.854C110.867 195.809 110.912 195.764 110.912 195.718C112.048 188.458 113.774 179.291 116.045 173.846C116.136 173.619 116.363 173.528 116.59 173.528H117.953C118.225 173.528 118.498 173.664 118.498 173.982L121.677 206.745ZM119.452 195.31L117.362 174.481H116.817C114.682 179.79 113.002 188.322 111.912 195.31H119.452Z" fill="black"/>
<path d="M126.539 207.472C126.221 207.472 125.994 207.336 125.994 207.018C125.994 206.701 126.266 206.474 126.539 206.474C132.716 206.746 134.397 201.664 134.851 198.714V198.669C135.305 196.672 134.896 191.045 132.534 187.869C131.49 186.462 130.127 185.645 128.583 185.509C128.31 185.464 128.174 185.237 128.128 184.965C128.128 184.692 128.265 184.511 128.537 184.42C131.217 183.83 133.307 180.835 133.624 178.385C133.761 177.386 133.67 175.526 131.853 174.618C131.808 174.573 131.762 174.573 131.717 174.528C131.126 174.255 129.764 173.529 126.221 175.254C125.948 175.344 125.63 175.254 125.539 174.981C125.449 174.709 125.539 174.391 125.812 174.301C129.854 172.349 131.49 173.212 132.171 173.62C132.216 173.62 132.262 173.62 132.262 173.665C134.079 174.573 134.942 176.297 134.669 178.521C134.397 180.835 132.807 183.512 130.445 184.783C131.58 185.237 132.58 186.054 133.443 187.188C135.986 190.682 136.35 196.581 135.941 198.805C135.35 202.072 133.579 207.472 126.993 207.472C126.766 207.517 126.63 207.517 126.539 207.472Z" fill="black"/>
<path d="M145.844 190.455C144.935 192.633 142.755 193.45 140.711 193.45C140.302 193.45 139.939 193.405 139.53 193.359V207.2C139.53 207.472 139.303 207.653 139.031 207.653C138.758 207.653 138.486 207.427 138.486 207.2V173.847C138.486 173.801 138.486 173.801 138.486 173.801V173.756V173.711L138.531 173.665V173.62C138.531 173.62 138.531 173.62 138.576 173.575C138.576 173.529 138.622 173.529 138.622 173.529V173.484C138.667 173.484 138.667 173.484 138.667 173.438H138.713H138.758C138.758 173.393 138.758 173.393 138.804 173.393C138.804 173.393 138.804 173.393 138.849 173.393C138.849 173.393 138.849 173.393 138.894 173.393C145.935 172.848 146.253 176.932 146.48 179.927C146.752 181.788 146.979 187.687 145.844 190.455ZM145.48 179.882C145.253 177.023 145.072 174.074 139.53 174.301V192.316C141.574 192.679 143.982 192.27 144.89 190.092C145.753 187.914 145.753 182.786 145.48 179.882Z" fill="black"/>
<path d="M162.742 206.745C162.787 207.017 162.606 207.29 162.288 207.335C161.97 207.335 161.697 207.108 161.697 206.881L160.652 196.399H152.84C151.932 202.253 151.523 206.79 151.477 206.881C151.477 207.153 151.205 207.335 150.978 207.335C150.978 207.335 150.978 207.335 150.932 207.335C150.66 207.29 150.387 207.017 150.478 206.745C150.478 206.654 151.023 201.89 151.886 195.854C151.886 195.809 151.932 195.764 151.932 195.718C153.067 188.458 154.793 179.291 157.064 173.846C157.155 173.619 157.382 173.528 157.609 173.528H158.972C159.244 173.528 159.517 173.664 159.517 173.982L162.742 206.745ZM160.516 195.31L158.427 174.481H157.882C155.747 179.79 154.066 188.322 152.976 195.31H160.516Z" fill="black"/>
<path d="M174.371 204.794C173.372 207.199 170.646 207.607 168.148 207.607C167.739 207.607 167.376 207.607 167.013 207.562C166.695 207.562 166.468 207.335 166.468 207.108V207.062V207.017V173.755C166.468 173.437 166.695 173.256 167.013 173.256H172.917C173.235 173.256 173.462 173.483 173.462 173.755C173.462 174.073 173.235 174.3 172.917 174.3H167.558V188.004C174.507 187.55 174.825 191.498 175.098 194.357C175.188 196.399 175.461 202.162 174.371 204.794ZM174.007 194.493C173.735 191.634 173.553 188.639 167.603 189.047C167.558 189.047 167.558 189.047 167.558 189.047V206.654C169.92 206.699 172.554 206.427 173.417 204.476C174.28 202.298 174.28 197.352 174.007 194.493Z" fill="black"/>
<path d="M181.73 206.292C179.005 203.978 178.641 195.628 178.505 187.959C178.505 187.052 178.459 186.28 178.459 185.645C178.459 181.38 179.64 172.576 183.365 172.576C184.455 172.576 185.545 173.348 186.726 174.936C190.542 180.29 189.997 192.225 188.452 198.986C188.452 198.986 188.452 198.986 188.452 199.032C188.361 199.304 188.225 199.621 188.134 199.939C187.362 202.753 186.136 207.018 183.638 207.018C183.047 207.063 182.366 206.791 181.73 206.292ZM179.504 185.645C179.504 186.235 179.55 187.006 179.55 187.869C179.64 192.86 179.822 203.252 182.411 205.475C182.865 205.838 183.229 206.02 183.592 206.02C185.318 206.02 186.454 201.89 187.09 199.712C187.18 199.349 187.317 199.077 187.362 198.759C188.861 192.406 189.406 180.608 185.863 175.571C184.909 174.301 184.092 173.62 183.365 173.62C181.23 173.665 179.504 180.154 179.504 185.645Z" fill="black"/>
<path d="M204.896 173.938C204.896 174.256 204.669 174.528 204.396 174.528H199.173V206.883C199.173 207.2 198.9 207.382 198.628 207.382C198.31 207.382 198.082 207.155 198.082 206.883V174.528H191.951C191.678 174.528 191.496 174.256 191.496 173.938C191.496 173.666 191.723 173.394 191.951 173.394H204.26C204.669 173.394 204.896 173.666 204.896 173.938Z" fill="black"/>
<path d="M222.521 212.328C222.475 212.554 222.248 212.691 221.976 212.691C221.976 212.691 221.93 212.691 221.885 212.691C218.433 211.919 216.979 204.976 215.889 199.849C215.571 198.215 215.253 196.808 214.981 195.991C213.891 192.906 211.438 189.865 208.304 190.047V206.655C208.304 206.928 208.077 207.109 207.759 207.109C207.486 207.109 207.304 206.882 207.304 206.655V174.165C207.304 173.847 207.532 173.62 207.759 173.62C208.077 173.62 208.304 173.847 208.304 174.165V189.003C208.304 188.958 208.349 188.958 208.349 188.912C212.074 184.965 213.618 179.428 214.935 174.029C215.026 173.756 215.299 173.62 215.571 173.665C215.844 173.756 215.98 174.029 215.935 174.301C214.617 179.565 213.073 185.055 209.439 189.185C212.664 189.729 214.935 192.906 215.844 195.765C216.162 196.672 216.48 198.124 216.843 199.803C217.797 204.341 219.25 211.238 222.066 211.828C222.384 211.828 222.566 212.055 222.521 212.328Z" fill="black"/>
<path d="M234.649 206.745C234.694 207.017 234.513 207.29 234.195 207.335C233.877 207.335 233.604 207.108 233.604 206.881L232.56 196.399H224.793C223.884 202.253 223.475 206.79 223.43 206.881C223.43 207.153 223.157 207.335 222.93 207.335C222.93 207.335 222.93 207.335 222.885 207.335C222.612 207.29 222.34 207.017 222.431 206.745C222.431 206.654 222.976 201.89 223.839 195.854C223.839 195.809 223.884 195.764 223.884 195.718C225.02 188.458 226.746 179.291 229.017 173.846C229.108 173.619 229.335 173.528 229.562 173.528H230.925C231.197 173.528 231.47 173.664 231.47 173.982L234.649 206.745ZM232.469 195.31L230.379 174.481H229.834C227.7 179.79 226.019 188.322 224.929 195.31H232.469Z" fill="black"/>
<path d="M253.32 206.973C250.594 204.749 250.231 196.309 250.095 188.686C250.095 187.733 250.049 187.007 250.049 186.371C250.049 181.561 251.412 174.346 254.319 173.439C255.591 173.03 256.953 173.802 258.271 175.662C258.952 176.615 259.542 177.795 259.997 179.247C260.087 179.519 259.951 179.837 259.633 179.882C259.361 179.973 259.088 179.837 258.997 179.565C258.589 178.203 258.043 177.114 257.408 176.297C256.681 175.254 255.591 174.119 254.591 174.437C252.502 175.072 251.049 181.289 251.049 186.371C251.049 186.961 251.094 187.733 251.094 188.595C251.185 193.586 251.367 203.978 253.956 206.111C254.546 206.564 255.046 206.791 255.545 206.655C257.044 206.201 258.089 202.526 258.725 200.393C258.816 200.03 258.861 199.712 258.997 199.395C259.088 199.122 259.361 198.986 259.679 199.077C259.951 199.122 260.087 199.44 259.997 199.712C259.951 200.03 259.86 200.348 259.724 200.665C258.952 203.343 257.907 207.018 255.863 207.608C255.636 207.654 255.454 207.699 255.227 207.699C254.591 207.744 254.001 207.472 253.32 206.973Z" fill="black"/>
<path d="M276.077 206.745C276.122 207.017 275.941 207.29 275.623 207.335C275.305 207.335 275.032 207.108 275.032 206.881L273.988 196.399H266.221C265.312 202.253 264.903 206.79 264.858 206.881C264.858 207.153 264.585 207.335 264.358 207.335C264.358 207.335 264.358 207.335 264.313 207.335C264.04 207.29 263.768 207.017 263.859 206.745C263.859 206.654 264.404 201.89 265.267 195.854C265.267 195.809 265.312 195.764 265.312 195.718C266.448 188.458 268.174 179.291 270.445 173.846C270.536 173.619 270.763 173.528 270.99 173.528H272.352C272.625 173.528 272.898 173.664 272.898 173.982L276.077 206.745ZM273.897 195.31L271.807 174.481H271.262C269.128 179.79 267.447 188.322 266.357 195.31H273.897Z" fill="black"/>
<path d="M290.341 173.711V206.293C290.341 206.61 290.068 206.837 289.795 206.837C289.478 206.837 289.296 206.61 289.296 206.293V177.341L280.847 206.474C280.802 206.701 280.575 206.837 280.393 206.837C280.348 206.837 280.348 206.837 280.302 206.837C280.075 206.792 279.894 206.565 279.894 206.293V173.711C279.894 173.439 280.121 173.167 280.439 173.167C280.711 173.167 280.938 173.439 280.938 173.711V202.662L289.341 173.53C289.432 173.303 289.659 173.167 289.932 173.212C290.113 173.257 290.341 173.439 290.341 173.711ZM284.481 172.577C284.254 172.441 284.254 172.032 284.481 171.851L288.069 167.812C288.297 167.585 288.615 167.585 288.796 167.767C289.023 167.994 289.069 168.311 288.842 168.493L285.208 172.531C285.117 172.668 284.935 172.758 284.845 172.758C284.708 172.713 284.572 172.667 284.481 172.577Z" fill="black"/>
<path d="M305.648 173.938C305.648 174.256 305.421 174.528 305.149 174.528H299.971V206.883C299.971 207.2 299.698 207.382 299.426 207.382C299.108 207.382 298.881 207.155 298.881 206.883V174.528H292.749C292.476 174.528 292.294 174.256 292.294 173.938C292.294 173.666 292.522 173.394 292.749 173.394H305.058C305.421 173.394 305.648 173.666 305.648 173.938Z" fill="black"/>
<path d="M320.366 206.745C320.412 207.017 320.23 207.29 319.912 207.335C319.594 207.335 319.321 207.108 319.321 206.881L318.277 196.399H310.51C309.601 202.253 309.192 206.79 309.147 206.881C309.147 207.153 308.874 207.335 308.647 207.335C308.647 207.335 308.647 207.335 308.602 207.335C308.329 207.29 308.057 207.017 308.148 206.745C308.148 206.654 308.693 201.89 309.556 195.854C309.556 195.809 309.601 195.764 309.601 195.718C310.737 188.458 312.463 179.291 314.734 173.846C314.825 173.619 315.052 173.528 315.279 173.528H316.642C316.914 173.528 317.187 173.664 317.187 173.982L320.366 206.745ZM318.186 195.31L316.096 174.481H315.551C313.417 179.79 311.736 188.322 310.646 195.31H318.186Z" fill="black"/>
<path d="M108.959 229.753C108.959 230.07 108.732 230.342 108.459 230.342H103.281V262.697C103.281 263.015 103.008 263.196 102.736 263.196C102.418 263.196 102.191 262.969 102.191 262.697V230.342H96.059C95.7864 230.342 95.6047 230.07 95.6047 229.753C95.6047 229.48 95.8318 229.208 96.059 229.208H108.368C108.777 229.208 108.959 229.48 108.959 229.753Z" fill="black"/>
<path d="M119.271 263.151C119.271 263.423 118.998 263.605 118.725 263.605H111.912C111.594 263.605 111.367 263.378 111.367 263.151V229.753C111.367 229.435 111.594 229.208 111.912 229.208H118.725C118.998 229.208 119.271 229.435 119.271 229.753C119.271 230.07 118.998 230.252 118.725 230.252H112.457V248.085C112.503 248.085 112.548 248.085 112.594 248.085H117.908C118.226 248.085 118.408 248.312 118.408 248.63C118.408 248.902 118.18 249.174 117.908 249.174H112.594C112.548 249.174 112.503 249.129 112.457 249.129V262.652H118.725C118.998 262.606 119.271 262.833 119.271 263.151Z" fill="black"/>
<path d="M134.17 263.468C134.124 263.468 134.033 263.513 133.943 263.513C133.715 263.513 133.534 263.377 133.488 263.195L127.629 247.313L123.132 263.286C123.087 263.513 122.86 263.604 122.678 263.604C122.633 263.604 122.587 263.604 122.542 263.604C122.269 263.558 122.133 263.286 122.178 263.014L127.038 245.634L121.361 229.933C121.27 229.661 121.361 229.343 121.633 229.253C121.906 229.162 122.133 229.298 122.269 229.57L127.583 243.91L131.626 229.616C131.671 229.298 131.989 229.162 132.262 229.253C132.534 229.298 132.671 229.616 132.625 229.888L128.174 245.589L134.533 262.832C134.578 263.105 134.397 263.332 134.17 263.468Z" fill="black"/>
<path d="M146.253 229.796V262.196C146.253 262.514 146.026 262.741 145.708 262.741C145.435 262.741 145.208 262.514 145.208 262.196V245.906C144.663 245.951 143.936 245.996 143.164 245.996C141.393 245.996 139.258 245.906 137.941 245.679V262.151C137.941 262.469 137.714 262.696 137.441 262.696C137.123 262.696 136.896 262.469 136.896 262.151V229.751C136.896 229.433 137.123 229.252 137.441 229.252C137.759 229.252 137.941 229.479 137.941 229.751V244.59C139.758 244.953 143.709 244.998 145.208 244.862V229.796C145.208 229.479 145.481 229.297 145.708 229.297C146.071 229.252 146.253 229.479 146.253 229.796Z" fill="black"/>
<path d="M160.788 229.207V262.606C160.788 262.923 160.516 263.15 160.243 263.15C159.925 263.15 159.698 262.923 159.698 262.606V232.928L151.023 262.787C150.932 263.014 150.705 263.15 150.523 263.15H150.478C150.205 263.105 150.023 262.878 150.023 262.606V229.207C150.023 228.89 150.251 228.663 150.569 228.663C150.886 228.663 151.068 228.89 151.068 229.207V258.885L159.744 229.026C159.789 228.754 160.062 228.618 160.334 228.663C160.561 228.754 160.788 228.935 160.788 229.207Z" fill="black"/>
<path d="M174.779 229.57V263.014C174.779 263.286 174.507 263.422 174.234 263.422C173.916 263.422 173.734 263.286 173.734 263.014V248.538C173.144 248.765 172.644 248.901 172.099 248.901C171.463 248.901 170.782 248.674 170.146 248.311C166.013 245.815 164.514 235.56 164.514 229.661C164.514 229.388 164.741 229.116 165.059 229.116C165.332 229.116 165.559 229.388 165.559 229.661C165.559 235.56 167.194 245.271 170.737 247.403C171.645 247.948 172.599 247.948 173.734 247.358V229.525C173.734 229.252 173.962 229.025 174.234 229.025C174.507 229.071 174.779 229.298 174.779 229.57Z" fill="black"/>
<path d="M186.408 263.151C186.408 263.423 186.136 263.605 185.863 263.605H179.05C178.732 263.605 178.505 263.378 178.505 263.151V229.753C178.505 229.435 178.732 229.208 179.05 229.208H185.863C186.136 229.208 186.408 229.435 186.408 229.753C186.408 230.07 186.136 230.252 185.863 230.252H179.595V248.085C179.641 248.085 179.686 248.085 179.731 248.085H185.046C185.364 248.085 185.545 248.312 185.545 248.63C185.545 248.902 185.318 249.174 185.046 249.174H179.731C179.686 249.174 179.641 249.129 179.595 249.129V262.652H185.863C186.136 262.606 186.408 262.833 186.408 263.151Z" fill="black"/>
<path d="M193.45 262.787C190.724 260.564 190.361 252.123 190.225 244.5C190.225 243.547 190.179 242.821 190.179 242.186C190.179 237.376 191.542 230.161 194.449 229.253C195.721 228.845 197.083 229.616 198.401 231.477C199.082 232.429 199.672 233.609 200.127 235.061C200.217 235.334 200.081 235.651 199.763 235.697C199.491 235.787 199.218 235.651 199.127 235.379C198.718 234.018 198.173 232.929 197.538 232.112C196.811 231.068 195.721 229.934 194.721 230.251C192.632 230.887 191.179 237.103 191.179 242.186C191.179 242.776 191.224 243.547 191.224 244.409C191.315 249.401 191.496 259.792 194.085 261.925C194.676 262.379 195.176 262.606 195.675 262.47C197.174 262.016 198.219 258.34 198.855 256.208C198.946 255.845 198.991 255.527 199.127 255.209C199.218 254.937 199.491 254.801 199.809 254.892C200.081 254.937 200.217 255.255 200.127 255.527C200.081 255.845 199.99 256.162 199.854 256.48C199.082 259.157 198.037 262.833 195.993 263.423C195.766 263.468 195.584 263.513 195.357 263.513C194.767 263.559 194.131 263.287 193.45 262.787Z" fill="black"/>
<path d="M219.159 268.143C219.114 268.37 218.887 268.506 218.614 268.506C218.614 268.506 218.569 268.506 218.523 268.506C215.071 267.735 213.618 260.792 212.528 255.664C212.21 254.03 211.892 252.624 211.619 251.807C210.529 248.721 208.076 245.681 204.942 245.862V262.471C204.942 262.743 204.715 262.925 204.397 262.925C204.125 262.925 203.943 262.698 203.943 262.471V229.98C203.943 229.662 204.17 229.436 204.397 229.436C204.715 229.436 204.942 229.662 204.942 229.98V244.819C204.942 244.773 204.988 244.773 204.988 244.728C208.712 240.78 210.256 235.244 211.574 229.844C211.665 229.572 211.937 229.436 212.21 229.481C212.482 229.572 212.618 229.844 212.573 230.116C211.256 235.38 209.711 240.871 206.078 245C209.303 245.545 211.574 248.721 212.482 251.58C212.8 252.488 213.118 253.94 213.481 255.619C214.435 260.156 215.889 267.054 218.705 267.644C218.977 267.644 219.205 267.871 219.159 268.143Z" fill="black"/>
<path d="M231.242 262.561C231.288 262.834 231.106 263.106 230.788 263.151C230.47 263.151 230.198 262.924 230.198 262.698L229.153 252.215H221.386C220.477 258.069 220.069 262.607 220.023 262.698C220.023 262.97 219.751 263.151 219.524 263.151C219.524 263.151 219.524 263.151 219.478 263.151C219.206 263.106 218.933 262.834 219.024 262.561C219.024 262.471 219.569 257.706 220.432 251.671C220.432 251.625 220.477 251.58 220.477 251.535C221.613 244.274 223.339 235.108 225.61 229.662C225.701 229.435 225.928 229.345 226.155 229.345H227.518C227.79 229.345 228.063 229.481 228.063 229.799L231.242 262.561ZM229.062 251.126L226.973 230.298H226.428C224.293 235.607 222.612 244.138 221.522 251.126H229.062Z" fill="black"/>
<path d="M245.415 229.752V262.56C245.415 262.832 245.143 263.105 244.915 263.105C244.688 263.105 244.37 262.832 244.37 262.56V245.816C241.736 245.725 239.783 247.54 238.42 251.443C238.148 252.259 237.83 253.666 237.466 255.345C236.422 260.518 234.923 267.506 231.516 268.232C231.471 268.232 231.425 268.278 231.425 268.278C231.153 268.278 230.971 268.142 230.88 267.869C230.835 267.597 230.971 267.37 231.244 267.279C234.06 266.644 235.513 259.701 236.512 255.118C236.876 253.439 237.148 251.987 237.466 251.08C238.375 248.584 239.51 246.814 240.918 245.816C239.874 245.543 238.92 244.908 238.284 243.501C237.194 241.187 237.466 236.286 237.603 234.607C237.83 232.112 238.148 228.708 244.779 229.117H244.825H244.87C245.143 229.207 245.415 229.434 245.415 229.752ZM244.37 244.817V230.206C239.056 229.979 238.829 232.384 238.602 234.743C238.329 237.194 238.329 241.369 239.192 243.138C240.01 244.954 241.373 245.135 243.28 244.863C243.326 244.863 243.326 244.863 243.371 244.863C243.689 244.817 244.052 244.817 244.37 244.817Z" fill="black"/>
<path d="M270.126 229.796V262.196C270.126 262.514 269.899 262.741 269.581 262.741C269.309 262.741 269.082 262.514 269.082 262.196V245.906C268.537 245.951 267.81 245.996 267.038 245.996C265.266 245.996 263.131 245.906 261.814 245.679V262.151C261.814 262.469 261.587 262.696 261.315 262.696C260.997 262.696 260.77 262.469 260.77 262.151V229.751C260.77 229.433 260.997 229.252 261.315 229.252C261.633 229.252 261.814 229.479 261.814 229.751V244.59C263.631 244.953 267.583 244.998 269.082 244.862V229.796C269.082 229.479 269.354 229.297 269.581 229.297C269.899 229.252 270.126 229.479 270.126 229.796Z" fill="black"/>
<path d="M286.161 262.561C286.206 262.834 286.025 263.106 285.707 263.151C285.389 263.151 285.116 262.924 285.116 262.698L284.072 252.215H276.305C275.396 258.069 274.987 262.607 274.942 262.698C274.942 262.97 274.669 263.151 274.442 263.151C274.442 263.151 274.442 263.151 274.397 263.151C274.124 263.106 273.852 262.834 273.943 262.561C273.943 262.471 274.488 257.706 275.351 251.671C275.351 251.625 275.396 251.58 275.396 251.535C276.532 244.274 278.258 235.108 280.529 229.662C280.62 229.435 280.847 229.345 281.074 229.345H282.436C282.709 229.345 282.982 229.481 282.982 229.799L286.161 262.561ZM283.981 251.126L281.891 230.298H281.346C279.212 235.607 277.531 244.138 276.441 251.126H283.981Z" fill="black"/>
<path d="M293.203 262.787C290.477 260.564 290.114 252.123 289.978 244.5C289.978 243.547 289.932 242.821 289.932 242.186C289.932 237.376 291.295 230.161 294.202 229.253C295.474 228.845 296.836 229.616 298.154 231.477C298.835 232.429 299.425 233.609 299.88 235.061C299.97 235.334 299.834 235.651 299.516 235.697C299.244 235.787 298.971 235.651 298.88 235.379C298.472 234.018 297.927 232.929 297.291 232.112C296.564 231.068 295.474 229.934 294.475 230.251C292.385 230.887 290.932 237.103 290.932 242.186C290.932 242.776 290.977 243.547 290.977 244.409C291.068 249.401 291.25 259.792 293.839 261.925C294.429 262.379 294.929 262.606 295.428 262.47C296.927 262.016 297.972 258.34 298.608 256.208C298.699 255.845 298.744 255.527 298.88 255.209C298.971 254.937 299.244 254.801 299.562 254.892C299.834 254.937 299.97 255.255 299.88 255.527C299.834 255.845 299.743 256.162 299.607 256.48C298.835 259.157 297.79 262.833 295.746 263.423C295.519 263.468 295.337 263.513 295.11 263.513C294.52 263.559 293.884 263.287 293.203 262.787Z" fill="black"/>
<path d="M315.279 229.753C315.279 230.07 315.051 230.342 314.779 230.342H309.555V262.697C309.555 263.015 309.283 263.196 309.01 263.196C308.692 263.196 308.465 262.969 308.465 262.697V230.342H302.333C302.061 230.342 301.879 230.07 301.879 229.753C301.879 229.48 302.106 229.208 302.333 229.208H314.643C315.051 229.208 315.279 229.48 315.279 229.753Z" fill="black"/>
<path d="M325.091 246.27C324.182 248.448 322.002 249.265 319.958 249.265C319.549 249.265 319.186 249.219 318.777 249.174V263.014C318.777 263.286 318.55 263.468 318.277 263.468C318.005 263.468 317.732 263.241 317.732 263.014V229.661C317.732 229.616 317.732 229.616 317.732 229.616V229.571V229.525L317.778 229.48V229.434C317.778 229.434 317.778 229.434 317.823 229.389C317.823 229.344 317.869 229.344 317.869 229.344V229.298C317.914 229.298 317.914 229.298 317.914 229.253H317.96H318.005C318.005 229.207 318.005 229.207 318.05 229.207C318.05 229.207 318.05 229.207 318.096 229.207C318.096 229.207 318.096 229.207 318.141 229.207C325.182 228.663 325.499 232.747 325.727 235.742C325.954 237.602 326.226 243.502 325.091 246.27ZM324.727 235.697C324.5 232.838 324.319 229.888 318.777 230.115V248.13C320.821 248.493 323.228 248.085 324.137 245.907C324.954 243.728 324.954 238.601 324.727 235.697Z" fill="black"/>
<path d="M332.45 262.107C329.725 259.793 329.361 251.444 329.225 243.775C329.225 242.867 329.18 242.096 329.18 241.46C329.18 237.195 330.361 228.392 334.085 228.392C335.175 228.392 336.265 229.163 337.446 230.751C341.262 236.106 340.717 248.04 339.172 254.802C339.172 254.802 339.172 254.802 339.172 254.847C339.082 255.119 338.945 255.437 338.854 255.755C338.082 258.568 336.856 262.834 334.358 262.834C333.767 262.879 333.086 262.607 332.45 262.107ZM330.179 241.46C330.179 242.05 330.224 242.822 330.224 243.684C330.315 248.676 330.497 259.067 333.086 261.291C333.54 261.654 333.904 261.835 334.267 261.835C335.993 261.835 337.128 257.706 337.764 255.528C337.855 255.165 337.991 254.892 338.037 254.575C339.536 248.222 340.081 236.424 336.538 231.387C335.584 230.116 334.767 229.435 334.04 229.435C331.905 229.481 330.179 235.97 330.179 241.46Z" fill="black"/>
<path d="M354.526 229.526V262.107C354.526 262.425 354.253 262.652 353.981 262.652C353.663 262.652 353.481 262.425 353.481 262.107V233.156L345.032 262.289C344.987 262.515 344.76 262.652 344.578 262.652C344.533 262.652 344.533 262.652 344.487 262.652C344.26 262.606 344.079 262.379 344.079 262.107V229.526C344.079 229.253 344.306 228.981 344.624 228.981C344.896 228.981 345.123 229.253 345.123 229.526V258.477L353.526 229.344C353.617 229.117 353.844 228.981 354.117 229.026C354.344 229.072 354.526 229.253 354.526 229.526ZM348.666 228.391C348.439 228.255 348.439 227.847 348.666 227.665L352.254 223.627C352.482 223.4 352.8 223.4 352.981 223.581C353.208 223.808 353.254 224.126 353.027 224.307L349.393 228.346C349.302 228.482 349.12 228.573 349.03 228.573C348.893 228.527 348.802 228.482 348.666 228.391Z" fill="black"/>
<path d="M373.513 268.143C373.468 268.37 373.241 268.506 372.968 268.506C372.968 268.506 372.923 268.506 372.877 268.506C369.425 267.735 367.972 260.792 366.882 255.664C366.564 254.03 366.246 252.624 365.973 251.807C364.883 248.721 362.43 245.681 359.296 245.862V262.471C359.296 262.743 359.069 262.925 358.751 262.925C358.479 262.925 358.297 262.698 358.297 262.471V229.98C358.297 229.662 358.524 229.436 358.751 229.436C359.069 229.436 359.296 229.662 359.296 229.98V244.819C359.296 244.773 359.342 244.773 359.342 244.728C363.066 240.78 364.61 235.244 365.928 229.844C366.019 229.572 366.291 229.436 366.564 229.481C366.836 229.572 366.972 229.844 366.927 230.116C365.61 235.38 364.065 240.871 360.432 245C363.657 245.545 365.928 248.721 366.836 251.58C367.154 252.488 367.472 253.94 367.835 255.619C368.789 260.156 370.243 267.054 373.059 267.644C373.331 267.644 373.559 267.871 373.513 268.143Z" fill="black"/>
<path d="M385.597 262.561C385.642 262.834 385.46 263.106 385.142 263.151C384.824 263.151 384.552 262.924 384.552 262.698L383.507 252.215H375.74C374.832 258.069 374.423 262.607 374.377 262.698C374.377 262.97 374.105 263.151 373.878 263.151C373.878 263.151 373.878 263.151 373.832 263.151C373.56 263.106 373.287 262.834 373.378 262.561C373.378 262.471 373.923 257.706 374.786 251.671C374.786 251.625 374.832 251.58 374.832 251.535C375.967 244.274 377.693 235.108 379.964 229.662C380.055 229.435 380.282 229.345 380.509 229.345H381.872C382.145 229.345 382.417 229.481 382.417 229.799L385.597 262.561ZM383.416 251.126L381.327 230.298H380.782C378.647 235.607 376.966 244.138 375.876 251.126H383.416Z" fill="black"/>
<path d="M78.7972 79.2788C80.503 79.2788 81.8858 77.8973 81.8858 76.1931C81.8858 74.4889 80.503 73.1074 78.7972 73.1074C77.0913 73.1074 75.7085 74.4889 75.7085 76.1931C75.7085 77.8973 77.0913 79.2788 78.7972 79.2788Z" fill="#DA5C42"/>
<path d="M78.7972 139.495C80.503 139.495 81.8858 138.113 81.8858 136.409C81.8858 134.705 80.503 133.323 78.7972 133.323C77.0913 133.323 75.7085 134.705 75.7085 136.409C75.7085 138.113 77.0913 139.495 78.7972 139.495Z" fill="#DA5C42"/>
<path d="M78.7972 194.72C80.503 194.72 81.8858 193.339 81.8858 191.635C81.8858 189.93 80.503 188.549 78.7972 188.549C77.0913 188.549 75.7085 189.93 75.7085 191.635C75.7085 193.339 77.0913 194.72 78.7972 194.72Z" fill="#DA5C42"/>
<path d="M78.7972 250.582C80.503 250.582 81.8858 249.2 81.8858 247.496C81.8858 245.792 80.503 244.41 78.7972 244.41C77.0913 244.41 75.7085 245.792 75.7085 247.496C75.7085 249.2 77.0913 250.582 78.7972 250.582Z" fill="#DA5C42"/>
</svg>
