<svg width="433" height="337" viewBox="0 0 433 337" fill="none" xmlns="http://www.w3.org/2000/svg">
<mask id="path-1-inside-1_102_2657" fill="white">
<path d="M367.67 212.663C367.654 212.345 367.626 212.029 367.604 211.712C367.552 210.978 367.488 210.247 367.404 209.513C367.364 209.154 367.32 208.795 367.274 208.438C367.18 207.719 367.072 207.004 366.947 206.294C366.893 205.976 366.845 205.656 366.785 205.34C366.585 204.341 366.385 203.33 366.129 202.343C361.036 182.33 345.507 173.341 337.56 169.968C337.424 171.738 337.254 173.493 337.014 175.208C336.247 180.832 334.834 186.35 332.801 191.651C322.998 211.753 305.748 211.753 305.748 211.753C318.27 205.722 327.061 190.77 329.278 172.502C329.605 169.793 329.787 167.07 329.822 164.342C330.002 150.293 326.389 136.895 319.645 126.613C303.039 101.312 271.447 102.431 261.964 105.939C261.908 107.492 261.764 109.52 261.496 111.872C261.326 113.345 261.096 114.942 260.816 116.623C255.971 138.164 241.706 140.252 241.706 140.252C247.748 134.898 250.909 125.594 252.51 117.686C253.876 110.913 254.096 105.167 253.992 103.804L253.776 102.359C252.327 92.3172 249.635 73.6235 230.321 61.347C208.87 47.7114 181.881 53.6269 168.947 60.9433L168.913 60.9632C164.675 63.5248 160.689 66.4803 157.007 69.7905C149.177 76.8371 140.72 87.4529 139.676 101.005C139.676 101.005 132.436 85.4604 145.594 69.9683C149.283 65.8469 153.379 62.1075 157.82 58.8069C159.784 57.34 161.553 56.1449 163.003 55.2197C162.919 51.4505 161.767 46.5203 157.558 41.6701C152.218 35.5208 140.268 27.8087 113.658 25.9961C77.3705 23.526 55.3315 42.3415 47.9872 63.913C49.8762 63.5214 51.7889 63.2544 53.713 63.1136C69.1839 62.0144 75.4378 70.6738 75.4378 70.6738C67.3013 68.6174 57.6142 69.9004 51.1442 71.3773C47.7031 72.1606 45.1763 72.998 44.274 73.4177L44.01 73.5476C24.6679 83.0743 13.2923 97.4852 10.1993 116.387C7.62652 132.109 11.6778 146.546 14.4987 152.651C14.6987 153.001 16.1632 155.473 18.9981 158.562C26.6225 166.88 44.136 179.682 73.3992 167.687C73.3992 167.687 66.415 179.38 50.7441 180.551C46.349 180.563 41.9704 180.015 37.714 178.921C33.6004 177.857 29.6427 176.263 25.9403 174.18C21.7834 171.829 17.9659 168.924 14.5927 165.545C13.3308 164.293 12.1342 162.977 11.0076 161.602C3.4292 174.816 -3.71505 198.038 2.25883 220.313C6.99432 237.971 21.2648 249.876 29.9115 255.686C29.9115 255.63 29.8975 255.576 29.8915 255.518C29.6954 253.533 29.6847 251.534 29.8595 249.546C30.8598 238.385 37.888 234.208 37.888 234.208C37.2362 241.029 37.2295 247.895 37.868 254.717C38.1301 257.422 38.4882 260.076 38.9704 262.658C41.6112 276.794 48.8015 295.465 68.0595 304.141C84.7028 311.639 99.6495 310.28 107.084 308.805C106.26 307.307 105.525 305.763 104.883 304.179C100.698 293.914 100.282 282.097 102.294 271.004C95.9123 270.023 90.6326 267.926 86.3833 265.109C74.4115 253.485 80.1693 242.708 80.1693 242.708C81.0336 247.022 85.2789 260.694 104.235 263.224C110.481 245.62 124.585 242.816 124.585 242.816C113.678 252.5 103.345 281.208 112.582 301.988C113.647 304.403 114.983 306.689 116.563 308.803C140.834 338.272 176.908 336.734 193.571 327.389C192.602 326.025 191.833 324.531 191.286 322.95C188.841 316.025 190.286 308.361 190.286 308.361C191.486 312.626 193.997 316.377 196.432 319.221C198.815 322.003 201.125 323.907 202.106 324.575C234.062 343.942 262.789 337.741 277.093 322.99L278.624 321.411H278.644C279.902 320.054 281.024 318.576 281.991 316.999C287.094 308.715 288.823 296.96 286.842 283.025C286.842 283.025 298.516 298.785 291.644 315.65C291.26 316.565 290.844 317.448 290.399 318.32C289.579 319.952 288.643 321.523 287.599 323.022C312.738 326.519 341.974 321.223 355.47 296.379C364.973 278.876 364.327 264.755 362.576 256.747C362.046 257.442 361.504 258.128 360.946 258.789C360.079 259.809 359.183 260.766 358.269 261.689C356.13 263.867 353.777 265.824 351.247 267.531C340.643 274.126 324.808 266.332 324.808 266.332C339.675 267.565 349.348 260.11 354.838 253.633C355.218 253.186 355.57 252.706 355.934 252.234C357.579 250.137 359.051 247.909 360.335 245.574C360.371 245.51 360.401 245.442 360.437 245.374C360.902 244.516 361.345 243.64 361.768 242.748C361.866 242.548 361.968 242.334 362.054 242.128C362.414 241.345 362.759 240.551 363.088 239.748C363.174 239.548 363.258 239.33 363.34 239.122C363.684 238.25 364.01 237.366 364.317 236.473C364.359 236.349 364.405 236.225 364.447 236.101C365.51 232.916 366.321 229.654 366.873 226.342C366.901 226.172 366.927 226.001 366.956 225.831C367.1 224.914 367.225 223.994 367.332 223.071C367.356 222.853 367.384 222.635 367.406 222.419C367.504 221.476 367.581 220.533 367.636 219.589C367.636 219.434 367.66 219.28 367.668 219.126C367.726 218.015 367.758 216.904 367.756 215.796C367.756 215.76 367.756 215.724 367.756 215.688C367.76 214.679 367.72 213.668 367.67 212.663ZM209.86 300.995C204.423 300.979 199.018 300.163 193.819 298.573C172.876 292.248 155.637 274.427 152.828 256.205C150.111 238.581 154.079 221.078 163.716 208.186C178.616 189.878 198.23 197.43 198.23 197.43C187.133 198.939 177.692 204.519 170.93 213.566C162.727 224.538 159.374 239.58 161.727 254.838C163.998 269.581 178.916 284.686 196.424 289.973C206.645 293.061 226.455 295.319 244.315 275.784C244.315 275.778 244.315 297.456 209.87 300.997L209.86 300.995ZM293.897 175.056C291.026 181.717 287.016 187.446 282.599 191.273C275.667 197.269 267.108 200.354 258.579 200.354C255.16 200.351 251.76 199.845 248.488 198.853C249.455 208.372 248.488 217.401 245.719 225.433C249.296 237.382 256.897 245.779 267.302 249.175C276.603 252.208 287.108 250.742 293.444 245.522C293.444 245.522 285.826 263.474 264.817 256.773C254.264 253.33 246.067 245.893 241.032 235.439C239.558 237.858 237.873 240.142 235.996 242.264C217.965 257.109 202 248.985 202 248.985C212.313 248.837 222.246 244.215 229.254 236.305C235.042 229.77 241.518 218.055 239.497 199.333C236.388 170.539 214.135 141.052 172.642 144.375C137.011 147.239 117.063 174.01 112.439 190.684C114.04 191.159 115.668 191.725 117.317 192.398C139.134 203.19 139.134 223.265 139.134 223.265C128.647 206.819 114.54 197.902 98.341 197.484C80.1833 197.015 63.09 207.431 55.5676 217.969C55.5676 217.969 55.2375 201.369 78.1127 191.647C84.6962 189.408 91.6222 188.341 98.5751 188.495C100.176 188.537 101.848 188.661 103.577 188.869C105.797 180.212 111.037 170.263 119.122 161.29C120.842 153.86 118.697 148.5 112.564 144.941L112.339 144.809L112.381 144.739C104.579 139.927 97.3507 133.244 92.0711 125.168C75.932 113.151 54.6593 120.753 52.0405 123.641C52.0405 123.641 52.0405 113.265 65.8128 110.915C71.4306 110.303 78.6909 110.435 86.1252 113.045C86.0432 112.801 85.9511 112.564 85.8711 112.318C81.5058 98.8362 83.1403 84.0016 90.3605 71.6151C98.4071 57.4759 114.168 57.4759 114.168 57.4759C114.168 57.4759 105.927 63.0416 98.157 76.1316C92.2331 86.3238 90.8747 98.4944 94.4558 109.548C98.3951 121.711 107.316 131.131 116.933 137.065L117.103 137.165C117.319 137.291 117.515 137.427 117.723 137.564C126.234 142.619 135.189 144.921 141.669 143.948C150.385 139.473 160.475 136.353 171.92 135.438C173.157 135.338 174.381 135.27 175.599 135.222C174.453 126.727 175.493 115.437 179.937 105.321C188.203 88.7 203.668 91.276 203.668 91.276C185.721 99.1599 181.427 122.34 183.698 135.286C199.755 136.223 214.001 141.915 225.375 152.039C235.904 161.412 243.297 174.112 246.736 188.485C256.301 193.416 268.118 191.903 276.701 184.472C285.688 176.692 292.378 158.796 288.015 144.555C288.015 144.557 301.655 153.152 293.897 175.056Z"/>
</mask>
<path d="M367.67 212.663C367.654 212.345 367.626 212.029 367.604 211.712C367.552 210.978 367.488 210.247 367.404 209.513C367.364 209.154 367.32 208.795 367.274 208.438C367.18 207.719 367.072 207.004 366.947 206.294C366.893 205.976 366.845 205.656 366.785 205.34C366.585 204.341 366.385 203.33 366.129 202.343C361.036 182.33 345.507 173.341 337.56 169.968C337.424 171.738 337.254 173.493 337.014 175.208C336.247 180.832 334.834 186.35 332.801 191.651C322.998 211.753 305.748 211.753 305.748 211.753C318.27 205.722 327.061 190.77 329.278 172.502C329.605 169.793 329.787 167.07 329.822 164.342C330.002 150.293 326.389 136.895 319.645 126.613C303.039 101.312 271.447 102.431 261.964 105.939C261.908 107.492 261.764 109.52 261.496 111.872C261.326 113.345 261.096 114.942 260.816 116.623C255.971 138.164 241.706 140.252 241.706 140.252C247.748 134.898 250.909 125.594 252.51 117.686C253.876 110.913 254.096 105.167 253.992 103.804L253.776 102.359C252.327 92.3172 249.635 73.6235 230.321 61.347C208.87 47.7114 181.881 53.6269 168.947 60.9433L168.913 60.9632C164.675 63.5248 160.689 66.4803 157.007 69.7905C149.177 76.8371 140.72 87.4529 139.676 101.005C139.676 101.005 132.436 85.4604 145.594 69.9683C149.283 65.8469 153.379 62.1075 157.82 58.8069C159.784 57.34 161.553 56.1449 163.003 55.2197C162.919 51.4505 161.767 46.5203 157.558 41.6701C152.218 35.5208 140.268 27.8087 113.658 25.9961C77.3705 23.526 55.3315 42.3415 47.9872 63.913C49.8762 63.5214 51.7889 63.2544 53.713 63.1136C69.1839 62.0144 75.4378 70.6738 75.4378 70.6738C67.3013 68.6174 57.6142 69.9004 51.1442 71.3773C47.7031 72.1606 45.1763 72.998 44.274 73.4177L44.01 73.5476C24.6679 83.0743 13.2923 97.4852 10.1993 116.387C7.62652 132.109 11.6778 146.546 14.4987 152.651C14.6987 153.001 16.1632 155.473 18.9981 158.562C26.6225 166.88 44.136 179.682 73.3992 167.687C73.3992 167.687 66.415 179.38 50.7441 180.551C46.349 180.563 41.9704 180.015 37.714 178.921C33.6004 177.857 29.6427 176.263 25.9403 174.18C21.7834 171.829 17.9659 168.924 14.5927 165.545C13.3308 164.293 12.1342 162.977 11.0076 161.602C3.4292 174.816 -3.71505 198.038 2.25883 220.313C6.99432 237.971 21.2648 249.876 29.9115 255.686C29.9115 255.63 29.8975 255.576 29.8915 255.518C29.6954 253.533 29.6847 251.534 29.8595 249.546C30.8598 238.385 37.888 234.208 37.888 234.208C37.2362 241.029 37.2295 247.895 37.868 254.717C38.1301 257.422 38.4882 260.076 38.9704 262.658C41.6112 276.794 48.8015 295.465 68.0595 304.141C84.7028 311.639 99.6495 310.28 107.084 308.805C106.26 307.307 105.525 305.763 104.883 304.179C100.698 293.914 100.282 282.097 102.294 271.004C95.9123 270.023 90.6326 267.926 86.3833 265.109C74.4115 253.485 80.1693 242.708 80.1693 242.708C81.0336 247.022 85.2789 260.694 104.235 263.224C110.481 245.62 124.585 242.816 124.585 242.816C113.678 252.5 103.345 281.208 112.582 301.988C113.647 304.403 114.983 306.689 116.563 308.803C140.834 338.272 176.908 336.734 193.571 327.389C192.602 326.025 191.833 324.531 191.286 322.95C188.841 316.025 190.286 308.361 190.286 308.361C191.486 312.626 193.997 316.377 196.432 319.221C198.815 322.003 201.125 323.907 202.106 324.575C234.062 343.942 262.789 337.741 277.093 322.99L278.624 321.411H278.644C279.902 320.054 281.024 318.576 281.991 316.999C287.094 308.715 288.823 296.96 286.842 283.025C286.842 283.025 298.516 298.785 291.644 315.65C291.26 316.565 290.844 317.448 290.399 318.32C289.579 319.952 288.643 321.523 287.599 323.022C312.738 326.519 341.974 321.223 355.47 296.379C364.973 278.876 364.327 264.755 362.576 256.747C362.046 257.442 361.504 258.128 360.946 258.789C360.079 259.809 359.183 260.766 358.269 261.689C356.13 263.867 353.777 265.824 351.247 267.531C340.643 274.126 324.808 266.332 324.808 266.332C339.675 267.565 349.348 260.11 354.838 253.633C355.218 253.186 355.57 252.706 355.934 252.234C357.579 250.137 359.051 247.909 360.335 245.574C360.371 245.51 360.401 245.442 360.437 245.374C360.902 244.516 361.345 243.64 361.768 242.748C361.866 242.548 361.968 242.334 362.054 242.128C362.414 241.345 362.759 240.551 363.088 239.748C363.174 239.548 363.258 239.33 363.34 239.122C363.684 238.25 364.01 237.366 364.317 236.473C364.359 236.349 364.405 236.225 364.447 236.101C365.51 232.916 366.321 229.654 366.873 226.342C366.901 226.172 366.927 226.001 366.956 225.831C367.1 224.914 367.225 223.994 367.332 223.071C367.356 222.853 367.384 222.635 367.406 222.419C367.504 221.476 367.581 220.533 367.636 219.589C367.636 219.434 367.66 219.28 367.668 219.126C367.726 218.015 367.758 216.904 367.756 215.796C367.756 215.76 367.756 215.724 367.756 215.688C367.76 214.679 367.72 213.668 367.67 212.663ZM209.86 300.995C204.423 300.979 199.018 300.163 193.819 298.573C172.876 292.248 155.637 274.427 152.828 256.205C150.111 238.581 154.079 221.078 163.716 208.186C178.616 189.878 198.23 197.43 198.23 197.43C187.133 198.939 177.692 204.519 170.93 213.566C162.727 224.538 159.374 239.58 161.727 254.838C163.998 269.581 178.916 284.686 196.424 289.973C206.645 293.061 226.455 295.319 244.315 275.784C244.315 275.778 244.315 297.456 209.87 300.997L209.86 300.995ZM293.897 175.056C291.026 181.717 287.016 187.446 282.599 191.273C275.667 197.269 267.108 200.354 258.579 200.354C255.16 200.351 251.76 199.845 248.488 198.853C249.455 208.372 248.488 217.401 245.719 225.433C249.296 237.382 256.897 245.779 267.302 249.175C276.603 252.208 287.108 250.742 293.444 245.522C293.444 245.522 285.826 263.474 264.817 256.773C254.264 253.33 246.067 245.893 241.032 235.439C239.558 237.858 237.873 240.142 235.996 242.264C217.965 257.109 202 248.985 202 248.985C212.313 248.837 222.246 244.215 229.254 236.305C235.042 229.77 241.518 218.055 239.497 199.333C236.388 170.539 214.135 141.052 172.642 144.375C137.011 147.239 117.063 174.01 112.439 190.684C114.04 191.159 115.668 191.725 117.317 192.398C139.134 203.19 139.134 223.265 139.134 223.265C128.647 206.819 114.54 197.902 98.341 197.484C80.1833 197.015 63.09 207.431 55.5676 217.969C55.5676 217.969 55.2375 201.369 78.1127 191.647C84.6962 189.408 91.6222 188.341 98.5751 188.495C100.176 188.537 101.848 188.661 103.577 188.869C105.797 180.212 111.037 170.263 119.122 161.29C120.842 153.86 118.697 148.5 112.564 144.941L112.339 144.809L112.381 144.739C104.579 139.927 97.3507 133.244 92.0711 125.168C75.932 113.151 54.6593 120.753 52.0405 123.641C52.0405 123.641 52.0405 113.265 65.8128 110.915C71.4306 110.303 78.6909 110.435 86.1252 113.045C86.0432 112.801 85.9511 112.564 85.8711 112.318C81.5058 98.8362 83.1403 84.0016 90.3605 71.6151C98.4071 57.4759 114.168 57.4759 114.168 57.4759C114.168 57.4759 105.927 63.0416 98.157 76.1316C92.2331 86.3238 90.8747 98.4944 94.4558 109.548C98.3951 121.711 107.316 131.131 116.933 137.065L117.103 137.165C117.319 137.291 117.515 137.427 117.723 137.564C126.234 142.619 135.189 144.921 141.669 143.948C150.385 139.473 160.475 136.353 171.92 135.438C173.157 135.338 174.381 135.27 175.599 135.222C174.453 126.727 175.493 115.437 179.937 105.321C188.203 88.7 203.668 91.276 203.668 91.276C185.721 99.1599 181.427 122.34 183.698 135.286C199.755 136.223 214.001 141.915 225.375 152.039C235.904 161.412 243.297 174.112 246.736 188.485C256.301 193.416 268.118 191.903 276.701 184.472C285.688 176.692 292.378 158.796 288.015 144.555C288.015 144.557 301.655 153.152 293.897 175.056Z" fill="#DA5C42" stroke="black" stroke-width="6" mask="url(#path-1-inside-1_102_2657)"/>
<path d="M128.375 152.567C128.639 152.355 128.899 152.141 129.175 151.934C128.853 151.854 128.527 151.764 128.203 151.678C128.259 151.972 128.323 152.273 128.375 152.567Z" fill="#DA5C42"/>
<path d="M405.967 133L405.967 133.002C405.967 132.996 405.967 132.991 405.967 132.989L405.967 132.997L405.967 133ZM405.967 133C405.965 132.829 405.934 132.657 405.871 132.492C405.118 131.896 404.219 132.034 403.624 132.309L403.32 132.053C402.009 133.609 395.986 140.418 388.891 143.85C388.177 143.169 387.455 142.515 386.726 141.892C386.714 141.882 386.703 141.872 386.691 141.863C386.658 141.836 386.624 141.811 386.589 141.788C377.264 135.512 369.284 135.024 363.568 136.21C360.734 136.798 358.494 137.79 356.955 138.64C356.185 139.066 355.587 139.458 355.175 139.749C354.97 139.894 354.81 140.015 354.698 140.102C354.642 140.146 354.598 140.182 354.565 140.208C354.549 140.221 354.536 140.232 354.526 140.24L354.514 140.25L354.509 140.254L354.507 140.256C354.507 140.257 354.506 140.257 355.478 141.4L354.506 140.257C354.005 140.683 353.84 141.386 354.099 141.99C354.358 142.594 354.98 142.96 355.633 142.891C367.429 141.664 384.034 148.709 394.226 173.435L395.613 172.863L394.226 173.435C399.785 186.918 399.822 200.955 398.425 211.719C397.727 217.092 396.676 221.624 395.793 224.826C395.351 226.426 394.953 227.692 394.663 228.563C394.518 228.999 394.4 229.335 394.317 229.565C394.276 229.679 394.244 229.768 394.221 229.828C394.212 229.851 394.205 229.87 394.2 229.884C394.191 229.908 394.187 229.919 394.188 229.917C393.959 230.502 394.119 231.168 394.589 231.585C395.06 232.002 395.74 232.082 396.294 231.785L395.585 230.463C396.294 231.785 396.295 231.785 396.296 231.784L396.298 231.783L396.303 231.78L396.317 231.772L396.36 231.748C396.396 231.728 396.444 231.7 396.505 231.665C396.627 231.593 396.798 231.489 397.011 231.35C397.436 231.074 398.03 230.66 398.736 230.095C400.147 228.965 402.01 227.224 403.867 224.754C407.593 219.797 411.25 211.964 411.251 200.381L405.967 133ZM405.32 168.852C402.608 162.278 399.456 156.694 396.009 151.989L411.251 199.904C414.384 201.701 417.207 203.604 418.499 204.598C428.396 213.335 430.756 229.771 423.889 247.896C420.115 257.848 412.117 265.068 402.806 270.013C394.19 274.589 384.551 277.158 376.397 278.123C377.726 269.163 377.021 257.978 375.067 250.195C380.98 235.509 383.445 221.619 382.31 208.886C380.351 186.93 367.987 170.272 345.852 159.354C344.666 139.938 337.822 122.469 326.537 109.977C325.69 106.749 325.541 101.369 328.14 94.5568C328.143 94.5524 328.146 94.548 328.149 94.5433C328.17 94.5138 328.196 94.4767 328.225 94.4343C328.253 94.3932 328.283 94.3471 328.314 94.2981C328.35 94.2402 328.382 94.1798 328.41 94.1175C328.631 93.6251 328.831 93.1676 329.02 92.7384C329.98 90.5492 330.619 89.0922 331.943 87.4519C335.168 83.4573 339.751 81.1393 344.249 80.1389C348.787 79.1292 353.012 79.5093 355.446 80.6364C356.035 80.9091 356.733 80.772 357.175 80.2966C357.617 79.8212 357.703 79.1154 357.388 78.5477L356.076 79.2752C357.388 78.5477 357.388 78.5469 357.387 78.5461L357.386 78.5442L357.383 78.5396L357.376 78.5271L357.355 78.4889C357.336 78.4577 357.312 78.4153 357.28 78.3625C357.216 78.257 357.124 78.1101 357.004 77.9295C356.765 77.5687 356.411 77.0712 355.94 76.5004C355.003 75.3624 353.582 73.91 351.657 72.6718C347.958 70.2939 342.523 68.7994 335.404 71.5274C334.956 63.7197 331.48 58.7665 327.903 55.7472C325.963 54.1095 324.016 53.0573 322.552 52.4131C321.818 52.0903 321.202 51.8678 320.761 51.7242C320.54 51.6523 320.364 51.6001 320.238 51.5648C320.175 51.5471 320.124 51.5337 320.088 51.5242L320.043 51.5128L320.029 51.5092L320.023 51.5079L320.021 51.5074C320.02 51.5072 320.019 51.507 319.669 52.9654L320.019 51.507C319.402 51.3585 318.758 51.6149 318.412 52.1471C318.065 52.6793 318.091 53.372 318.477 53.8765C328.946 67.5695 321.896 82.0397 318.186 87.8574C313.896 94.5789 308.414 95.1394 305.91 95.0137C294.832 90.0888 281.971 88.1654 267.879 89.3249C265.526 78.1774 260.187 67.9285 252.471 59.4697C255.645 55.1321 257.816 49.6129 259.071 44.0357C259.073 44.0246 259.076 44.0135 259.078 44.0023C259.081 43.9873 259.084 43.9722 259.086 43.957C260.464 35.8246 258.345 30.4722 255.725 27.1387C254.433 25.4945 253.049 24.3791 251.981 23.6712C251.446 23.3168 250.987 23.0625 250.654 22.8935C250.487 22.8089 250.351 22.7454 250.252 22.7013C250.202 22.6792 250.162 22.6619 250.132 22.6492L250.094 22.6335L250.081 22.6281L250.076 22.6261L250.074 22.6252C250.073 22.6248 250.072 22.6244 249.521 24.0196L250.072 22.6244C249.476 22.3895 248.798 22.5578 248.382 23.0437C247.965 23.5295 247.903 24.2259 248.226 24.7779C248.694 25.5756 249.118 27.1878 249.311 29.4911C249.499 31.7349 249.454 34.4525 249.121 37.317C248.517 42.5264 246.989 48.009 244.381 51.9697C242.511 50.4888 240.564 49.1063 238.549 47.8278L238.546 47.8261C220.199 36.2407 197.356 33.7278 173.876 40.473C164.519 26.64 150.303 18.6185 137.709 14.9511C150.023 6.11992 174.337 -1.69235 199.804 11.9028C197.695 16.563 197.626 21.1104 198.115 24.5551C198.383 26.4435 198.82 28.0172 199.193 29.1242C199.379 29.6786 199.55 30.1183 199.677 30.4248C199.741 30.5781 199.793 30.6983 199.831 30.783C199.85 30.8253 199.866 30.8588 199.877 30.8832L199.891 30.9129L199.896 30.9225L199.897 30.9261L199.898 30.9275C199.898 30.9281 199.899 30.9287 201.25 30.2768L199.899 30.9287C200.184 31.5199 200.82 31.8569 201.47 31.7606C202.119 31.6643 202.63 31.1569 202.732 30.5084C204.168 21.3174 209.479 15.6662 211.149 14.0924C221.715 4.89603 238.404 0.0573418 253.642 1.87917L253.642 1.8792C264.823 3.21354 280.976 8.69602 294.279 27.3631C296.335 31.4531 300.297 41.9959 295.737 56.4901C295.522 57.1738 295.82 57.9141 296.449 58.2573C297.079 58.6004 297.863 58.4505 298.321 57.8994L297.168 56.9404C298.321 57.8994 298.321 57.8989 298.322 57.8984L298.323 57.897L298.326 57.8933L298.335 57.8822L298.366 57.8449C298.391 57.8134 298.427 57.7686 298.473 57.711C298.563 57.5958 298.693 57.4289 298.853 57.2131C299.174 56.7815 299.621 56.1534 300.139 55.3501C301.175 53.7452 302.503 51.431 303.682 48.5792C305.914 43.1788 307.642 35.7684 305.735 27.5899C321.552 22.1079 346.985 25.4611 367.347 43.5898L368.344 42.4695L367.347 43.5898C377.447 52.5825 381.091 63.6841 382.173 72.7379C383.256 81.7941 381.762 88.7216 381.65 89.2214C381.65 89.2221 381.65 89.2228 381.649 89.2235L380.85 92.7117C380.812 92.8809 380.803 93.0504 380.822 93.2144C379.512 98.8826 376.794 108.16 372.053 114.708C371.647 115.267 371.677 116.032 372.125 116.559C372.573 117.086 373.322 117.238 373.94 116.928L373.268 115.587C373.94 116.928 373.941 116.928 373.942 116.927L373.943 116.927L373.947 116.925L373.957 116.919L373.99 116.902C374.018 116.888 374.056 116.868 374.104 116.842C374.201 116.791 374.338 116.716 374.511 116.617C374.856 116.418 375.347 116.124 375.947 115.727C377.146 114.934 378.787 113.73 380.587 112.069C383.942 108.974 387.866 104.276 390.5 97.6825C410.504 106.175 423.926 121.295 428.689 140.718C433.687 161.104 427.849 182.328 420.902 192.891C417.929 190.973 414.043 188.702 410.292 187.072C409.379 180.823 407.71 174.706 405.322 168.857L405.32 168.852Z" fill="#DA5C42" stroke="black" stroke-width="3" stroke-linejoin="round"/>
</svg>
