<svg width="94" height="69" viewBox="0 0 94 69" fill="none" xmlns="http://www.w3.org/2000/svg">
<g clip-path="url(#clip0_102_2584)">
<path d="M79.5334 22.4181H83.4518C84.1058 22.4181 84.7534 22.5482 85.3576 22.8009C85.9618 23.0536 86.5108 23.424 86.9732 23.8909C87.4356 24.3578 87.8024 24.9122 88.0527 25.5222C88.3029 26.1323 88.4317 26.7862 88.4317 27.4465C88.4321 28.1071 88.3035 28.7613 88.0534 29.3717C87.8033 29.9821 87.4366 30.5367 86.9741 31.004C86.5116 31.4712 85.9625 31.8419 85.3581 32.0947C84.7537 32.3476 84.1059 32.4778 83.4517 32.4778H86.6798C88.1044 32.4778 89.4707 33.0492 90.478 34.0664C91.4853 35.0835 92.0512 36.463 92.0512 37.9015C92.0512 39.34 91.4852 40.7195 90.4779 41.7367C89.4705 42.7538 88.1042 43.3252 86.6796 43.3252H60.0831C61.4606 50.2249 59.7145 55.5315 56.5094 61.9978C52.6721 69.7351 44.8817 68.4407 46.1028 63.7696C47.0441 60.0178 47.5215 56.1628 47.5242 52.2925C47.5243 47.6712 45.5376 43.3897 38.4549 43.3897H3.85328C3.3494 43.3889 2.86634 43.1866 2.50978 42.8271C2.15322 42.4677 1.95219 41.9802 1.95066 41.4714L1.95135 3.39997C1.95136 2.89045 2.15182 2.4018 2.50865 2.04151C2.86547 1.68123 3.34942 1.47883 3.85404 1.47883H76.0881C76.7943 1.47883 77.4935 1.61926 78.1459 1.89213C78.7983 2.16499 79.3911 2.56493 79.8904 3.06911C80.3898 3.5733 80.7859 4.17185 81.0561 4.8306C81.3263 5.48934 81.4654 6.19538 81.4654 6.9084C81.4657 7.62167 81.3269 8.32803 81.0568 8.98711C80.7868 9.64619 80.3907 10.2451 79.8913 10.7496C79.392 11.2541 78.799 11.6543 78.1464 11.9273C77.4938 12.2004 76.7943 12.3409 76.0879 12.3409H80.1195C80.7758 12.3405 81.4259 12.4708 82.0323 12.7242C82.6388 12.9777 83.1899 13.3493 83.654 13.818C84.1181 14.2866 84.4862 14.843 84.7372 15.4554C84.9882 16.0678 85.1171 16.7241 85.1167 17.3868C85.1171 18.0496 84.9881 18.7059 84.7371 19.3183C84.4861 19.9307 84.118 20.4871 83.6538 20.9557C83.1897 21.4244 82.6386 21.796 82.0322 22.0495C81.4257 22.3029 80.7757 22.4332 80.1193 22.4328L79.5334 22.4181Z" fill="white"/>
<path d="M35.8934 6.05322H12.3433L12.3434 0.222442H35.8935L35.8934 6.05322Z" fill="#E0E0E0"/>
<path d="M18.3696 44.0894L18.3704 0.749474H21.4708L18.3696 44.0894Z" fill="#E0E0E0"/>
<path d="M17.7165 44.0923H2.69018C2.28789 44.0923 1.90208 43.9309 1.61762 43.6437C1.33316 43.3564 1.17336 42.9669 1.17337 42.5606L1.17401 6.94925H17.7055L17.7165 44.0923Z" fill="#DA5C42"/>
<path d="M1.17383 6.94971L1.17391 2.28157C1.17392 1.87535 1.33374 1.48577 1.6182 1.19853C1.90267 0.911297 2.28849 0.749928 2.69078 0.749928H17.7171L17.717 6.94971H1.17383Z" fill="#DA5C42"/>
<path d="M92.0566 37.5264C92.053 36.8552 91.9115 36.1922 91.6409 35.5792C91.3703 34.9661 90.9766 34.4166 90.4847 33.9652C89.4519 33.0114 88.0995 32.4881 86.6999 32.5009H83.4342C83.4341 37.0783 92.0566 34.3167 92.0566 37.5264Z" fill="#E0E0E0"/>
<path d="M88.5298 27.4553C88.5299 26.1202 88.0046 24.8397 87.0697 23.8956C86.1347 22.9515 84.8666 22.4211 83.5444 22.4211H80.1105C80.1104 27.3528 88.4922 23.9264 88.4921 28.0615C88.5179 27.8605 88.5305 27.658 88.5298 27.4553Z" fill="#E0E0E0"/>
<path d="M76.088 12.3261C76.0879 16.1333 85.1948 14.4376 85.1947 17.3604C85.1948 14.5811 82.8224 12.3261 79.896 12.3261H76.088Z" fill="#E0E0E0"/>
<path d="M80.517 9.89551C81.3872 8.99058 81.6192 7.83087 81.6192 6.47201C81.6193 5.11315 80.8391 3.74843 79.9313 2.83765C78.9887 1.89454 77.714 1.36786 76.387 1.37336H36.0456L36.0455 6.03565H76.4914C79.4585 6.03565 80.5258 8.35508 80.517 9.89551Z" fill="#E0E0E0"/>
<path d="M53.9077 65.7583C57.1996 62.4344 60.7816 53.5579 60.7816 49.3407C60.7825 48.5514 60.7429 47.7626 60.6628 46.9774L60.2974 43.3548H56.0543C58.3454 49.4257 57.1272 57.9507 53.9077 65.7583Z" fill="#E0E0E0"/>
<path d="M26.1491 8.07403C28.1113 8.07403 29.7019 9.68021 29.7019 11.6615C29.7019 13.6428 28.1112 15.249 26.149 15.249C24.1868 15.249 22.5962 13.6428 22.5963 11.6615C22.5963 9.68021 24.187 8.07403 26.1491 8.07403Z" fill="#DA5C42"/>
<path d="M49.2845 67.5357C51.5758 67.5357 54.5574 65.9396 56.5124 61.9978C59.7029 55.5315 61.4635 50.2249 60.086 43.3252H86.6825C87.4081 43.3593 88.1331 43.2444 88.8135 42.9875C89.4939 42.7306 90.1156 42.337 90.6411 41.8306C91.1665 41.3241 91.5848 40.7153 91.8706 40.041C92.1563 39.3666 92.3037 38.6408 92.3037 37.9073C92.3037 37.1739 92.1564 36.448 91.8706 35.7737C91.5849 35.0993 91.1666 34.4905 90.6412 33.9841C90.1158 33.4776 89.4941 33.0841 88.8137 32.8272C88.1333 32.5703 87.4083 32.4554 86.6827 32.4895H83.4517C84.7727 32.4887 86.0394 31.9583 86.9732 31.0148C87.9071 30.0713 88.4317 28.792 88.4317 27.4582C88.4333 26.7969 88.3056 26.1417 88.056 25.5303C87.8065 24.9189 87.4399 24.3632 86.9773 23.895C86.5147 23.4268 85.9652 23.0554 85.3603 22.802C84.7553 22.5485 84.1068 22.4181 83.4519 22.4181H80.1164C80.7728 22.4185 81.4228 22.2882 82.0293 22.0348C82.6358 21.7813 83.1868 21.4097 83.651 20.941C84.1151 20.4724 84.4832 19.916 84.7342 19.3036C84.9852 18.6912 85.1143 18.0349 85.1139 17.3722C85.1143 16.7094 84.9853 16.0531 84.7343 15.4407C84.4833 14.8283 84.1152 14.2719 83.6511 13.8033C83.187 13.3347 82.6359 12.963 82.0295 12.7095C81.423 12.4561 80.773 12.3258 80.1166 12.3262H76.0851C76.7915 12.3262 77.491 12.1857 78.1436 11.9126C78.7962 11.6396 79.3891 11.2394 79.8885 10.7349C80.3878 10.2304 80.7839 9.63152 81.054 8.97243C81.324 8.31334 81.4629 7.60699 81.4625 6.89372C81.4625 5.45371 80.896 4.07268 79.8876 3.05443C78.8791 2.03619 77.5114 1.46415 76.0853 1.46415H3.86566C3.61483 1.4626 3.36617 1.51115 3.13398 1.60701C2.9018 1.70287 2.69068 1.84413 2.51277 2.02267C2.33486 2.20123 2.19367 2.41354 2.09732 2.64738C2.00097 2.88124 1.95137 3.13201 1.95137 3.38529L1.95069 41.4714C1.95068 41.9812 2.15103 42.4701 2.50776 42.8309C2.86449 43.1916 3.34842 43.3947 3.85331 43.3955H38.4578C45.5405 43.3955 47.5272 47.677 47.5272 52.2983C47.5244 56.1686 47.047 60.0236 46.1058 63.7754C45.5082 66.0568 47.0773 67.5357 49.2845 67.5357ZM49.2845 69C47.64 69 46.2101 68.3586 45.3545 67.2429C44.957 66.6979 44.6913 66.0666 44.5785 65.3995C44.4657 64.7324 44.509 64.0478 44.7049 63.4006C45.6126 59.7699 46.0734 56.04 46.077 52.2954C46.077 50.0346 45.5608 48.2716 44.5427 47.0562C43.3188 45.5919 41.2712 44.8568 38.452 44.8568H3.85328C2.96452 44.8553 2.11261 44.4981 1.48417 43.8636C0.855735 43.229 0.502013 42.3688 0.500495 41.4714L0.50118 3.39993C0.501964 2.5023 0.855472 1.64165 1.4841 1.00693C2.11272 0.3722 2.96509 0.0152817 3.85409 0.0145035H76.0882C77.3517 0.0171967 78.5896 0.373993 79.6641 1.04515C80.7386 1.71632 81.6075 2.67548 82.1739 3.81583C82.7404 4.95618 82.9822 6.23293 82.8725 7.50388C82.7627 8.77482 82.3057 9.99006 81.5523 11.0142C82.5968 11.2527 83.5661 11.7502 84.3725 12.4616C85.1789 13.1731 85.7971 14.0762 86.1713 15.0893C86.5454 16.1025 86.6638 17.1938 86.5156 18.2647C86.3675 19.3356 85.9575 20.3524 85.3226 21.2232C86.309 21.5227 87.2097 22.0573 87.9485 22.7819C88.6874 23.5065 89.243 24.3999 89.5682 25.3867C89.8935 26.3735 89.979 27.4248 89.8176 28.452C89.6561 29.4792 89.2524 30.4521 88.6405 31.2887C90.213 31.7594 91.5649 32.7864 92.4485 34.1816C93.3321 35.5767 93.6884 37.2467 93.452 38.8854C93.2156 40.5242 92.4023 42.0222 91.1612 43.1048C89.9201 44.1875 88.3342 44.7825 86.6941 44.7807H61.8088C62.6556 51.1796 60.895 56.4423 57.8204 62.645C56.9215 64.5599 55.5551 66.2127 53.8497 67.4479C52.52 68.4225 50.9272 68.964 49.2845 69V69Z" fill="#DA5C42"/>
<path d="M17.7173 43.375L17.718 1.08061" stroke="#DA5C42" stroke-width="5" stroke-miterlimit="10"/>
<path d="M35.1978 43.375L35.1985 1.17433" stroke="#DA5C42" stroke-width="5" stroke-miterlimit="10"/>
</g>
<defs>
<clipPath id="clip0_102_2584">
<rect width="93.0038" height="69.0001" fill="white" transform="matrix(1 0 1.79882e-05 -1 0.5 69)"/>
</clipPath>
</defs>
</svg>
