<svg width="700" height="324" viewBox="0 0 700 324" fill="none" xmlns="http://www.w3.org/2000/svg">
<g opacity="0.2">
<path d="M212.164 247.029C229.06 241.939 239.198 235.41 239.198 228.311C239.198 212.004 185.631 198.777 119.583 198.777C53.5351 198.777 0.000976562 212.004 0.000976562 228.311C0.000976562 244.618 53.5686 257.845 119.616 257.845C124.033 257.845 128.383 257.778 132.665 257.677C116.873 263.269 107.27 270.669 107.27 278.739C107.27 296.285 152.406 310.483 208.082 310.483C263.757 310.483 308.893 296.252 308.893 278.739C308.893 261.662 265.965 247.699 212.164 247.029Z" fill="#E4DED4"/>
</g>
<path d="M247.43 203.566C246.426 215.319 236.556 224.326 224.745 224.326H128.116C127.045 224.326 125.974 224.259 124.937 224.125C100.311 224.125 80.7713 213.778 68.0904 200.083C58.8557 190.105 53.8369 176.945 53.8369 163.384V117.208C53.8369 107.765 57.6178 98.6576 64.4099 92.0611C79.7341 77.1268 100.044 62.0921 125.138 59.6142C125.205 59.6142 125.272 59.6142 125.338 59.5808C126.242 59.4803 127.179 59.4133 128.116 59.4133H224.979C236.756 59.4133 246.593 68.3538 247.664 80.04C251.278 120.021 251.01 161.241 247.43 203.566Z" fill="#F3694C" stroke="black" stroke-width="1.56086" stroke-miterlimit="10"/>
<g opacity="0.3">
<path d="M57.0817 181.868C54.9738 175.974 53.8696 169.713 53.8696 163.35V153.037C53.8696 157.524 54.405 161.944 55.4756 166.23V168.675C55.4756 173.128 56.011 177.581 57.0817 181.868Z" fill="#00006B"/>
</g>
<path d="M246.626 202.762C245.656 214.482 235.886 223.523 224.109 223.523H128.316C127.245 223.523 126.208 223.456 125.171 223.322C100.779 223.322 81.3732 213.042 68.7926 199.38C68.1569 198.71 67.5547 198.007 66.9524 197.304C66.6847 197.003 66.4171 196.668 66.1829 196.333C65.9821 196.065 65.7479 195.764 65.5471 195.496C65.3464 195.261 65.1791 194.993 64.9783 194.726C64.811 194.525 64.6772 194.29 64.5099 194.056C64.2757 193.721 64.0415 193.42 63.8407 193.085C63.64 192.783 63.4392 192.482 63.2385 192.147C63.1381 192.013 63.0377 191.846 62.9708 191.712C62.837 191.478 62.7031 191.277 62.5693 191.042C62.4689 190.908 62.402 190.774 62.3351 190.64C62.2013 190.44 62.0674 190.205 61.9336 189.971C61.7998 189.77 61.6994 189.569 61.5655 189.368C61.4317 189.1 61.2979 188.866 61.164 188.598C61.1306 188.564 61.1306 188.497 61.0971 188.464C60.9298 188.163 60.796 187.895 60.6621 187.593C60.4949 187.292 60.361 186.991 60.1937 186.689C60.0599 186.421 59.9595 186.187 59.8257 185.919C59.7922 185.886 59.7922 185.852 59.7922 185.819C59.4576 185.082 59.123 184.345 58.8219 183.609C58.5208 182.838 58.2197 182.068 57.9185 181.298C56.8478 177.046 56.3125 172.626 56.3125 168.172V122.298C56.3125 112.889 60.0599 103.848 66.7851 97.2847C78.2615 85.9668 92.6488 74.6155 109.78 68.7556C106.869 72.6399 105.129 77.4617 105.129 82.6853C104.326 121.126 102.753 162.815 106.166 197.438C107.003 206.11 114.23 212.807 122.963 213.042C123.699 213.075 124.468 213.075 125.204 213.075C126.241 213.209 127.279 213.276 128.349 213.276H224.142C235.853 213.276 245.656 204.302 246.66 192.65C248.333 172.626 249.27 152.836 249.437 133.314C249.571 156.084 248.6 179.256 246.626 202.762Z" fill="#DA5C42"/>
<path d="M235.651 183.944C235.484 187.928 233.476 191.411 230.465 193.621C228.357 195.195 225.714 196.099 222.903 196.099H134.07C127.044 196.099 121.322 190.406 121.322 183.341V90.253C121.322 86.4693 122.962 83.0873 125.572 80.7768C127.847 78.7343 130.791 77.5288 134.07 77.5288H222.903C229.729 77.5288 235.35 82.8864 235.618 89.7173C236.989 121.26 237.023 152.702 235.651 183.944Z" fill="white" stroke="black" stroke-width="1.56086" stroke-miterlimit="10"/>
<path d="M80.7711 136.562C79.9011 136.562 79.165 135.859 79.165 134.955V111.549C79.165 110.679 79.8677 109.942 80.7711 109.942C81.6744 109.942 82.3771 110.645 82.3771 111.549V134.955C82.3771 135.859 81.6744 136.562 80.7711 136.562Z" stroke="black" stroke-width="1.56086" stroke-miterlimit="10"/>
<path d="M72.9747 136.562C72.1048 136.562 71.3687 135.859 71.3687 134.955V114.228C71.3687 113.357 72.0713 112.621 72.9747 112.621C73.8781 112.621 74.5807 113.324 74.5807 114.228V134.955C74.5807 135.859 73.8781 136.562 72.9747 136.562Z" stroke="black" stroke-width="1.56086" stroke-miterlimit="10"/>
<path d="M65.2125 136.562C64.3425 136.562 63.6064 135.859 63.6064 134.955V116.338C63.6064 115.467 64.3091 114.73 65.2125 114.73C66.0824 114.73 66.8185 115.433 66.8185 116.338V134.955C66.785 135.859 66.0824 136.562 65.2125 136.562Z" stroke="black" stroke-width="1.56086" stroke-miterlimit="10"/>
<path d="M279.617 287.613V296.151C279.617 300.337 276.238 303.685 272.089 303.685H178.07C175.594 303.685 173.252 302.446 171.846 300.404L149.195 267.321C148.325 266.082 147.856 264.575 147.856 263.035V254.496C147.856 250.31 151.236 246.962 155.385 246.962H249.404C251.88 246.962 254.222 248.201 255.627 250.243L278.279 283.326C279.149 284.599 279.617 286.072 279.617 287.613Z" fill="#F3694C" stroke="black" stroke-width="1.56086" stroke-miterlimit="10"/>
<g opacity="0.3">
<path d="M181.079 287.278C182.15 288.584 182.652 290.325 182.384 291.999L180.678 303.652C180.678 303.652 180.678 303.652 180.644 303.685H178.035C175.559 303.685 173.217 302.446 171.811 300.404L149.16 267.321C148.29 266.082 147.821 264.575 147.821 263.035V254.496C147.821 250.344 151.201 246.962 155.35 246.962H168.867L176.529 281.786L181.079 287.278Z" fill="#DA5C42"/>
</g>
<path d="M174.02 270.602V281.82L156.287 254.429V243.178L174.02 270.602Z" fill="white"/>
<path d="M174.02 270.602V281.82L156.287 254.429V243.178L174.02 270.602Z" fill="#DA5C42"/>
<path d="M275.468 270.602V281.82H174.02V270.602L156.287 243.178H257.734L275.468 270.602Z" fill="white"/>
<g opacity="0.55">
<path d="M275.468 270.602V281.82H272.958V273.85L267.37 265.077H171.31L170.072 262.968L265.731 262.499L261.682 256.17H164.819L164.183 253.492L259.541 253.056L255.225 246.426H158.395L156.287 243.178H257.734L275.468 270.602Z" fill="white"/>
</g>
<path d="M156.286 243.178H257.733L275.467 270.602H174.019L156.286 243.178Z" stroke="black" stroke-width="1.56086" stroke-miterlimit="10" stroke-linecap="round" stroke-linejoin="round"/>
<path d="M156.286 254.429L174.019 281.82V270.602L156.286 243.178V254.429Z" stroke="black" stroke-width="1.56086" stroke-miterlimit="10" stroke-linecap="round" stroke-linejoin="round"/>
<path d="M275.434 270.602H174.021V281.819H275.434V270.602Z" stroke="black" stroke-width="1.56086" stroke-miterlimit="10" stroke-linecap="round" stroke-linejoin="round"/>
<path d="M162.678 253.056H264.091" stroke="black" stroke-width="1.56086" stroke-miterlimit="10"/>
<path d="M169.002 262.164H270.449" stroke="black" stroke-width="1.56086" stroke-miterlimit="10"/>
<path d="M170.273 243.178L187.772 270.602" stroke="black" stroke-width="1.56086" stroke-miterlimit="10"/>
<path d="M182.887 243.178L200.386 270.602" stroke="black" stroke-width="1.56086" stroke-miterlimit="10"/>
<path d="M195.903 243.413L213.402 270.837" stroke="black" stroke-width="1.56086" stroke-miterlimit="10"/>
<path d="M208.651 243.178L220.964 262.465" stroke="black" stroke-width="1.56086" stroke-miterlimit="10"/>
<path d="M221.198 243.413L233.511 262.7" stroke="black" stroke-width="1.56086" stroke-miterlimit="10"/>
<path d="M233.511 243.178L251.01 270.602" stroke="black" stroke-width="1.56086" stroke-miterlimit="10"/>
<path d="M245.322 243.178L262.821 270.602" stroke="black" stroke-width="1.56086" stroke-miterlimit="10"/>
<path d="M150.331 134.017C149.829 133.448 149.594 133.113 149.594 133.113C144.241 123.838 149.594 117.208 149.594 117.208C155.216 109.272 165.387 113.357 165.387 113.357C164.082 111.047 163.313 107.531 164.45 102.274C164.45 102.274 166.29 96.0789 172.715 94.9739C172.715 94.9739 178.068 93.7685 177.332 87.7412C177.332 87.7412 184.559 92.0273 182.05 98.2889C182.05 98.2889 179.707 102.307 187.503 103.278C189.477 103.513 191.351 104.45 192.689 105.957C194.095 107.497 195.232 109.875 194.764 113.357C194.563 114.964 193.994 116.471 193.058 117.777C192.756 118.179 192.422 118.648 191.987 119.083C189.912 120.523 188.072 121.661 187.972 121.762C189.645 121.26 190.983 120.188 191.987 119.083C192.02 119.05 192.054 119.05 192.087 119.016C196.303 116.069 202.091 116.438 205.772 120.054C206.274 120.556 206.809 121.126 207.311 121.762C207.311 121.762 210.623 126.349 209.486 132.109C209.385 132.544 209.319 132.979 209.252 133.415C209.151 134.017 208.884 135.022 208.081 136.261L208.114 136.294C221.598 139.308 221.163 153.204 221.163 153.204C219.122 179.992 177.265 177.949 177.265 177.949C177.265 177.949 129.787 173.563 138.988 143.661C138.988 143.661 141.431 135.959 150.331 134.017Z" fill="#709D5C"/>
<path d="M150.331 134.017C141.431 135.959 138.988 143.661 138.988 143.661C129.787 173.563 177.299 177.949 177.299 177.949C177.299 177.949 219.156 179.992 221.197 153.204C221.197 153.204 221.632 139.308 208.148 136.294" stroke="black" stroke-width="1.56086" stroke-miterlimit="10" stroke-linecap="round" stroke-linejoin="round"/>
<path d="M187.971 121.762C188.071 121.695 189.911 120.556 191.986 119.083C192.019 119.049 192.053 119.05 192.086 119.016C196.302 116.069 202.09 116.438 205.771 120.054C206.273 120.556 206.808 121.126 207.31 121.762C207.31 121.762 210.622 126.349 209.485 132.109C209.384 132.544 209.317 132.979 209.251 133.414C209.15 134.017 208.882 135.022 208.079 136.261C206.741 138.337 203.897 141.016 197.975 143.058" stroke="black" stroke-width="1.56086" stroke-miterlimit="10" stroke-linecap="round" stroke-linejoin="round"/>
<path d="M170.138 117.543C170.138 117.543 167.227 116.672 165.387 113.357C164.082 111.047 163.313 107.531 164.45 102.274C164.45 102.274 166.291 96.0789 172.715 94.9739C172.715 94.9739 178.068 93.7685 177.332 87.7412C177.332 87.7412 184.559 92.0273 182.05 98.2889C182.05 98.2889 179.708 102.307 187.503 103.278C189.478 103.513 191.351 104.45 192.69 105.957C194.095 107.497 195.232 109.875 194.764 113.357C194.563 114.964 193.994 116.471 193.058 117.777C192.757 118.179 192.422 118.648 191.987 119.083C190.983 120.155 189.645 121.226 187.972 121.762" stroke="black" stroke-width="1.56086" stroke-miterlimit="10" stroke-linecap="round" stroke-linejoin="round"/>
<path d="M165.387 113.358C165.387 113.358 155.215 109.272 149.594 117.208C149.594 117.208 144.241 123.838 149.594 133.114C149.594 133.114 149.828 133.482 150.33 134.018C151.702 135.558 155.014 138.639 160.569 139.945" stroke="black" stroke-width="1.56086" stroke-miterlimit="10" stroke-linecap="round" stroke-linejoin="round"/>
<path d="M150.432 123.47C150.733 122.298 152.373 116.605 156.589 115.5C157.961 115.132 159.232 116.371 158.864 117.744C158.563 118.815 157.693 120.389 155.685 122.532C155.652 122.566 155.618 122.599 155.552 122.666C154.949 123.235 150.332 127.253 150.365 123.871C150.365 123.738 150.399 123.604 150.432 123.47Z" fill="white"/>
<path d="M165.522 135.022C165.522 135.022 175.727 132.611 176.463 141.217C176.463 141.217 175.191 150.291 165.221 147.345C165.221 147.345 159.633 144.063 163.213 138.27C163.213 138.27 164.384 135.591 165.522 135.022Z" fill="white"/>
<path d="M165.522 143.46C166.057 144.163 166.894 144.732 167.831 145.034C168.299 145.201 168.801 145.302 169.336 145.335C169.872 145.369 170.407 145.335 170.942 145.168C171.478 145 172.013 144.732 172.415 144.297C172.615 144.096 172.816 143.828 172.95 143.594C172.983 143.527 173.017 143.46 173.05 143.393L173.151 143.192C173.218 143.058 173.284 142.924 173.318 142.757C173.418 142.455 173.452 142.154 173.485 141.819C173.485 141.484 173.452 141.183 173.351 140.848C173.151 140.212 172.749 139.676 172.281 139.241C171.812 138.806 171.243 138.437 170.608 138.203C170.006 137.935 169.303 137.801 168.634 137.768C168.299 137.768 167.931 137.801 167.563 137.902C167.195 138.002 166.86 138.136 166.559 138.37C166.258 138.605 165.99 138.906 165.79 139.241C165.723 139.375 165.656 139.509 165.622 139.643C165.555 139.743 165.455 139.844 165.388 139.978C165.187 140.279 165.054 140.647 164.953 141.016C164.853 141.417 164.853 141.819 164.953 142.255C165.02 142.723 165.221 143.125 165.522 143.46ZM167.965 141.283C168.031 141.116 168.132 140.915 168.299 140.781C168.366 140.748 168.399 140.681 168.466 140.647C168.399 140.882 168.366 141.083 168.366 141.317C168.366 141.484 168.333 141.618 168.333 141.786V142.02V142.121V142.154V142.221V142.322C168.199 142.188 168.065 142.02 167.998 141.853C167.931 141.652 167.931 141.451 167.965 141.283ZM171.411 142.991C171.645 142.757 171.779 142.422 171.879 142.121C171.913 142.054 171.946 141.953 171.98 141.886C172.08 141.585 172.147 141.283 172.147 140.949C172.281 141.217 172.348 141.518 172.381 141.819C172.415 142.154 172.348 142.522 172.18 142.857C172.013 143.192 171.779 143.493 171.511 143.728C171.444 143.795 171.377 143.862 171.277 143.895C171.21 143.962 171.11 143.996 171.043 144.029C170.875 144.096 170.708 144.163 170.507 144.197C170.307 144.23 170.106 144.264 169.872 144.264C170.072 144.163 170.24 144.029 170.407 143.862C170.608 143.728 170.775 143.56 170.942 143.393C171.11 143.259 171.277 143.159 171.411 142.991ZM170.842 139.643C170.909 139.71 170.942 139.743 170.976 139.81L171.009 139.844C170.875 139.743 170.708 139.676 170.541 139.609C170.407 139.576 170.307 139.542 170.173 139.509C170.139 139.509 170.139 139.509 170.106 139.475C170.072 139.442 170.039 139.408 170.006 139.375C170.34 139.442 170.608 139.509 170.842 139.643ZM169.905 140.982C169.905 141.016 169.905 141.016 169.905 140.982C169.905 141.25 169.872 141.484 169.805 141.685C169.805 141.518 169.805 141.35 169.771 141.183C169.805 141.15 169.838 141.083 169.905 140.982ZM170.574 144.665C170.809 144.632 171.043 144.532 171.243 144.431C171.344 144.364 171.444 144.331 171.545 144.23C171.645 144.163 171.712 144.096 171.812 144.029C172.147 143.728 172.415 143.393 172.582 142.991C172.749 142.589 172.816 142.154 172.783 141.752C172.749 141.35 172.615 140.949 172.448 140.614C172.314 140.379 172.147 140.145 171.946 139.944C171.913 139.844 171.879 139.777 171.812 139.676C171.812 139.676 171.846 139.676 171.846 139.71C172.281 140.078 172.615 140.547 172.783 141.083C172.95 141.585 172.95 142.121 172.783 142.623C172.749 142.757 172.682 142.857 172.649 142.991L172.548 143.192C172.515 143.259 172.481 143.293 172.448 143.36C172.314 143.594 172.18 143.795 172.013 143.962C171.678 144.331 171.21 144.565 170.742 144.732C170.273 144.866 169.771 144.933 169.303 144.9C168.935 144.866 168.567 144.833 168.199 144.732C168.399 144.732 168.6 144.699 168.801 144.632C168.901 144.665 169.035 144.699 169.136 144.699C169.637 144.766 170.139 144.766 170.574 144.665ZM168.6 138.437C168.701 138.437 168.834 138.437 168.935 138.437C168.901 138.437 168.868 138.437 168.834 138.471C168.701 138.538 168.533 138.571 168.399 138.638C168.333 138.638 168.266 138.605 168.199 138.605C167.931 138.571 167.663 138.571 167.362 138.638C167.73 138.504 168.165 138.437 168.6 138.437ZM166.994 143.661C166.86 143.56 166.76 143.427 166.66 143.293C166.76 143.46 166.894 143.56 166.994 143.661ZM165.288 141.116C165.321 140.982 165.355 140.848 165.388 140.714C165.388 140.781 165.388 140.848 165.388 140.915C165.388 141.016 165.388 141.116 165.388 141.183V141.317V141.451C165.422 141.819 165.455 142.188 165.555 142.556C165.622 142.79 165.689 142.991 165.79 143.226C165.555 142.924 165.355 142.556 165.254 142.188C165.221 141.853 165.221 141.484 165.288 141.116Z" fill="black"/>
<path d="M169.504 148.516C173.017 148.181 176.128 145.57 176.731 142.054C176.998 140.513 176.697 138.873 175.827 137.567C174.824 136.026 173.151 135.089 171.411 134.62C170.34 134.352 169.202 134.285 168.098 134.319C167.061 134.352 165.957 134.52 165.054 135.055C164.15 135.591 163.448 136.529 162.912 137.399C162.343 138.337 161.942 139.408 161.775 140.48C161.407 142.656 162.009 144.9 163.581 146.507C165.087 148.048 167.362 148.717 169.504 148.516ZM164.652 137.433C164.987 137.031 165.388 136.596 165.823 136.294C166.292 135.993 166.86 135.893 167.396 135.792C168.567 135.625 169.838 135.692 170.942 135.96C172.883 136.462 174.556 137.667 175.125 139.676C175.627 141.485 174.957 143.427 173.786 144.8C171.076 147.88 165.455 147.847 163.581 143.862C162.611 141.819 163.247 139.174 164.652 137.433Z" fill="black"/>
<path d="M185.531 135.056C185.531 135.056 195.736 132.645 196.472 141.25C196.472 141.25 195.2 150.325 185.23 147.378C185.23 147.378 179.642 144.097 183.222 138.304C183.222 138.337 184.393 135.625 185.531 135.056Z" fill="white"/>
<path d="M185.499 143.527C186.034 144.23 186.87 144.8 187.807 145.101C188.276 145.268 188.778 145.369 189.313 145.402C189.848 145.436 190.384 145.402 190.919 145.235C191.454 145.067 191.99 144.8 192.391 144.364C192.592 144.163 192.793 143.895 192.926 143.661C192.96 143.594 192.993 143.527 193.027 143.46L193.127 143.259C193.194 143.125 193.261 142.991 193.294 142.824C193.395 142.523 193.428 142.221 193.462 141.886C193.462 141.552 193.428 141.25 193.328 140.915C193.127 140.279 192.726 139.743 192.257 139.308C191.789 138.873 191.22 138.504 190.584 138.27C189.982 138.002 189.279 137.868 188.61 137.835C188.276 137.835 187.908 137.868 187.54 137.969C187.172 138.069 186.837 138.203 186.536 138.437C186.235 138.672 185.967 138.973 185.766 139.308C185.699 139.442 185.632 139.576 185.599 139.71C185.532 139.81 185.432 139.911 185.365 140.045C185.164 140.346 185.03 140.714 184.93 141.083C184.829 141.485 184.829 141.886 184.93 142.322C185.03 142.757 185.231 143.159 185.499 143.527ZM187.975 141.317C188.041 141.15 188.142 140.949 188.309 140.815C188.376 140.781 188.41 140.714 188.476 140.681C188.41 140.915 188.376 141.116 188.376 141.351C188.376 141.518 188.343 141.652 188.343 141.819V142.054V142.154V142.188V142.255V142.355C188.209 142.221 188.075 142.054 188.008 141.886C187.908 141.685 187.908 141.518 187.975 141.317ZM191.387 143.025C191.622 142.79 191.755 142.456 191.856 142.154C191.889 142.087 191.923 141.987 191.956 141.92C192.057 141.619 192.123 141.317 192.123 140.982C192.257 141.25 192.324 141.552 192.358 141.853C192.391 142.188 192.324 142.556 192.157 142.891C191.99 143.226 191.755 143.527 191.488 143.762C191.421 143.829 191.354 143.895 191.254 143.929C191.187 143.996 191.086 144.029 191.019 144.063C190.852 144.13 190.685 144.197 190.484 144.23C190.283 144.264 190.082 144.297 189.848 144.297C190.049 144.197 190.216 144.063 190.384 143.895C190.584 143.762 190.752 143.594 190.919 143.427C191.12 143.326 191.253 143.192 191.387 143.025ZM190.785 141.25C190.785 141.25 190.785 141.284 190.785 141.25C190.785 141.284 190.785 141.25 190.785 141.25ZM190.852 139.676C190.919 139.743 190.952 139.777 190.986 139.844L191.019 139.877C190.885 139.777 190.718 139.71 190.551 139.643C190.417 139.609 190.317 139.576 190.183 139.542C190.149 139.542 190.149 139.542 190.116 139.509C190.082 139.475 190.049 139.442 190.016 139.409C190.317 139.475 190.584 139.576 190.852 139.676ZM189.882 141.049C189.882 141.049 189.915 141.049 189.882 141.049C189.882 141.317 189.848 141.552 189.781 141.752C189.781 141.585 189.781 141.418 189.748 141.25C189.781 141.183 189.848 141.116 189.882 141.049ZM190.584 144.733C190.819 144.699 191.053 144.599 191.254 144.498C191.354 144.431 191.454 144.398 191.555 144.297C191.655 144.23 191.722 144.163 191.822 144.096C192.157 143.795 192.425 143.46 192.592 143.058C192.759 142.657 192.826 142.221 192.793 141.819C192.759 141.418 192.625 141.016 192.458 140.681C192.324 140.447 192.157 140.212 191.956 140.011C191.923 139.911 191.889 139.844 191.822 139.743C191.822 139.743 191.856 139.743 191.856 139.777C192.291 140.145 192.625 140.614 192.793 141.15C192.96 141.652 192.96 142.188 192.793 142.69C192.759 142.824 192.692 142.924 192.659 143.058L192.558 143.259C192.525 143.326 192.491 143.36 192.458 143.427C192.324 143.661 192.19 143.862 192.023 144.029C191.688 144.398 191.22 144.632 190.752 144.8C190.283 144.934 189.781 145 189.313 144.967C188.945 144.934 188.577 144.9 188.209 144.8C188.409 144.8 188.61 144.766 188.811 144.699C188.911 144.733 189.045 144.766 189.146 144.766C189.647 144.8 190.116 144.833 190.584 144.733ZM188.577 138.471C188.677 138.471 188.811 138.471 188.911 138.471C188.878 138.471 188.844 138.471 188.811 138.504C188.677 138.571 188.51 138.605 188.376 138.672C188.309 138.672 188.242 138.638 188.175 138.638C187.908 138.605 187.64 138.605 187.339 138.672C187.74 138.538 188.175 138.471 188.577 138.471ZM187.004 143.728C186.87 143.628 186.77 143.494 186.67 143.36C186.77 143.494 186.87 143.628 187.004 143.728ZM185.264 141.183C185.298 141.049 185.331 140.915 185.365 140.781C185.365 140.848 185.365 140.915 185.365 140.982C185.365 141.083 185.365 141.183 185.365 141.25V141.384V141.518C185.398 141.886 185.432 142.255 185.532 142.623C185.599 142.857 185.666 143.058 185.766 143.293C185.532 142.991 185.331 142.623 185.231 142.255C185.197 141.886 185.197 141.518 185.264 141.183Z" fill="black"/>
<path d="M189.48 148.55C192.993 148.215 196.105 145.603 196.707 142.087C196.975 140.547 196.674 138.906 195.804 137.6C194.8 136.06 193.127 135.123 191.387 134.654C190.317 134.386 189.179 134.319 188.075 134.352C187.038 134.386 185.934 134.553 185.03 135.089C184.127 135.625 183.424 136.562 182.889 137.433C182.32 138.371 181.918 139.442 181.751 140.514C181.383 142.69 181.985 144.934 183.558 146.541C185.064 148.115 187.339 148.751 189.48 148.55ZM184.629 137.467C184.963 137.065 185.365 136.629 185.8 136.328C186.268 136.027 186.837 135.926 187.372 135.826C188.543 135.658 189.815 135.725 190.919 135.993C192.86 136.495 194.532 137.701 195.101 139.71C195.603 141.518 194.934 143.46 193.763 144.833C191.053 147.914 185.432 147.88 183.558 143.896C182.588 141.853 183.257 139.241 184.629 137.467Z" fill="black"/>
<path d="M172.816 155.548C172.816 155.548 174.523 158.863 178.772 158.562C178.772 158.562 182.586 158.328 184.728 155.214" stroke="black" stroke-width="1.56086" stroke-miterlimit="10" stroke-linecap="round" stroke-linejoin="round"/>
<path d="M394.014 20.7592C393.554 20.3443 392.356 20.5748 391.527 20.8514C391.02 20.9436 390.56 21.128 390.191 21.3124C373.838 27.812 358.176 36.9852 343.941 47.2647C331.688 56.1152 320.264 66.3948 311.189 78.5642C302.621 90.0423 295.158 104.609 294.559 119.175C294.421 122.817 295.435 126.735 297.508 129.685C301.515 135.54 308.794 136.185 315.335 135.263C313.676 142.177 312.939 152.319 319.112 156.974C325.101 161.492 334.406 158.818 340.671 156.467C347.442 153.932 352.786 150.198 357.392 144.667C367.757 132.174 373.515 115.81 378.214 100.46C383.373 83.7731 387.105 66.6252 390.145 49.4312C391.803 40.0275 393.323 30.5317 394.383 21.0358C394.429 20.8975 394.291 20.8053 394.014 20.7592Z" fill="black" stroke="black" stroke-width="3.8122" stroke-miterlimit="10"/>
<path d="M639.773 149.23C636.134 119.359 618.951 90.2726 593.662 73.7239C571.136 59.0191 544.279 56.6682 518.16 54.8704C505.953 54.0407 493.469 53.257 481.631 49.9381C478.36 49.0162 473.984 47.956 471.542 46.1582C469.7 44.7753 467.949 43.1619 466.107 41.7329C449.108 28.6876 428.333 18.2237 406.59 17.2096C393.277 16.5642 380.333 20.4363 369.83 28.6876C357.531 38.3218 348.87 52.5195 342.744 66.7172C330.721 94.5134 329.891 125.675 337.538 154.762C346.659 189.38 366.467 220.495 390.283 246.816C397.147 254.422 404.425 261.613 411.934 268.528C411.565 283.555 411.243 298.537 410.874 313.564C410.828 315.731 410.782 317.943 410.736 320.11C410.736 321.032 414.007 321.4 414.606 321.4C418.106 321.4 421.607 321.447 425.108 321.447C425.201 321.447 425.845 321.493 425.892 321.262C427.642 309.876 429.439 298.491 431.189 287.105C431.834 295.863 432.479 304.621 433.17 313.38C433.354 315.638 433.492 317.943 433.677 320.202C433.769 321.17 436.855 321.493 437.546 321.493C441.692 321.493 445.838 321.539 449.984 321.539C450.03 321.539 450.721 321.585 450.767 321.354C451.135 312.089 451.458 302.87 451.826 293.604C471.496 300.657 493.423 300.657 513.922 298.767C533.316 296.969 552.571 293.143 571.366 288.073C573.485 287.52 575.65 286.92 577.769 286.275C575.972 296.508 574.176 306.742 572.379 316.975C572.241 317.805 575.742 318.266 576.249 318.266C578.46 318.266 580.671 318.266 582.836 318.312C583.804 318.312 585.738 318.681 586.567 318.128C587.258 317.667 587.857 316.192 588.272 315.5C591.773 309.969 595.09 304.345 598.268 298.629C610.107 277.563 620.333 255.482 628.072 232.573C637.101 206.067 643.228 177.349 639.773 149.23Z" fill="#709D5C" stroke="black" stroke-width="2.28732" stroke-miterlimit="10" stroke-linecap="round" stroke-linejoin="round"/>
<path d="M515.905 120.927C511.16 113.782 505.771 106.868 499.828 100.552C505.725 103.595 512.082 106.084 518.347 106.683C522.953 107.098 527.421 105.669 527.744 100.414C528.158 94.2832 525.256 87.5531 522.4 82.2981C515.306 69.3911 503.606 59.4342 491.629 51.2751C479.744 43.1621 466.938 36.4321 453.809 30.6239C446.761 27.4893 439.621 24.5392 432.296 22.1421C431.421 21.7273 430.546 21.6812 430.224 22.5109C424.051 39.5205 419.214 57.0833 415.068 74.6461C411.291 90.5955 408.204 106.729 406.408 123.001C404.657 138.812 403.966 154.946 406.039 170.757C407.836 184.264 411.889 197.954 420.688 208.649C429.072 218.79 442.385 225.428 455.606 225.981C482.001 227.087 481.126 193.391 479.145 175.229C477.947 164.304 475.874 153.425 473.295 142.685C478.5 153.056 484.995 163.52 494.346 170.066C499.045 173.339 504.757 175.413 510.515 174.122C516.919 172.647 522.723 167.577 525.533 161.676C531.798 148.078 523.276 132.082 515.905 120.927Z" fill="black" stroke="black" stroke-width="3.8122" stroke-miterlimit="10"/>
<path d="M378.029 115.396C378.029 115.396 358.728 134.111 349.239 183.895L351.127 285.907L340.624 285.861C301.883 183.019 339.104 76.3059 339.104 76.3059" fill="#709D5C"/>
<path d="M378.029 115.396C378.029 115.396 358.728 134.111 349.239 183.895L351.127 285.907L340.624 285.861C301.883 183.019 339.104 76.3059 339.104 76.3059" stroke="black" stroke-width="2.28732" stroke-miterlimit="10" stroke-linecap="round" stroke-linejoin="round"/>
<path d="M626.414 119.636C628.994 131.529 632.633 143.329 637.239 154.577C641.616 165.179 650.829 186.844 665.938 182.281C670.038 181.036 673.447 178.086 676.165 174.813C680.863 169.236 684.272 162.598 687.266 155.96C687.865 154.669 685.101 154.9 684.687 155.821C682.061 161.584 679.159 167.346 675.381 172.416C673.078 175.505 670.176 178.731 666.583 180.299C660.825 182.788 655.481 178.731 651.842 174.537C646.637 168.544 643.136 161.076 640.141 153.793C637.101 146.464 634.614 138.904 632.449 131.252C631.297 127.149 630.191 123.001 629.27 118.852C628.948 117.838 626.184 118.529 626.414 119.636Z" fill="black"/>
<path d="M696.94 134.94C696.387 135.033 696.157 135.54 695.88 136.001C695.419 136.876 695.051 137.752 694.59 138.628C693.807 140.149 693.024 141.67 692.241 143.146C693.07 140.057 693.853 136.969 694.36 133.834C694.498 132.912 695.327 129.916 693.945 129.501C693.208 129.27 692.656 129.87 692.195 130.331C690.997 131.621 690.122 133.281 689.293 134.848C688.878 135.724 688.464 136.6 688.049 137.476C688.095 137.107 688.187 136.738 688.233 136.369C688.325 135.678 689.247 130.561 686.99 132.313C686.391 132.774 685.976 133.742 685.608 134.387C684.778 135.908 684.087 137.43 683.396 138.997C681.692 142.685 680.356 146.925 680.31 151.028C680.264 153.425 680.863 156.006 682.89 157.528C684.548 158.726 686.897 159.233 688.832 158.496C693.254 156.836 695.005 150.567 696.11 146.511C696.755 144.206 697.216 141.809 697.585 139.458C697.723 138.444 697.999 137.43 697.999 136.415C697.999 135.77 697.861 134.802 696.94 134.94Z" fill="black" stroke="black" stroke-width="3.8122" stroke-miterlimit="10"/>
<path d="M418.199 5.04027C416.403 6.79194 414.56 8.5436 412.764 10.2953C412.902 7.71386 413.086 5.13246 413.224 2.59715C413.224 2.22838 412.119 1.81351 411.889 2.09009C410.461 4.11834 408.986 6.14658 407.558 8.12873C407.052 7.16071 406.545 6.19268 406.038 5.17855C405.9 4.94807 404.656 4.39491 404.656 4.85588C404.61 6.42316 404.564 7.99044 404.518 9.55772C404.38 12.4157 403.597 15.5042 406.13 17.6246C407.328 18.6387 408.986 18.9614 410.414 18.3161C412.211 17.5785 413.547 15.8729 414.652 14.3518C415.896 12.6462 416.956 10.8023 417.969 8.91237C418.568 7.80606 419.121 6.65365 419.581 5.50124C419.674 5.17856 418.43 4.85588 418.199 5.04027Z" fill="black" stroke="black" stroke-width="3.8122" stroke-miterlimit="10"/>
<path d="M557.961 291.622C557.961 292.59 554.184 316.007 554.184 316.007L562.798 316.053L577.815 286.275L557.961 291.622Z" fill="#709D5C" stroke="black" stroke-width="2.28732" stroke-miterlimit="10" stroke-linecap="round" stroke-linejoin="round"/>
<path d="M335.236 111.2C340.948 113.274 355.321 123.6 365.824 118.022L335.236 111.2Z" fill="black"/>
<path d="M354.26 132.313L334.222 126.458C334.176 126.504 341.777 135.124 354.26 132.313Z" fill="black"/>
<path d="M348.455 142.823L332.194 140.841C332.194 140.841 339.841 146.603 348.455 142.823Z" fill="black"/>
<path d="M345.552 154.3L332.147 154.254C332.147 154.208 336.892 158.079 345.552 154.3Z" fill="black"/>
<path d="M345.46 168.637L330.166 168.545C332.055 168.591 338.734 172.461 345.46 168.637Z" fill="black"/>
<path d="M338.69 182.972L330.076 181.958C330.122 181.958 332.011 185.783 338.69 182.972Z" fill="black"/>
<path d="M337.676 194.451L330.029 194.405C330.029 194.405 331.918 197.308 337.676 194.451Z" fill="black"/>
<path d="M337.628 204.961L329.981 204.915C332.837 204.961 333.805 206.85 337.628 204.961Z" fill="black"/>
<path d="M339.52 213.581L329.938 213.535C329.938 213.535 337.585 216.437 339.52 213.581Z" fill="black"/>
<path d="M339.473 226.027L331.826 225.981C331.78 225.981 334.636 228.884 339.473 226.027Z" fill="black"/>
<path d="M341.315 236.583L333.668 236.537C333.668 236.537 338.413 239.44 341.315 236.583Z" fill="black"/>
<path d="M341.269 247.093L333.622 247.047C333.622 247.047 337.445 249.95 341.269 247.093Z" fill="black"/>
<path d="M341.224 257.603L335.512 256.635C335.465 256.635 337.354 260.459 341.224 257.603Z" fill="black"/>
<path d="M343.066 268.159L337.308 268.113C337.354 268.113 341.131 271.016 343.066 268.159Z" fill="black"/>
<path d="M374.621 169.605C374.298 167.622 373.1 165.963 371.027 165.686C367.803 165.225 365.454 167.3 363.657 169.697C359.557 175.321 354.951 180.022 349.239 183.895C348.225 184.586 341.73 188.458 344.125 189.933C345.691 190.901 349.239 189.795 350.805 189.472C355.642 188.458 360.34 187.26 364.578 184.724C369.553 181.774 375.634 176.104 374.621 169.605Z" fill="white" stroke="black" stroke-width="3.8122" stroke-miterlimit="10"/>
<path d="M421.101 314.256C420.133 314.809 419.396 315.777 418.798 316.883C418.383 314.717 417.416 312.458 415.066 314.394C413.27 315.869 412.256 318.635 411.473 320.709C411.427 320.801 411.473 320.847 411.519 320.894C411.565 320.94 411.657 320.986 411.888 320.986C416.172 321.17 420.502 321.355 424.786 321.539C425.062 321.539 425.8 321.401 425.753 320.986C425.477 318.911 424.832 312.181 421.101 314.256Z" fill="black" stroke="black" stroke-width="3.8122" stroke-miterlimit="10"/>
<path d="M444.916 313.242C443.488 313.933 442.521 315.639 441.922 317.298C441.645 314.394 440.77 309.416 437.776 312.182C435.519 314.256 434.321 318.036 433.354 320.848C433.354 320.848 433.354 320.894 433.4 320.894C433.4 320.894 433.4 320.94 433.492 320.94C439.25 321.309 444.962 321.631 450.72 322C450.812 322 451.319 321.908 451.273 321.77C450.628 319.465 448.924 311.306 444.916 313.242Z" fill="black" stroke="black" stroke-width="3.8122" stroke-miterlimit="10" stroke-linejoin="round"/>
<path d="M561.048 310.429C559.988 311.167 559.159 312.457 558.514 313.702C558.468 312.596 558.284 311.443 557.639 310.844C557.086 310.291 556.349 310.429 555.888 310.982C554.691 312.365 554.184 314.67 553.723 316.376C553.677 316.606 554.23 316.79 554.507 316.744C557.317 316.744 560.173 316.791 562.983 316.791C563.029 316.791 563.259 316.79 563.259 316.698C563.351 315.776 564.226 308.217 561.048 310.429Z" fill="black" stroke="black" stroke-width="3.8122" stroke-miterlimit="10" stroke-linejoin="round"/>
<path d="M584.033 310.706C582.375 311.536 581.039 313.149 579.887 314.67C579.611 313.38 579.334 312.135 578.782 310.937C578.505 310.337 578.183 309.6 577.538 309.277C576.525 308.77 575.511 309.415 574.912 310.199C573.3 312.227 572.517 315.085 571.918 317.574C571.918 317.62 571.918 317.62 571.918 317.667C571.918 317.713 572.01 317.759 572.148 317.759C572.148 317.759 572.148 317.759 572.194 317.759C576.663 318.081 581.131 318.45 585.553 318.773C585.692 318.773 586.198 318.773 586.244 318.542C586.567 316.837 588.501 308.401 584.033 310.706Z" fill="black" stroke="black" stroke-width="3.8122" stroke-miterlimit="10"/>
<path d="M382.407 38.6907C382.407 39.6587 392.864 49.2468 412.995 45.513L382.407 38.6907Z" fill="black"/>
<path d="M380.517 73.8621C380.517 73.8621 395.028 70.451 396.087 82.6666C396.087 82.6666 394.291 95.5736 380.103 91.3788C380.103 91.3788 372.179 86.7231 377.247 78.5179C377.201 78.5179 378.905 74.6919 380.517 73.8621Z" fill="black"/>
<path d="M381.346 75.4298C381.346 75.4298 393.554 72.5718 394.429 82.8053C394.429 82.8053 392.909 93.684 380.978 90.1346C380.978 90.1346 374.298 86.2164 378.583 79.3019C378.583 79.348 380.011 76.1213 381.346 75.4298Z" fill="white"/>
<path d="M380.473 85.8936C381.256 86.9077 382.407 87.6914 383.743 88.1523C384.388 88.3828 385.125 88.5211 385.862 88.5672C386.599 88.6133 387.382 88.5672 388.165 88.3367C388.949 88.1062 389.686 87.6914 390.284 87.0921C390.561 86.7694 390.837 86.4467 391.068 86.078C391.114 85.9858 391.16 85.8936 391.206 85.8014L391.344 85.5248C391.436 85.3404 391.528 85.1099 391.574 84.9256C391.712 84.5107 391.805 84.0497 391.805 83.5888C391.805 83.1278 391.759 82.6668 391.62 82.252C391.344 81.3761 390.791 80.5925 390.1 79.9471C389.409 79.3018 388.626 78.7947 387.751 78.4721C386.876 78.1033 385.908 77.8728 384.941 77.8728C384.434 77.8728 383.927 77.9189 383.421 78.0572C382.914 78.1955 382.407 78.3799 381.993 78.7486C381.532 79.0713 381.164 79.4862 380.933 79.9932C380.841 80.1776 380.749 80.362 380.657 80.5925C380.565 80.7308 380.426 80.9152 380.334 81.0535C380.058 81.4683 379.828 81.9754 379.735 82.5286C379.597 83.0817 379.597 83.681 379.735 84.2802C379.828 84.7873 380.104 85.3865 380.473 85.8936ZM383.974 82.759C384.066 82.4825 384.25 82.252 384.48 82.0215C384.572 81.9754 384.618 81.8832 384.711 81.8371C384.618 82.1598 384.572 82.4824 384.526 82.8051C384.526 83.0356 384.48 83.2661 384.48 83.4505V83.7732V83.9575V84.0036V84.0958V84.2341C384.296 84.0036 384.112 83.8192 384.02 83.5888C383.927 83.2661 383.927 83.0356 383.974 82.759ZM388.856 85.2021C389.179 84.8334 389.409 84.4185 389.501 83.9575C389.547 83.8653 389.593 83.7271 389.64 83.5888C389.778 83.1739 389.87 82.7129 389.916 82.252C390.1 82.6207 390.192 83.0356 390.238 83.4966C390.284 84.0036 390.192 84.5107 389.962 84.9717C389.732 85.4326 389.409 85.8475 388.995 86.2163C388.902 86.3085 388.764 86.4006 388.672 86.4928C388.58 86.585 388.442 86.6311 388.35 86.6772C388.119 86.8155 387.843 86.8616 387.567 86.9077C387.29 86.9538 386.968 86.9999 386.691 86.9999C386.968 86.8616 387.244 86.6772 387.474 86.4468C387.751 86.2624 387.981 86.0319 388.258 85.8014C388.442 85.617 388.672 85.4326 388.856 85.2021ZM388.073 80.4081C388.165 80.5003 388.212 80.5464 388.304 80.6386L388.35 80.6847C388.165 80.5464 387.935 80.4081 387.705 80.362C387.521 80.3159 387.336 80.2698 387.198 80.2237C387.152 80.2237 387.152 80.2237 387.106 80.1776C387.06 80.1315 387.014 80.0854 386.968 80.0393C387.336 80.1315 387.705 80.2698 388.073 80.4081ZM386.737 82.3442C386.737 82.3442 386.737 82.3903 386.737 82.3442C386.737 82.7129 386.691 83.0356 386.599 83.3583C386.599 83.1278 386.599 82.8973 386.553 82.6668C386.599 82.5746 386.645 82.4824 386.737 82.3442ZM387.705 87.5992C388.027 87.5531 388.35 87.4148 388.672 87.2765C388.81 87.1843 388.949 87.0921 389.087 86.9999C389.225 86.9077 389.317 86.8155 389.455 86.6772C389.916 86.2624 390.331 85.7553 390.561 85.2021C390.791 84.649 390.929 84.0036 390.883 83.4505C390.837 82.8512 390.653 82.2981 390.377 81.8371C390.192 81.4683 389.962 81.1918 389.686 80.9152C389.64 80.7769 389.547 80.6386 389.501 80.5464C389.501 80.5464 389.547 80.5464 389.547 80.5925C390.146 81.1457 390.607 81.791 390.883 82.5286C391.114 83.2661 391.114 84.0036 390.883 84.7412C390.837 84.9256 390.745 85.11 390.699 85.2482L390.561 85.5248C390.515 85.617 390.469 85.7092 390.423 85.7553C390.238 86.078 390.054 86.3546 389.778 86.6311C389.271 87.1382 388.672 87.507 387.981 87.6914C387.336 87.9218 386.599 87.9679 385.954 87.9218C385.402 87.8757 384.895 87.7835 384.388 87.6914C384.664 87.6914 384.941 87.6453 385.217 87.5531C385.402 87.5992 385.54 87.6453 385.724 87.6453C386.369 87.7374 387.06 87.7375 387.705 87.5992ZM384.849 78.7025C384.987 78.7025 385.171 78.7025 385.309 78.7486C385.263 78.7486 385.217 78.7947 385.171 78.7947C384.941 78.8869 384.757 78.933 384.572 79.0713C384.48 79.0713 384.388 79.0252 384.296 79.0252C383.927 78.9791 383.513 78.9791 383.098 79.0713C383.651 78.7947 384.25 78.7025 384.849 78.7025ZM382.638 86.1702C382.453 86.0319 382.315 85.8475 382.177 85.6631C382.269 85.8475 382.453 86.0319 382.638 86.1702ZM380.15 82.5286C380.196 82.3442 380.242 82.1137 380.334 81.9293C380.334 82.0215 380.334 82.1137 380.334 82.2059C380.334 82.3442 380.334 82.4824 380.334 82.6207V82.8051V82.9895C380.38 83.4966 380.473 84.0497 380.611 84.5568C380.703 84.8795 380.795 85.2021 380.933 85.4787C380.565 85.0178 380.334 84.5568 380.196 84.0036C380.058 83.5427 380.058 83.0356 380.15 82.5286Z" fill="black"/>
<path d="M386.138 93.0386C391.113 92.5776 395.535 88.8438 396.41 83.8193C396.779 81.6066 396.364 79.3018 395.12 77.4119C393.692 75.1992 391.297 73.9085 388.809 73.2171C387.289 72.8483 385.677 72.7561 384.111 72.8022C382.637 72.8483 381.071 73.0788 379.781 73.8624C378.537 74.6461 377.477 75.9368 376.74 77.1814C375.911 78.5182 375.358 80.0394 375.082 81.5606C374.575 84.6951 375.404 87.8297 377.662 90.1345C379.873 92.3932 383.097 93.3152 386.138 93.0386ZM378.445 76.6282C378.998 75.9368 379.596 75.2914 380.333 74.8305C381.071 74.3234 381.992 74.1851 382.867 74.0468C384.71 73.7702 386.737 73.8624 388.579 74.3234C391.666 75.1531 394.383 77.0892 395.259 80.2698C396.042 83.1278 395.028 86.3085 393.094 88.475C388.763 93.4074 379.735 93.3613 376.74 86.9999C375.128 83.6349 376.188 79.4401 378.445 76.6282Z" fill="black"/>
<path d="M350.159 74.1388C350.159 74.1388 361.445 71.4652 362.321 81.0072C362.321 81.0072 360.893 91.1023 349.837 87.8295C349.837 87.8295 343.618 84.1878 347.58 77.7804C347.58 77.7804 348.916 74.7841 350.159 74.1388Z" fill="black"/>
<path d="M350.805 75.3833C350.805 75.3833 360.295 73.1246 361.032 81.1454C361.032 81.1454 359.834 89.6271 350.529 86.8613C350.529 86.8613 345.324 83.8189 348.64 78.4257C348.64 78.4257 349.746 75.8904 350.805 75.3833Z" fill="white"/>
<path d="M350.158 83.5421C350.757 84.3257 351.678 84.925 352.692 85.2938C353.198 85.4781 353.751 85.6164 354.35 85.6164C354.949 85.6625 355.548 85.6164 356.147 85.432C356.745 85.2477 357.344 84.925 357.805 84.464C358.035 84.2335 358.219 83.957 358.404 83.6804C358.45 83.5882 358.496 83.5421 358.542 83.4499L358.634 83.2194C358.726 83.0811 358.772 82.8967 358.818 82.7584C358.91 82.4358 359.003 82.067 359.003 81.7443C359.003 81.3755 358.956 81.0068 358.864 80.6841C358.634 79.9927 358.219 79.3934 357.667 78.8863C357.114 78.3793 356.515 78.0105 355.824 77.7339C355.133 77.4573 354.396 77.2729 353.613 77.2729C353.244 77.2729 352.83 77.3191 352.415 77.4112C352.001 77.5034 351.632 77.6878 351.31 77.9183C350.987 78.1488 350.665 78.5176 350.48 78.8863C350.388 79.0246 350.342 79.209 350.296 79.3473C350.204 79.4856 350.112 79.5778 350.066 79.7161C349.882 80.0387 349.697 80.4536 349.605 80.8685C349.513 81.2834 349.513 81.7904 349.605 82.2514C349.605 82.6662 349.836 83.1272 350.158 83.5421ZM352.876 81.099C352.922 80.9146 353.06 80.6841 353.244 80.5458C353.29 80.4997 353.383 80.4536 353.429 80.4075C353.337 80.6841 353.337 80.9146 353.29 81.1451C353.29 81.3295 353.244 81.5138 353.244 81.6521V81.9287V82.067V82.1131V82.1592V82.2514C353.106 82.067 352.968 81.9287 352.876 81.7443C352.83 81.5138 352.784 81.2834 352.876 81.099ZM356.699 82.9889C356.93 82.7123 357.114 82.3897 357.206 82.0209C357.252 81.9287 357.298 81.8365 357.298 81.7443C357.436 81.4216 357.482 81.0529 357.482 80.6841C357.621 80.9607 357.713 81.2833 357.713 81.6521C357.713 82.0209 357.667 82.4358 357.482 82.8045C357.298 83.1733 357.068 83.496 356.745 83.7726C356.653 83.8648 356.561 83.9108 356.515 83.9569C356.423 84.003 356.331 84.0491 356.239 84.0952C356.054 84.1874 355.87 84.2335 355.64 84.2796C355.409 84.3257 355.179 84.3257 354.949 84.3257C355.179 84.2335 355.363 84.0491 355.548 83.9109C355.778 83.7726 355.962 83.5882 356.147 83.4038C356.331 83.3116 356.515 83.1733 356.699 82.9889ZM356.054 79.2551C356.1 79.3012 356.147 79.3473 356.239 79.4395C356.239 79.4395 356.239 79.4856 356.285 79.4856C356.1 79.3934 355.962 79.3012 355.778 79.209C355.64 79.1629 355.502 79.1168 355.363 79.1168C355.363 79.1168 355.317 79.1168 355.317 79.0707C355.271 79.0246 355.271 79.0246 355.225 78.9785C355.502 79.0246 355.778 79.1168 356.054 79.2551ZM354.995 80.7763C354.995 81.0529 354.949 81.3295 354.903 81.5599C354.903 81.3755 354.903 81.1912 354.857 81.0068C354.903 80.9607 354.949 80.8685 354.995 80.7763ZM355.778 84.8789C356.054 84.8328 356.285 84.7406 356.515 84.6023C356.653 84.5562 356.745 84.464 356.837 84.3718C356.93 84.2796 357.022 84.2335 357.114 84.1413C357.482 83.8187 357.805 83.4038 357.989 82.9889C358.173 82.528 358.266 82.067 358.219 81.606C358.173 81.1451 358.035 80.7302 357.851 80.3153C357.713 80.0387 357.528 79.8083 357.298 79.5778C357.252 79.4856 357.206 79.3934 357.16 79.3012C357.16 79.3012 357.16 79.3012 357.206 79.3473C357.667 79.7622 358.035 80.2692 358.219 80.8685C358.404 81.4216 358.404 82.0209 358.219 82.574C358.173 82.7123 358.127 82.8506 358.081 82.9889L357.989 83.2194C357.943 83.2655 357.943 83.3577 357.897 83.4038C357.759 83.6343 357.575 83.8648 357.39 84.0952C357.022 84.5101 356.515 84.7867 356.008 84.925C355.502 85.1094 354.949 85.1555 354.396 85.1094C353.981 85.1094 353.567 85.0172 353.152 84.925C353.383 84.925 353.613 84.8789 353.797 84.8328C353.935 84.8789 354.074 84.8789 354.166 84.925C354.718 84.9711 355.271 84.9711 355.778 84.8789ZM353.567 77.9183C353.705 77.9183 353.797 77.9183 353.935 77.9183C353.889 77.9183 353.889 77.9183 353.843 77.9644C353.659 78.0105 353.521 78.1027 353.383 78.1488C353.29 78.1488 353.244 78.1488 353.152 78.1027C352.876 78.0566 352.553 78.0566 352.231 78.1488C352.599 78.0105 353.106 77.9183 353.567 77.9183ZM351.816 83.7265C351.678 83.6343 351.54 83.496 351.448 83.3116C351.54 83.496 351.678 83.6343 351.816 83.7265ZM349.882 80.9146C349.928 80.7763 349.974 80.5919 350.02 80.4536C350.02 80.5458 350.02 80.5919 350.02 80.6841C350.02 80.7763 350.02 80.8685 350.02 81.0068V81.1451V81.2834C350.066 81.6982 350.112 82.1131 350.204 82.528C350.25 82.7584 350.342 83.035 350.48 83.2655C350.204 82.8967 350.02 82.528 349.882 82.1131C349.836 81.6982 349.789 81.2834 349.882 80.9146Z" fill="black"/>
<path d="M354.581 89.1201C358.45 88.7513 361.905 85.8472 362.596 81.929C362.873 80.2235 362.55 78.4257 361.583 76.9506C360.477 75.245 358.589 74.1848 356.654 73.6777C355.456 73.4012 354.212 73.309 352.969 73.3551C351.817 73.4012 350.573 73.5856 349.606 74.1848C348.638 74.7841 347.809 75.7982 347.21 76.7662C346.566 77.7803 346.151 78.9789 345.921 80.1774C345.506 82.6205 346.197 85.0636 347.947 86.8614C349.652 88.613 352.186 89.3045 354.581 89.1201ZM348.546 76.3053C348.961 75.7982 349.468 75.245 350.02 74.8763C350.573 74.5075 351.31 74.3692 352.001 74.277C353.429 74.0465 355.042 74.1387 356.47 74.4614C358.865 75.1067 360.984 76.6279 361.675 79.1171C362.274 81.3759 361.491 83.819 359.971 85.5246C356.608 89.3967 349.56 89.3506 347.21 84.3721C345.967 81.7446 346.796 78.4718 348.546 76.3053Z" fill="black"/>
</svg>
