<svg width="74" height="610" viewBox="0 0 74 610" fill="none" xmlns="http://www.w3.org/2000/svg">
<path d="M27.4474 472.976C27.4474 479.061 31.597 483.411 37 483.411C40.0245 483.411 42.6617 482.398 44.5468 480.516C46.432 478.633 47.4474 475.998 47.4474 472.976V11.9349C47.4474 6.73615 43.2907 1.5 37 1.5C34.2427 1.5 31.8406 2.87626 30.1632 4.80898C28.4896 6.73738 27.4474 9.31465 27.4474 11.9349V472.976ZM72.5 574.834C72.5 555.241 56.6159 539.382 37 539.382C17.3841 539.382 1.5 555.241 1.5 574.834C1.5 593.613 17.4645 608.5 37 608.5C56.5355 608.5 72.5 593.613 72.5 574.834ZM52.5 574.834C52.5 582.836 45.2276 589.417 37 589.417C28.8791 589.417 22.3947 582.939 22.3947 574.834C22.3947 565.782 28.932 559.358 37 559.358C45.1728 559.358 52.5 565.887 52.5 574.834Z" stroke="white" stroke-width="3"/>
</svg>
