<svg width="105" height="25" viewBox="0 0 105 25" fill="none" xmlns="http://www.w3.org/2000/svg">
<path d="M25.1876 10.747C25.0931 10.747 24.9513 9.71915 24.1484 7.99047C23.3928 6.30852 21.7871 3.92577 18.8117 2.33726C15.9307 0.748754 11.5384 0.281534 7.66565 2.38397C3.79289 4.39297 0.959124 9.15847 1.71478 14.1576C2.42321 19.1567 6.57937 22.9411 10.83 23.7354C15.175 24.6698 19.2367 22.9411 21.5509 20.6051C23.9123 18.2691 24.7624 15.5125 24.9986 13.6904C25.2347 11.8216 25.0459 10.747 25.1876 10.747C25.2348 10.747 25.282 10.9806 25.3764 11.4945C25.4709 12.0085 25.5181 12.756 25.4709 13.7371C25.3764 15.6527 24.6208 18.5961 22.1649 21.1657C19.8034 23.7354 15.4111 25.6977 10.6882 24.7633C8.37404 24.3428 6.01262 23.1748 4.21793 21.3059C2.37601 19.4838 1.10083 17.0076 0.675774 14.2978C0.297944 11.588 0.770301 8.83145 2.04548 6.58885C3.2262 4.29953 5.16257 2.52413 7.24064 1.44955C11.4912 -0.793046 16.2613 -0.185709 19.284 1.58968C22.4011 3.36508 23.9595 5.98148 24.6207 7.75687C24.9513 8.64457 25.1403 9.39209 25.1876 9.90602C25.1876 10.4667 25.1876 10.747 25.1876 10.747Z" fill="black"/>
<path d="M10.1702 10.326C10.1702 11.3069 9.36723 12.0543 8.42255 12.0543C7.43064 12.0543 6.6748 11.2602 6.6748 10.326C6.6748 9.34507 7.47787 8.59766 8.42255 8.59766C9.36723 8.55095 10.1702 9.34507 10.1702 10.326Z" fill="black"/>
<path d="M19.4728 10.326C19.4728 11.3069 18.6698 12.0542 17.7252 12.0542C16.7805 12.0542 15.9775 11.2602 15.9775 10.326C15.9775 9.34506 16.7805 8.59766 17.7252 8.59766C18.6698 8.59766 19.4728 9.34506 19.4728 10.326Z" fill="black"/>
<path d="M18.1515 13.457C18.2932 13.457 18.4349 14.2979 17.9626 15.6525C17.7265 16.3064 17.3014 17.0537 16.4985 17.7077C15.6956 18.3149 14.6565 18.6419 13.523 18.6419C11.2088 18.6419 9.50865 17.1939 8.84744 16.0261C8.09178 14.8583 8.0446 13.9708 8.18629 13.9241C8.32797 13.8774 8.65848 14.6248 9.5086 15.559C10.3115 16.4932 11.7284 17.5209 13.5703 17.5209C15.4122 17.5676 16.7347 16.4465 17.2542 15.3255C17.8209 14.2511 17.9626 13.457 18.1515 13.457Z" fill="black"/>
<path d="M55.6965 16.3532C55.6965 16.2598 56.216 16.2598 56.9716 15.886C57.7273 15.5122 58.7192 14.5778 58.8136 13.1295C58.7664 11.4008 58.7664 9.53197 58.7192 7.52297C58.7192 6.40167 58.7664 5.46726 58.1052 4.67301C57.4912 3.87875 56.5467 3.41155 55.4132 3.50499C54.3742 3.50499 53.3823 4.06564 52.8628 4.90661C52.5794 5.3271 52.4378 5.79426 52.4378 6.26147C52.4378 6.82212 52.4377 7.33606 52.3905 7.84999C52.3905 9.95243 52.2489 11.9614 52.3433 13.4098C52.5322 14.8581 53.6657 15.6991 54.4213 15.9794C55.177 16.2598 55.6965 16.2598 55.6965 16.3532C55.6965 16.3999 55.177 16.5868 54.2325 16.3999C53.3351 16.213 51.871 15.3721 51.4932 13.55C51.3043 11.8213 51.3514 9.99915 51.3042 7.84999C51.3042 7.28934 51.257 6.82215 51.3042 6.16805C51.3514 5.51396 51.5404 4.85987 51.871 4.29922C52.5322 3.1312 53.9018 2.33697 55.3659 2.33697C56.6883 2.24352 58.1997 2.89762 58.9553 3.9722C59.3804 4.48613 59.6165 5.14018 59.7109 5.74756C59.8054 6.40165 59.7582 6.91561 59.7582 7.47626C59.711 9.62542 59.711 11.4942 59.6165 13.1295C59.3804 14.9516 58.0107 15.9327 57.1606 16.213C56.2161 16.5868 55.6965 16.3999 55.6965 16.3532Z" fill="black"/>
<path d="M61.6015 8.83105C61.7432 8.83105 61.8849 10.3261 62.0266 12.7556C62.0739 14.0171 61.7432 15.6523 60.6098 17.054C59.5235 18.4089 57.6343 19.4367 55.5562 19.4367C53.4781 19.4367 51.589 18.4089 50.5027 17.054C49.3692 15.6991 49.0386 14.0638 49.0859 12.7556C49.1803 10.3261 49.3221 8.83105 49.511 8.83105C49.6999 8.83105 49.7943 10.3261 49.936 12.7556C49.9832 13.8769 50.3611 15.2319 51.3529 16.3532C52.3447 17.4745 53.9032 18.2687 55.6035 18.2687C57.3037 18.2687 58.8622 17.4745 59.8541 16.3532C60.8459 15.2319 61.2237 13.8769 61.2709 12.7556C61.3181 10.3729 61.4598 8.83105 61.6015 8.83105Z" fill="black"/>
<path d="M55.8862 24.4359C55.5556 24.4359 55.3193 23.2211 55.3193 21.6793C55.3193 20.1843 55.5556 18.9229 55.8862 18.9229C56.2169 18.9229 56.453 20.1375 56.453 21.6793C56.453 23.2211 56.2169 24.4359 55.8862 24.4359Z" fill="black"/>
<path d="M104.012 10.8405C103.918 10.8405 103.871 9.95276 103.776 8.36425C103.729 7.57 103.823 6.58889 103.304 5.65448C102.832 4.76678 101.745 3.97249 100.423 3.92577C99.1477 3.87905 97.7308 4.72006 97.2586 6.12168C97.1641 6.44873 97.0697 6.82246 97.0697 7.19623C97.0697 7.61672 97.0697 8.08395 97.0697 8.50444C97.0697 9.39213 97.0696 10.3266 97.1168 11.261C97.1168 13.1765 97.1169 15.1388 97.1641 17.1945C97.1641 18.2224 97.1641 19.2503 97.1641 20.3248C97.1169 21.2593 97.542 22.1469 98.2504 22.7543C99.6673 24.0625 102.076 23.642 102.973 22.1002C103.493 21.3527 103.493 20.5117 103.493 19.4838C103.493 18.5027 103.493 17.5216 103.493 16.5872C103.493 15.6528 103.493 14.7183 103.54 13.8306C103.493 12.9429 103.682 12.0085 103.398 11.4479C102.926 10.093 101.179 9.67246 100.14 10.3733C99.62 10.7003 99.2422 11.2143 99.1005 11.7282C98.9589 12.2421 99.0532 12.8962 99.006 13.4568C98.9588 14.5314 98.9588 15.5126 98.9116 16.3536C98.8643 17.9421 98.7699 18.8297 98.6754 18.8297C98.581 18.8297 98.5337 17.9421 98.4393 16.3536C98.392 15.4659 98.3921 14.5314 98.3448 13.4568C98.3448 12.8962 98.2504 12.3355 98.3921 11.588C98.5338 10.8872 99.0061 10.1864 99.6673 9.71917C100.376 9.25196 101.273 9.06506 102.17 9.29867C103.068 9.53227 103.871 10.1864 104.248 11.1208C104.437 11.5413 104.485 12.1486 104.485 12.5691C104.485 12.9896 104.485 13.4568 104.485 13.8773C104.485 14.765 104.485 15.6995 104.532 16.6339C104.532 17.5683 104.532 18.5494 104.532 19.5305C104.579 20.4182 104.579 21.7732 103.871 22.7543C103.257 23.7822 102.17 24.483 100.942 24.6698C99.7145 24.8567 98.3921 24.5297 97.4475 23.642C96.503 22.801 95.9834 21.5396 95.9834 20.3715C95.9834 19.297 95.9834 18.2691 95.9834 17.2412C95.9834 15.1855 95.9834 13.2232 96.0307 11.3077C96.0307 10.3733 96.0306 9.43884 96.0778 8.55115C96.0778 8.08394 96.0778 7.66348 96.0778 7.243C96.0778 6.77579 96.1723 6.26186 96.314 5.84137C96.9752 4.01926 98.8171 3.03809 100.423 3.17825C102.029 3.27169 103.304 4.29958 103.823 5.37416C104.39 6.49546 104.201 7.61672 104.201 8.36425C104.154 9.95276 104.107 10.8405 104.012 10.8405Z" fill="black"/>
</svg>
