<svg width="138" height="138" viewBox="0 0 138 138" fill="none" xmlns="http://www.w3.org/2000/svg">
<path d="M54.8766 62.5775C56.2165 61.6071 56.8634 60.0054 56.8634 57.8029C56.9096 56.7556 56.694 55.7237 56.2319 54.7842C55.8161 54.0295 55.2 53.398 54.4453 52.9513C53.6628 52.4768 52.7937 52.1627 51.8886 52.0272C50.9029 51.8424 49.9018 51.75 48.9161 51.7654H38.0886V64.0406H49.8094C51.827 64.056 53.5366 63.5632 54.8766 62.5775ZM56.694 73.6667C55.1846 72.5116 53.167 71.9417 50.6565 71.9417H38.0578V86.4194H50.41C51.5652 86.4194 52.6279 86.3116 53.6598 86.096C54.6362 85.9051 55.5668 85.5286 56.4013 84.987C57.1868 84.4788 57.8183 83.7857 58.2958 82.8924C58.7578 81.9991 58.9888 80.8594 58.9888 79.4886C58.9888 76.7625 58.2188 74.8373 56.694 73.6667ZM69 0C30.896 0 0 30.896 0 69C0 107.104 30.896 138 69 138C107.104 138 138 107.104 138 69C138 30.896 107.104 0 69 0ZM82.3225 44.1877H103.639V49.3781H82.3225V44.1877ZM69 86.9893C68.003 88.8818 66.5793 90.5165 64.8415 91.7638C63.0241 93.0268 61.0065 93.9509 58.8656 94.49C56.6258 95.0902 54.3152 95.3855 51.9964 95.3679H26.4911V42.8324H51.2879C53.7984 42.8324 56.0779 43.0634 58.1571 43.4946C60.221 43.9259 61.9768 44.6652 63.4554 45.6663C64.9185 46.6674 66.0737 48.0074 66.89 49.6708C67.6908 51.3187 68.1067 53.3826 68.1067 55.8315C68.1067 58.4806 67.506 60.6676 66.3047 62.4388C65.0879 64.21 63.3321 65.6424 60.9449 66.7667C64.1946 67.6908 66.5819 69.3388 68.1529 71.6491C69.7547 73.9902 70.5402 76.7933 70.5402 80.0893C70.5402 82.7692 70.0319 85.0641 69 86.9893ZM111.94 78.8571H84.4634C84.4634 81.8451 85.4953 84.7098 87.0509 86.25C88.6219 87.7748 90.8705 88.5449 93.8123 88.5449C95.9377 88.5449 97.7397 88.0058 99.2799 86.9431C100.805 85.8804 101.729 84.756 102.068 83.5855H111.278C109.799 88.1598 107.551 91.425 104.501 93.3964C101.482 95.3679 97.7859 96.3536 93.4888 96.3536C90.4855 96.3536 87.7902 95.8607 85.3721 94.9212C83.0464 94.0125 80.9518 92.6263 79.2268 90.8397C77.526 89.005 76.2113 86.8471 75.3609 84.4942C74.4214 81.8913 73.9594 79.1498 73.9902 76.3929C73.9902 73.5435 74.4676 70.8944 75.3917 68.4301C77.1629 63.6402 80.844 59.8051 85.5415 57.8183C88.052 56.771 90.7473 56.2473 93.4734 56.2781C96.7078 56.2781 99.5109 56.8942 101.944 58.1571C104.287 59.3631 106.321 61.0916 107.89 63.2089C109.445 65.319 110.539 67.7216 111.232 70.4324C111.894 73.0969 112.125 75.9 111.94 78.8571ZM93.15 64.133C91.4866 64.133 90.0851 64.4257 89.0069 64.9955C87.9288 65.5654 87.0355 66.2739 86.3578 67.0902C85.7124 67.8783 85.2354 68.7904 84.9562 69.7701C84.7098 70.5864 84.5404 71.4181 84.4788 72.2652H101.498C101.251 69.6007 100.327 67.6292 99.0951 66.2431C97.8013 64.8723 95.7221 64.133 93.15 64.133Z" fill="black"/>
</svg>
