<svg width="138" height="138" viewBox="0 0 138 138" fill="none" xmlns="http://www.w3.org/2000/svg">
<path fill-rule="evenodd" clip-rule="evenodd" d="M69 138C107.108 138 138 107.108 138 69C138 30.8924 107.108 0 69 0C30.8923 0 0 30.8924 0 69C0 107.108 30.8923 138 69 138ZM80.7567 90.1137C82.8089 88.1682 85.5151 86.9596 88.5151 86.9596C90.7906 86.9605 93.0148 87.6608 94.9064 88.972C96.7981 90.2831 98.2722 92.1461 99.1426 94.3256C100.013 96.5051 100.24 98.9031 99.7963 101.217C99.3521 103.53 98.2563 105.655 96.6472 107.323C95.0382 108.991 92.9883 110.127 90.7565 110.587C88.5247 111.048 86.2114 110.812 84.1089 109.91C82.0065 109.008 80.2092 107.479 78.9444 105.519C77.6797 103.558 77.0041 101.252 77.0031 98.8932C77.0068 97.9892 77.1134 97.0888 77.3207 96.2107L49.1782 79.1971C46.9982 81.3263 44.1164 82.5125 41.1212 82.5133C34.5856 82.5133 29.2727 77.0059 29.2727 70.2309C29.2727 63.4559 34.5856 57.9485 41.1212 57.9485C44.1159 57.9518 46.9969 59.1377 49.1782 61.2647L77.0221 44.4182C76.8041 43.4994 76.6667 42.5365 76.6667 41.5539C76.6667 34.7789 81.9795 29.2715 88.5151 29.2715C95.0508 29.2715 100.364 34.7789 100.364 41.5539C100.364 48.3289 95.0508 53.8363 88.5151 53.8363C85.52 53.8355 82.6381 52.6493 80.4582 50.5201L52.6142 67.3667C52.8322 68.2903 52.9697 69.2483 52.9697 70.2309C52.9697 71.2135 52.8322 72.1764 52.6142 73.1001L80.7567 90.1137Z" fill="black"/>
</svg>
