<svg width="138" height="138" viewBox="0 0 138 138" fill="none" xmlns="http://www.w3.org/2000/svg">
<path fill-rule="evenodd" clip-rule="evenodd" d="M69 138C107.108 138 138 107.108 138 69C138 30.8924 107.108 0 69 0C30.8924 0 0 30.8924 0 69C0 107.108 30.8924 138 69 138ZM106.129 46C108.9 46 109.478 47.3809 108.9 49.2564H108.896C107.736 54.4193 96.5844 69.6229 96.5844 69.6229C95.6157 71.1241 95.2289 71.8763 96.5844 73.563C97.0636 74.2114 98.0838 75.1787 99.2507 76.285C100.451 77.4231 101.807 78.7085 102.888 79.9453C106.816 84.2288 109.778 87.8391 110.607 90.3261C111.36 92.8268 110.05 94.0909 107.436 94.0909H98.2885C95.8356 94.0909 94.6019 92.7619 91.9346 89.8882C90.8049 88.6713 89.4182 87.1773 87.5728 85.3899C82.1435 80.3232 79.8192 79.6636 78.4601 79.6636C76.6167 79.6636 76.0661 80.1686 76.0661 82.7002V90.6455C76.0661 92.8268 75.3482 94.0909 69.5321 94.0909C59.834 94.0909 49.188 88.3921 41.626 77.8808C30.2831 62.4883 27.1816 50.8503 27.1816 48.5076C27.1816 47.192 27.7044 46 30.3179 46H39.4724C41.8107 46 42.6889 46.9893 43.5566 49.4454C48.0345 62.0658 55.5791 73.0958 58.6805 73.0958C59.8444 73.0958 60.3776 72.5771 60.3776 69.7157V56.6693C60.1686 52.9565 58.8284 51.3503 57.8358 50.1608C57.2232 49.4266 56.743 48.8511 56.743 48.037C56.743 47.0443 57.6177 46 59.0708 46H73.456C75.3935 46 76.0347 47.003 76.0347 49.2564V66.8062C76.0347 68.6852 76.9094 69.3413 77.4913 69.3413C78.6553 69.3413 79.624 68.6852 81.7567 66.6173C88.3464 59.4861 92.9986 48.5076 92.9986 48.5076C93.5806 47.192 94.6539 46 96.9817 46H106.129Z" fill="black"/>
</svg>
