<svg width="138" height="138" viewBox="0 0 138 138" fill="none" xmlns="http://www.w3.org/2000/svg">
<path d="M69 0C30.8948 0 0 30.8948 0 69C0 107.105 30.8948 138 69 138C107.105 138 138 107.105 138 69C138 30.8948 107.105 0 69 0ZM102.89 47.2707L91.563 100.631C90.7292 104.414 88.4753 105.334 85.33 103.552L68.08 90.8442L59.7655 98.8598C59.3581 99.3871 58.8354 99.8142 58.2373 100.108C57.6393 100.402 56.9819 100.555 56.3155 100.556H56.2867L57.5115 82.9955L89.4815 54.119C90.8615 52.8942 89.171 52.1985 87.3368 53.4233L47.84 78.2977L30.82 72.9847C27.14 71.8175 27.0365 69.3047 31.5962 67.4993L98.1008 41.8657C101.194 40.7388 103.885 42.6017 102.885 47.2765L102.89 47.2707Z" fill="black"/>
</svg>
