<svg width="138" height="138" viewBox="0 0 138 138" fill="none" xmlns="http://www.w3.org/2000/svg">
<path fill-rule="evenodd" clip-rule="evenodd" d="M68.9307 101.901H68.997C87.6046 101.901 102.736 86.8096 102.762 68.3217C102.774 63.9036 101.905 59.5273 100.208 55.4483C98.5101 51.3694 96.0173 47.6693 92.8745 44.5639C86.5038 38.1932 78.0358 34.6765 69.0097 34.6765C50.3766 34.6765 35.2321 49.7675 35.2321 68.2682C35.2318 74.5889 37.0171 80.7812 40.3822 86.1317L41.2053 87.4059L37.7804 99.8033L50.5218 96.4854L51.7425 97.2142C56.9461 100.267 62.904 101.901 68.9307 101.901ZM80.5178 73.5763C81.4479 73.9228 86.4248 76.3514 87.4466 76.8687L87.49 76.6164C87.5882 76.6597 87.6831 76.7012 87.7746 76.7413C88.6354 77.1179 89.1986 77.3643 89.4267 77.7835C89.6789 78.2346 89.6789 80.2248 88.8151 82.6278C87.9639 85.0156 83.902 87.1536 81.9653 87.4721C80.2146 87.7244 77.9976 87.8314 75.569 87.0618C75.3803 86.9972 75.1848 86.9308 74.9823 86.862C73.604 86.3938 71.8992 85.8148 69.7819 84.9238C60.3765 80.8768 53.9966 71.8685 52.6717 69.9978C52.5626 69.8437 52.4877 69.738 52.4483 69.6876C52.4226 69.651 52.3886 69.6038 52.3474 69.5465C51.5818 68.4817 48.3074 63.9278 48.3074 59.2294C48.3074 54.6331 50.5831 52.1999 51.6484 51.0609C51.7277 50.9761 51.8003 50.8985 51.8648 50.8276C52.7949 49.8593 53.8983 49.607 54.5736 49.607C55.2489 49.607 55.9268 49.607 56.5103 49.6605C56.5719 49.6605 56.6356 49.6581 56.7012 49.6555C57.3016 49.6324 58.0631 49.6031 58.7936 51.3857C59.1625 52.2519 59.7547 53.6867 60.3272 55.0736C61.0717 56.8774 61.7828 58.6001 61.9255 58.8853C62.1777 59.3899 62.3485 59.948 62.0172 60.6641C61.9325 60.8202 61.859 60.9624 61.7896 61.0965C61.5648 61.5312 61.3839 61.8811 61.0081 62.3485C60.8773 62.5031 60.7438 62.6637 60.61 62.8247C60.2146 63.3005 59.8154 63.7807 59.4689 64.1272C58.9643 64.6318 58.4343 65.2026 59.0306 66.2117C59.6294 67.2336 61.6451 70.5514 64.6725 73.245C67.8999 76.1392 70.7032 77.3603 72.141 77.9865C72.4299 78.1124 72.6637 78.2142 72.8347 78.3008C73.8413 78.7519 74.4274 78.7009 75.0237 78.0358C75.62 77.3707 77.572 75.09 78.2345 74.0936C78.9124 73.0717 79.5877 73.245 80.5178 73.5763Z" fill="black"/>
<path fill-rule="evenodd" clip-rule="evenodd" d="M69 138C107.108 138 138 107.108 138 69C138 30.8924 107.108 0 69 0C30.8924 0 0 30.8924 0 69C0 107.108 30.8924 138 69 138ZM68.9307 28C79.7737 28 89.9669 32.2327 97.7188 39.7196L97.6679 39.8496C105.338 47.4817 109.545 57.6367 109.545 68.4262C109.533 90.7237 91.3226 108.855 68.946 108.855H68.9333C62.1579 108.838 55.4918 107.147 49.528 103.932L28 109.545L33.7591 88.6138C30.2017 82.4698 28.344 75.5283 28.344 68.4134C28.3568 46.1311 46.5669 28 68.9307 28Z" fill="black"/>
</svg>
