<svg width="138" height="138" viewBox="0 0 138 138" fill="none" xmlns="http://www.w3.org/2000/svg">
<path fill-rule="evenodd" clip-rule="evenodd" d="M69 138C107.108 138 138 107.108 138 69C138 30.8924 107.108 0 69 0C30.8924 0 0 30.8924 0 69C0 107.108 30.8924 138 69 138ZM86.6045 68.7273C86.6045 71.4287 86.3662 74.0507 86.0484 76.6727H99.4762C100.112 74.1302 100.509 71.4685 100.509 68.7273C100.509 65.9861 100.112 63.3244 99.4762 60.7818H86.0484C86.3662 63.4038 86.6045 66.0258 86.6045 68.7273ZM84.499 84.6182C83.2277 89.5841 81.4003 94.3514 79.0166 98.7611C86.2633 96.2662 92.3696 91.2458 96.2185 84.6182H84.499ZM59.4311 76.6727H78.0235C78.381 74.0507 78.6591 71.4287 78.6591 68.7273C78.6591 66.0258 78.381 63.3641 78.0235 60.7818H59.4311C59.0338 63.3641 58.7955 66.0258 58.7955 68.7273C58.7955 71.4287 59.0338 74.0507 59.4311 76.6727ZM61.1394 84.6182C62.7682 90.2992 65.4299 95.5829 68.7273 100.35C72.0246 95.5829 74.6864 90.2992 76.3152 84.6182H61.1394ZM41.236 52.8364H52.8364C54.2268 47.8705 56.0145 43.1032 58.3982 38.6935C51.1471 41.1624 45.0453 46.1908 41.236 52.8364ZM52.8364 84.6182H41.236C45.0691 91.2436 51.1623 96.2649 58.3982 98.7611C56.0145 94.3514 54.2268 89.5841 52.8364 84.6182ZM36.9455 68.7273C36.9455 71.4685 37.3427 74.1302 37.9784 76.6727H51.4062C51.0884 74.0507 50.85 71.4287 50.85 68.7273C50.85 66.0258 51.0884 63.4038 51.4062 60.7818H37.9784C37.3427 63.3244 36.9455 65.9861 36.9455 68.7273ZM76.3152 52.8364C74.6864 47.1554 72.0246 41.8319 68.7273 37.0646C65.4299 41.8319 62.7682 47.1554 61.1394 52.8364H76.3152ZM84.499 52.8364H96.2185C92.4047 46.2416 86.3265 41.1963 79.0166 38.6935C81.4145 43.1663 83.2556 47.916 84.499 52.8364ZM29 68.7273C29 46.8773 46.7581 29 68.7273 29C73.9443 29 79.1103 30.0276 83.9302 32.0241C88.7502 34.0205 93.1297 36.9468 96.8187 40.6358C100.508 44.3249 103.434 48.7044 105.43 53.5243C107.427 58.3442 108.455 63.5102 108.455 68.7273C108.455 79.2636 104.269 89.3684 96.8187 96.8187C89.3684 104.269 79.2636 108.455 68.7273 108.455C63.5102 108.455 58.3442 107.427 53.5243 105.43C48.7044 103.434 44.3249 100.508 40.6358 96.8187C33.1855 89.3684 29 79.2636 29 68.7273Z" fill="black"/>
</svg>
