<svg width="94" height="69" viewBox="0 0 94 69" fill="none" xmlns="http://www.w3.org/2000/svg">
<g clip-path="url(#clip0_102_2567)">
<path d="M79.5334 46.5819H83.4518C84.1058 46.5819 84.7534 46.4518 85.3576 46.1991C85.9618 45.9464 86.5108 45.576 86.9732 45.1091C87.4356 44.6422 87.8024 44.0878 88.0527 43.4778C88.3029 42.8677 88.4317 42.2138 88.4317 41.5535C88.4321 40.8929 88.3035 40.2387 88.0534 39.6283C87.8033 39.0179 87.4366 38.4633 86.9741 37.996C86.5116 37.5288 85.9625 37.1581 85.3581 36.9053C84.7537 36.6524 84.1059 36.5222 83.4517 36.5222H86.6798C88.1044 36.5222 89.4707 35.9508 90.478 34.9336C91.4853 33.9165 92.0512 32.537 92.0512 31.0985C92.0512 29.66 91.4852 28.2805 90.4779 27.2633C89.4705 26.2462 88.1042 25.6748 86.6796 25.6748H60.0831C61.4606 18.7751 59.7145 13.4685 56.5094 7.00218C52.6721 -0.735109 44.8817 0.559321 46.1028 5.2304C47.0441 8.98218 47.5215 12.8372 47.5242 16.7075C47.5243 21.3288 45.5376 25.6103 38.4549 25.6103H3.85328C3.3494 25.6111 2.86634 25.8134 2.50978 26.1729C2.15322 26.5323 1.95219 27.0198 1.95066 27.5286L1.95135 65.6C1.95136 66.1096 2.15182 66.5982 2.50865 66.9585C2.86547 67.3188 3.34942 67.5212 3.85404 67.5212H76.0881C76.7943 67.5212 77.4935 67.3807 78.1459 67.1079C78.7983 66.835 79.3911 66.4351 79.8904 65.9309C80.3898 65.4267 80.7859 64.8282 81.0561 64.1694C81.3263 63.5107 81.4654 62.8046 81.4654 62.0916C81.4657 61.3783 81.3269 60.672 81.0568 60.0129C80.7868 59.3538 80.3907 58.7549 79.8913 58.2504C79.392 57.7459 78.799 57.3457 78.1464 57.0727C77.4938 56.7996 76.7943 56.6591 76.0879 56.6591H80.1195C80.7758 56.6595 81.4259 56.5292 82.0323 56.2758C82.6388 56.0223 83.1899 55.6507 83.654 55.182C84.1181 54.7134 84.4862 54.157 84.7372 53.5446C84.9882 52.9322 85.1171 52.2759 85.1167 51.6132C85.1171 50.9504 84.9881 50.2941 84.7371 49.6817C84.4861 49.0693 84.118 48.5129 83.6538 48.0443C83.1897 47.5756 82.6386 47.204 82.0322 46.9505C81.4257 46.6971 80.7757 46.5668 80.1193 46.5672L79.5334 46.5819Z" fill="white"/>
<path d="M35.8934 62.9468H12.3433L12.3434 68.7776H35.8935L35.8934 62.9468Z" fill="#E0E0E0"/>
<path d="M18.3696 24.9106L18.3704 68.2505H21.4708L18.3696 24.9106Z" fill="#E0E0E0"/>
<path d="M17.7165 24.9077H2.69018C2.28789 24.9077 1.90208 25.0691 1.61762 25.3563C1.33316 25.6436 1.17336 26.0331 1.17337 26.4394L1.17401 62.0507H17.7055L17.7165 24.9077Z" fill="#709D5C"/>
<path d="M1.17383 62.0503L1.17391 66.7184C1.17392 67.1246 1.33374 67.5142 1.6182 67.8015C1.90267 68.0887 2.28849 68.2501 2.69078 68.2501H17.7171L17.717 62.0503H1.17383Z" fill="#709D5C"/>
<path d="M92.0566 31.4736C92.053 32.1448 91.9115 32.8078 91.6409 33.4208C91.3703 34.0339 90.9766 34.5834 90.4847 35.0348C89.4519 35.9886 88.0995 36.5119 86.6999 36.4991H83.4342C83.4341 31.9217 92.0566 34.6833 92.0566 31.4736Z" fill="#E0E0E0"/>
<path d="M88.5298 41.5447C88.5299 42.8798 88.0046 44.1603 87.0697 45.1044C86.1347 46.0485 84.8666 46.5789 83.5444 46.5789H80.1105C80.1104 41.6472 88.4922 45.0736 88.4921 40.9385C88.5179 41.1395 88.5305 41.342 88.5298 41.5447Z" fill="#E0E0E0"/>
<path d="M76.088 56.6739C76.0879 52.8667 85.1948 54.5624 85.1947 51.6396C85.1948 54.4189 82.8224 56.6739 79.896 56.6739H76.088Z" fill="#E0E0E0"/>
<path d="M80.517 59.1045C81.3872 60.0094 81.6192 61.1691 81.6192 62.528C81.6193 63.8869 80.8391 65.2516 79.9313 66.1624C78.9887 67.1055 77.714 67.6321 76.387 67.6266H36.0456L36.0455 62.9644H76.4914C79.4585 62.9644 80.5258 60.6449 80.517 59.1045Z" fill="#E0E0E0"/>
<path d="M53.9077 3.2417C57.1996 6.56562 60.7816 15.4421 60.7816 19.6593C60.7825 20.4486 60.7429 21.2374 60.6628 22.0226L60.2974 25.6452H56.0543C58.3454 19.5743 57.1272 11.0493 53.9077 3.2417Z" fill="#E0E0E0"/>
<path d="M26.1491 60.926C28.1113 60.926 29.7019 59.3198 29.7019 57.3385C29.7019 55.3572 28.1112 53.751 26.149 53.751C24.1868 53.751 22.5962 55.3572 22.5963 57.3385C22.5963 59.3198 24.187 60.926 26.1491 60.926Z" fill="#709D5C"/>
<path d="M49.2845 1.46429C51.5758 1.46429 54.5574 3.06036 56.5124 7.00222C59.7029 13.4685 61.4635 18.7751 60.086 25.6748H86.6825C87.4081 25.6407 88.1331 25.7556 88.8135 26.0125C89.4939 26.2694 90.1156 26.663 90.6411 27.1694C91.1665 27.6759 91.5848 28.2847 91.8706 28.959C92.1563 29.6334 92.3037 30.3592 92.3037 31.0927C92.3037 31.8261 92.1564 32.552 91.8706 33.2263C91.5849 33.9007 91.1666 34.5095 90.6412 35.0159C90.1158 35.5224 89.4941 35.9159 88.8137 36.1728C88.1333 36.4297 87.4083 36.5446 86.6827 36.5105H83.4517C84.7727 36.5113 86.0394 37.0417 86.9732 37.9852C87.9071 38.9287 88.4317 40.208 88.4317 41.5418C88.4333 42.2031 88.3056 42.8583 88.056 43.4697C87.8065 44.0811 87.4399 44.6368 86.9773 45.105C86.5147 45.5732 85.9652 45.9446 85.3603 46.198C84.7553 46.4515 84.1068 46.5819 83.4519 46.5819H80.1164C80.7728 46.5815 81.4228 46.7118 82.0293 46.9652C82.6358 47.2187 83.1868 47.5903 83.651 48.059C84.1151 48.5276 84.4832 49.084 84.7342 49.6964C84.9852 50.3088 85.1143 50.9651 85.1139 51.6278C85.1143 52.2906 84.9853 52.9469 84.7343 53.5593C84.4833 54.1717 84.1152 54.7281 83.6511 55.1967C83.187 55.6653 82.6359 56.037 82.0295 56.2905C81.423 56.5439 80.773 56.6742 80.1166 56.6738H76.0851C76.7915 56.6738 77.491 56.8143 78.1436 57.0874C78.7962 57.3604 79.3891 57.7606 79.8885 58.2651C80.3878 58.7696 80.7839 59.3685 81.054 60.0276C81.324 60.6867 81.4629 61.393 81.4625 62.1063C81.4625 63.5463 80.896 64.9273 79.8876 65.9456C78.8791 66.9638 77.5114 67.5359 76.0853 67.5359H3.86566C3.61483 67.5374 3.36617 67.4888 3.13398 67.393C2.9018 67.2971 2.69068 67.1559 2.51277 66.9773C2.33486 66.7988 2.19367 66.5865 2.09732 66.3526C2.00097 66.1188 1.95137 65.868 1.95137 65.6147L1.95069 27.5286C1.95068 27.0188 2.15103 26.5299 2.50776 26.1691C2.86449 25.8084 3.34842 25.6053 3.85331 25.6045H38.4578C45.5405 25.6045 47.5272 21.323 47.5272 16.7017C47.5244 12.8314 47.047 8.97636 46.1058 5.22458C45.5082 2.94322 47.0773 1.46429 49.2845 1.46429ZM49.2845 0C47.64 0 46.2101 0.641358 45.3545 1.75714C44.957 2.3021 44.6913 2.93336 44.5785 3.6005C44.4657 4.26765 44.509 4.95219 44.7049 5.59943C45.6126 9.23014 46.0734 12.96 46.077 16.7046C46.077 18.9654 45.5608 20.7284 44.5427 21.9438C43.3188 23.4081 41.2712 24.1432 38.452 24.1432H3.85328C2.96452 24.1447 2.11261 24.5019 1.48417 25.1364C0.855735 25.771 0.502013 26.6312 0.500495 27.5286L0.50118 65.6001C0.501964 66.4977 0.855472 67.3584 1.4841 67.9931C2.11272 68.6278 2.96509 68.9847 3.85409 68.9855H76.0882C77.3517 68.9828 78.5896 68.626 79.6641 67.9548C80.7386 67.2837 81.6075 66.3245 82.1739 65.1842C82.7404 64.0438 82.9822 62.7671 82.8725 61.4961C82.7627 60.2252 82.3057 59.0099 81.5523 57.9858C82.5968 57.7473 83.5661 57.2498 84.3725 56.5384C85.1789 55.8269 85.7971 54.9238 86.1713 53.9107C86.5454 52.8975 86.6638 51.8062 86.5156 50.7353C86.3675 49.6644 85.9575 48.6476 85.3226 47.7768C86.309 47.4773 87.2097 46.9427 87.9485 46.2181C88.6874 45.4935 89.243 44.6001 89.5682 43.6133C89.8935 42.6265 89.979 41.5752 89.8176 40.548C89.6561 39.5208 89.2524 38.5479 88.6405 37.7113C90.213 37.2406 91.5649 36.2136 92.4485 34.8184C93.3321 33.4233 93.6884 31.7533 93.452 30.1146C93.2156 28.4758 92.4023 26.9778 91.1612 25.8952C89.9201 24.8125 88.3342 24.2175 86.6941 24.2193H61.8088C62.6556 17.8204 60.895 12.5577 57.8204 6.35501C56.9215 4.44007 55.5551 2.78734 53.8497 1.55214C52.52 0.577485 50.9272 0.0359664 49.2845 0V0Z" fill="#709D5C"/>
<path d="M17.7173 25.625L17.718 67.9194" stroke="#709D5C" stroke-width="5" stroke-miterlimit="10"/>
<path d="M35.1978 25.625L35.1985 67.8257" stroke="#709D5C" stroke-width="5" stroke-miterlimit="10"/>
</g>
<defs>
<clipPath id="clip0_102_2567">
<rect width="93.0038" height="69.0001" fill="white" transform="matrix(1 0 1.79889e-05 1 0.5 0)"/>
</clipPath>
</defs>
</svg>
