<svg width="19" height="32" viewBox="0 0 19 32" fill="none" xmlns="http://www.w3.org/2000/svg">
<path d="M9.70586 20.3009C9.70586 20.1657 10.4681 20.1657 11.5768 19.6247C12.6856 19.0837 14.1409 17.7311 14.2795 15.6347C14.2102 13.1324 14.2102 10.4274 14.1409 7.51939C14.1409 5.89634 14.2102 4.54382 13.24 3.39416C12.3392 2.24449 10.9533 1.56822 9.29018 1.70348C7.76566 1.70348 6.31034 2.515 5.54808 3.73229C5.1323 4.34094 4.92448 5.01714 4.92448 5.69341C4.92448 6.50494 4.92441 7.24885 4.85512 7.99275C4.85512 11.036 4.64733 13.944 4.78592 16.0404C5.06311 18.1368 6.72615 19.3541 7.83489 19.7599C8.94363 20.1657 9.70586 20.1657 9.70586 20.3009C9.70586 20.3686 8.9437 20.6391 7.55777 20.3685C6.24114 20.098 4.09292 18.8808 3.53855 16.2433C3.26137 13.7411 3.33056 11.1036 3.26127 7.99275C3.26127 7.18123 3.19197 6.50497 3.26127 5.55819C3.33056 4.61141 3.60788 3.66463 4.09296 2.85311C5.06311 1.16243 7.07263 0.0127981 9.22082 0.0127981C11.1611 -0.122456 13.3787 0.824324 14.4874 2.37975C15.1111 3.12365 15.4575 4.07038 15.596 4.94953C15.7346 5.89631 15.6654 6.64026 15.6654 7.45178C15.5961 10.5626 15.5961 13.2677 15.4575 15.6347C15.111 18.2721 13.1014 19.6923 11.8541 20.098C10.4682 20.639 9.70586 20.3686 9.70586 20.3009Z" fill="#96B855"/>
<path d="M18.3699 9.4126C18.5778 9.4126 18.7858 11.5767 18.9937 15.0933C19.0629 16.9192 18.5779 19.2862 16.9148 21.315C15.3209 23.2762 12.549 24.764 9.49992 24.764C6.45088 24.764 3.67906 23.2762 2.08524 21.315C0.42213 19.3539 -0.0629446 16.9869 0.00635178 15.0933C0.144944 11.5767 0.352935 9.4126 0.63012 9.4126C0.907306 9.4126 1.04583 11.5767 1.25372 15.0933C1.32302 16.7163 1.87739 18.6776 3.33261 20.3006C4.78783 21.9237 7.07461 23.0733 9.56928 23.0733C12.0639 23.0733 14.3507 21.9237 15.806 20.3006C17.2612 18.6776 17.8155 16.7163 17.8848 15.0933C17.9541 11.6443 18.162 9.4126 18.3699 9.4126Z" fill="#96B855"/>
<path d="M9.98413 32C9.499 32 9.15234 30.2416 9.15234 28.01C9.15234 25.8459 9.499 24.02 9.98413 24.02C10.4693 24.02 10.8157 25.7783 10.8157 28.01C10.8157 30.2416 10.4693 32 9.98413 32Z" fill="#96B855"/>
</svg>
