<?xml version="1.0" standalone="no"?>
<!DOCTYPE svg PUBLIC "-//W3C//DTD SVG 20010904//EN"
 "http://www.w3.org/TR/2001/REC-SVG-20010904/DTD/svg10.dtd">
<svg version="1.0" xmlns="http://www.w3.org/2000/svg"
 width="637.000000pt" height="637.000000pt" viewBox="0 0 637.000000 637.000000"
 preserveAspectRatio="xMidYMid meet">
<metadata>
Created by potrace 1.14, written by Peter Selinger 2001-2017
</metadata>
<g transform="translate(0.000000,637.000000) scale(0.100000,-0.100000)"
fill="#000000" stroke="none">
<path d="M5185 5942 c-76 -36 -160 -145 -202 -262 -13 -36 -51 -167 -58 -198
-2 -9 -10 -46 -19 -82 -8 -36 -17 -76 -20 -90 -3 -14 -7 -34 -9 -45 -3 -11
-13 -68 -22 -127 l-18 -107 -96 6 c-173 12 -1041 5 -1456 -12 -49 -2 -189 -6
-310 -9 -354 -9 -853 -25 -960 -31 -33 -2 -114 -6 -180 -9 -140 -7 -247 -15
-292 -21 -38 -6 -42 -1 -49 62 -3 26 -7 57 -8 68 -4 21 -37 193 -40 210 -1 6
-6 26 -10 45 -14 67 -67 223 -98 289 -55 117 -119 188 -207 229 -178 82 -373
-77 -570 -468 -188 -371 -361 -922 -406 -1295 -4 -27 -8 -60 -10 -73 -2 -13
-7 -56 -10 -95 -4 -40 -9 -83 -11 -97 -26 -162 -25 -925 1 -1055 2 -11 7 -44
10 -73 6 -64 13 -108 27 -187 5 -33 11 -69 13 -80 15 -107 94 -392 147 -525
165 -420 389 -683 822 -965 253 -165 543 -289 866 -370 74 -18 149 -36 165
-38 17 -3 95 -17 175 -30 147 -26 158 -28 290 -47 41 -6 85 -13 98 -15 162
-26 780 -26 921 0 9 1 45 6 81 10 55 5 361 55 425 69 173 36 542 146 640 190
17 8 67 30 111 50 114 50 364 191 384 216 3 4 28 22 55 40 28 19 100 84 160
145 126 127 139 142 185 210 19 28 37 52 40 55 16 12 109 175 165 290 123 249
220 517 271 750 34 151 32 145 39 197 2 24 7 48 9 51 2 4 7 36 10 72 4 36 8
75 10 85 27 144 28 856 1 1035 -2 14 -7 52 -10 85 -3 33 -8 71 -10 85 -3 14
-7 48 -10 75 -6 55 -10 76 -55 303 -44 219 -151 585 -181 617 -5 5 -9 15 -9
23 0 49 -207 410 -340 594 -66 91 -177 199 -238 232 -70 37 -151 44 -207 18z
m-4918 -1644 c-3 -8 -6 -5 -6 6 -1 11 2 17 5 13 3 -3 4 -12 1 -19z m-30 -180
c-3 -8 -6 -5 -6 6 -1 11 2 17 5 13 3 -3 4 -12 1 -19z m-10 -110 c-3 -7 -5 -2
-5 12 0 14 2 19 5 13 2 -7 2 -19 0 -25z m-10 -70 c-3 -8 -6 -5 -6 6 -1 11 2
17 5 13 3 -3 4 -12 1 -19z m-10 -100 c-3 -8 -6 -5 -6 6 -1 11 2 17 5 13 3 -3
4 -12 1 -19z m-10 -170 c-3 -7 -5 -2 -5 12 0 14 2 19 5 13 2 -7 2 -19 0 -25z
m3 -52 c0 -3 -4 -8 -10 -11 -5 -3 -10 -1 -10 4 0 6 5 11 10 11 6 0 10 -2 10
-4z m-13 -88 c-3 -8 -6 -5 -6 6 -1 11 2 17 5 13 3 -3 4 -12 1 -19z m0 -50 c-3
-8 -6 -5 -6 6 -1 11 2 17 5 13 3 -3 4 -12 1 -19z m40 -840 c-3 -8 -6 -5 -6 6
-1 11 2 17 5 13 3 -3 4 -12 1 -19z m273 -908 c6 -11 8 -20 6 -20 -3 0 -10 9
-16 20 -6 11 -8 20 -6 20 3 0 10 -9 16 -20z m50 -85 c0 -11 -14 7 -31 40 -7
13 -3 12 10 -5 11 -14 21 -29 21 -35z m35 -57 c16 -24 22 -38 14 -31 -15 12
-53 73 -46 73 2 0 17 -19 32 -42z m46 -65 c13 -16 12 -17 -3 -4 -10 7 -18 15
-18 17 0 8 8 3 21 -13z m34 -43 c10 -11 14 -20 9 -20 -5 0 -15 9 -22 20 -7 11
-11 20 -9 20 2 0 12 -9 22 -20z m64 -83 c-2 -3 -15 10 -28 27 l-24 31 28 -27
c16 -15 27 -29 24 -31z m84 -86 c-4 -6 -73 61 -73 70 0 4 17 -9 38 -29 21 -20
37 -39 35 -41z m48 -38 l24 -28 -30 25 c-16 14 -32 26 -34 28 -2 1 0 2 6 2 5
0 20 -12 34 -27z m83 -72 c-2 -3 -12 3 -22 13 -16 17 -16 18 5 5 12 -7 20 -15
17 -18z m73 -52 c29 -23 53 -44 53 -46 0 -3 -6 -1 -12 4 -7 6 -35 27 -61 47
-27 20 -45 36 -41 36 4 0 31 -19 61 -41z m153 -115 c0 -3 -13 4 -30 16 -16 12
-30 24 -30 26 0 3 14 -4 30 -16 17 -12 30 -24 30 -26z m4085 16 c-3 -5 -12
-10 -18 -10 -7 0 -6 4 3 10 19 12 23 12 15 0z m-4035 -46 c0 -2 -9 0 -20 6
-11 6 -20 13 -20 16 0 2 9 0 20 -6 11 -6 20 -13 20 -16z m65 -42 c-3 -3 -11 0
-18 7 -9 10 -8 11 6 5 10 -3 15 -9 12 -12z m49 -31 c-2 -3 -12 3 -22 13 -16
17 -16 18 5 5 12 -7 20 -15 17 -18z m96 -47 c0 -2 -13 2 -30 11 -16 9 -30 18
-30 21 0 2 14 -2 30 -11 17 -9 30 -18 30 -21z m45 -22 c-3 -3 -11 0 -18 7 -9
10 -8 11 6 5 10 -3 15 -9 12 -12z m125 -52 c8 -5 11 -10 5 -10 -5 0 -17 5 -25
10 -8 5 -10 10 -5 10 6 0 17 -5 25 -10z m45 -20 c3 -6 -1 -7 -9 -4 -18 7 -21
14 -7 14 6 0 13 -4 16 -10z m80 -30 c3 -6 -1 -7 -9 -4 -18 7 -21 14 -7 14 6 0
13 -4 16 -10z"/>
</g>
</svg>
