<svg xmlns="http://www.w3.org/2000/svg">
    <symbol id="icon-te" viewBox="0 0 138 138">
        <g>
            <path d="M69 0C30.8948 0 0 30.8948 0 69C0 107.105 30.8948 138 69 138C107.105 138 138 107.105 138 69C138 30.8948 107.105 0 69 0ZM102.89 47.2707L91.563 100.631C90.7292 104.414 88.4753 105.334 85.33 103.552L68.08 90.8442L59.7655 98.8598C59.3581 99.3871 58.8354 99.8142 58.2373 100.108C57.6393 100.402 56.9819 100.555 56.3155 100.556H56.2867L57.5115 82.9955L89.4815 54.119C90.8615 52.8942 89.171 52.1985 87.3368 53.4233L47.84 78.2977L30.82 72.9847C27.14 71.8175 27.0365 69.3047 31.5962 67.4993L98.1008 41.8657C101.194 40.7388 103.885 42.6017 102.885 47.2765L102.89 47.2707Z"/>
        </g>
    </symbol>
    <symbol id="icon-wa" viewBox="0 0 138 138">
        <g>
            <path fill-rule="evenodd" clip-rule="evenodd" d="M68.9307 101.901H68.997C87.6046 101.901 102.736 86.8096 102.762 68.3217C102.774 63.9036 101.905 59.5273 100.208 55.4483C98.5101 51.3694 96.0173 47.6693 92.8745 44.5639C86.5038 38.1932 78.0358 34.6765 69.0097 34.6765C50.3766 34.6765 35.2321 49.7675 35.2321 68.2682C35.2318 74.5889 37.0171 80.7812 40.3822 86.1317L41.2053 87.4059L37.7804 99.8033L50.5218 96.4854L51.7425 97.2142C56.9461 100.267 62.904 101.901 68.9307 101.901ZM80.5178 73.5763C81.4479 73.9228 86.4248 76.3514 87.4466 76.8687L87.49 76.6164C87.5882 76.6597 87.6831 76.7012 87.7746 76.7413C88.6354 77.1179 89.1986 77.3643 89.4267 77.7835C89.6789 78.2346 89.6789 80.2248 88.8151 82.6278C87.9639 85.0156 83.902 87.1536 81.9653 87.4721C80.2146 87.7244 77.9976 87.8314 75.569 87.0618C75.3803 86.9972 75.1848 86.9308 74.9823 86.862C73.604 86.3938 71.8992 85.8148 69.7819 84.9238C60.3765 80.8768 53.9966 71.8685 52.6717 69.9978C52.5626 69.8437 52.4877 69.738 52.4483 69.6876C52.4226 69.651 52.3886 69.6038 52.3474 69.5465C51.5818 68.4817 48.3074 63.9278 48.3074 59.2294C48.3074 54.6331 50.5831 52.1999 51.6484 51.0609C51.7277 50.9761 51.8003 50.8985 51.8648 50.8276C52.7949 49.8593 53.8983 49.607 54.5736 49.607C55.2489 49.607 55.9268 49.607 56.5103 49.6605C56.5719 49.6605 56.6356 49.6581 56.7012 49.6555C57.3016 49.6324 58.0631 49.6031 58.7936 51.3857C59.1625 52.2519 59.7547 53.6867 60.3272 55.0736C61.0717 56.8774 61.7828 58.6001 61.9255 58.8853C62.1777 59.3899 62.3485 59.948 62.0172 60.6641C61.9325 60.8202 61.859 60.9624 61.7896 61.0965C61.5648 61.5312 61.3839 61.8811 61.0081 62.3485C60.8773 62.5031 60.7438 62.6637 60.61 62.8247C60.2146 63.3005 59.8154 63.7807 59.4689 64.1272C58.9643 64.6318 58.4343 65.2026 59.0306 66.2117C59.6294 67.2336 61.6451 70.5514 64.6725 73.245C67.8999 76.1392 70.7032 77.3603 72.141 77.9865C72.4299 78.1124 72.6637 78.2142 72.8347 78.3008C73.8413 78.7519 74.4274 78.7009 75.0237 78.0358C75.62 77.3707 77.572 75.09 78.2345 74.0936C78.9124 73.0717 79.5877 73.245 80.5178 73.5763Z"/>
            <path fill-rule="evenodd" clip-rule="evenodd" d="M69 138C107.108 138 138 107.108 138 69C138 30.8924 107.108 0 69 0C30.8924 0 0 30.8924 0 69C0 107.108 30.8924 138 69 138ZM68.9307 28C79.7737 28 89.9669 32.2327 97.7188 39.7196L97.6679 39.8496C105.338 47.4817 109.545 57.6367 109.545 68.4262C109.533 90.7237 91.3226 108.855 68.946 108.855H68.9333C62.1579 108.838 55.4918 107.147 49.528 103.932L28 109.545L33.7591 88.6138C30.2017 82.4698 28.344 75.5283 28.344 68.4134C28.3568 46.1311 46.5669 28 68.9307 28Z"/>
        </g>
    </symbol>
    <symbol id="icon-gl" viewBox="0 0 138 138">
        <g>
            <path fill-rule="evenodd" clip-rule="evenodd" d="M69 138C107.108 138 138 107.108 138 69C138 30.8924 107.108 0 69 0C30.8924 0 0 30.8924 0 69C0 107.108 30.8924 138 69 138ZM86.6045 68.7273C86.6045 71.4287 86.3662 74.0507 86.0484 76.6727H99.4762C100.112 74.1302 100.509 71.4685 100.509 68.7273C100.509 65.9861 100.112 63.3244 99.4762 60.7818H86.0484C86.3662 63.4038 86.6045 66.0258 86.6045 68.7273ZM84.499 84.6182C83.2277 89.5841 81.4003 94.3514 79.0166 98.7611C86.2633 96.2662 92.3696 91.2458 96.2185 84.6182H84.499ZM59.4311 76.6727H78.0235C78.381 74.0507 78.6591 71.4287 78.6591 68.7273C78.6591 66.0258 78.381 63.3641 78.0235 60.7818H59.4311C59.0338 63.3641 58.7955 66.0258 58.7955 68.7273C58.7955 71.4287 59.0338 74.0507 59.4311 76.6727ZM61.1394 84.6182C62.7682 90.2992 65.4299 95.5829 68.7273 100.35C72.0246 95.5829 74.6864 90.2992 76.3152 84.6182H61.1394ZM41.236 52.8364H52.8364C54.2268 47.8705 56.0145 43.1032 58.3982 38.6935C51.1471 41.1624 45.0453 46.1908 41.236 52.8364ZM52.8364 84.6182H41.236C45.0691 91.2436 51.1623 96.2649 58.3982 98.7611C56.0145 94.3514 54.2268 89.5841 52.8364 84.6182ZM36.9455 68.7273C36.9455 71.4685 37.3427 74.1302 37.9784 76.6727H51.4062C51.0884 74.0507 50.85 71.4287 50.85 68.7273C50.85 66.0258 51.0884 63.4038 51.4062 60.7818H37.9784C37.3427 63.3244 36.9455 65.9861 36.9455 68.7273ZM76.3152 52.8364C74.6864 47.1554 72.0246 41.8319 68.7273 37.0646C65.4299 41.8319 62.7682 47.1554 61.1394 52.8364H76.3152ZM84.499 52.8364H96.2185C92.4047 46.2416 86.3265 41.1963 79.0166 38.6935C81.4145 43.1663 83.2556 47.916 84.499 52.8364ZM29 68.7273C29 46.8773 46.7581 29 68.7273 29C73.9443 29 79.1103 30.0276 83.9302 32.0241C88.7502 34.0205 93.1297 36.9468 96.8187 40.6358C100.508 44.3249 103.434 48.7044 105.43 53.5243C107.427 58.3442 108.455 63.5102 108.455 68.7273C108.455 79.2636 104.269 89.3684 96.8187 96.8187C89.3684 104.269 79.2636 108.455 68.7273 108.455C63.5102 108.455 58.3442 107.427 53.5243 105.43C48.7044 103.434 44.3249 100.508 40.6358 96.8187C33.1855 89.3684 29 79.2636 29 68.7273Z"/>
        </g>
    </symbol>
    <symbol id="icon-sh" viewBox="0 0 138 138">
        <g>
            <path fill-rule="evenodd" clip-rule="evenodd" d="M69 138C107.108 138 138 107.108 138 69C138 30.8924 107.108 0 69 0C30.8923 0 0 30.8924 0 69C0 107.108 30.8923 138 69 138ZM80.7567 90.1137C82.8089 88.1682 85.5151 86.9596 88.5151 86.9596C90.7906 86.9605 93.0148 87.6608 94.9064 88.972C96.7981 90.2831 98.2722 92.1461 99.1426 94.3256C100.013 96.5051 100.24 98.9031 99.7963 101.217C99.3521 103.53 98.2563 105.655 96.6472 107.323C95.0382 108.991 92.9883 110.127 90.7565 110.587C88.5247 111.048 86.2114 110.812 84.1089 109.91C82.0065 109.008 80.2092 107.479 78.9444 105.519C77.6797 103.558 77.0041 101.252 77.0031 98.8932C77.0068 97.9892 77.1134 97.0888 77.3207 96.2107L49.1782 79.1971C46.9982 81.3263 44.1164 82.5125 41.1212 82.5133C34.5856 82.5133 29.2727 77.0059 29.2727 70.2309C29.2727 63.4559 34.5856 57.9485 41.1212 57.9485C44.1159 57.9518 46.9969 59.1377 49.1782 61.2647L77.0221 44.4182C76.8041 43.4994 76.6667 42.5365 76.6667 41.5539C76.6667 34.7789 81.9795 29.2715 88.5151 29.2715C95.0508 29.2715 100.364 34.7789 100.364 41.5539C100.364 48.3289 95.0508 53.8363 88.5151 53.8363C85.52 53.8355 82.6381 52.6493 80.4582 50.5201L52.6142 67.3667C52.8322 68.2903 52.9697 69.2483 52.9697 70.2309C52.9697 71.2135 52.8322 72.1764 52.6142 73.1001L80.7567 90.1137Z"/>
        </g>
    </symbol>
    <symbol id="icon-vk" viewBox="0 0 138 138">
        <g>
            <path fill-rule="evenodd" clip-rule="evenodd" d="M69 138C107.108 138 138 107.108 138 69C138 30.8924 107.108 0 69 0C30.8924 0 0 30.8924 0 69C0 107.108 30.8924 138 69 138ZM106.129 46C108.9 46 109.478 47.3809 108.9 49.2564H108.896C107.736 54.4193 96.5844 69.6229 96.5844 69.6229C95.6157 71.1241 95.2289 71.8763 96.5844 73.563C97.0636 74.2114 98.0838 75.1787 99.2507 76.285C100.451 77.4231 101.807 78.7085 102.888 79.9453C106.816 84.2288 109.778 87.8391 110.607 90.3261C111.36 92.8268 110.05 94.0909 107.436 94.0909H98.2885C95.8356 94.0909 94.6019 92.7619 91.9346 89.8882C90.8049 88.6713 89.4182 87.1773 87.5728 85.3899C82.1435 80.3232 79.8192 79.6636 78.4601 79.6636C76.6167 79.6636 76.0661 80.1686 76.0661 82.7002V90.6455C76.0661 92.8268 75.3482 94.0909 69.5321 94.0909C59.834 94.0909 49.188 88.3921 41.626 77.8808C30.2831 62.4883 27.1816 50.8503 27.1816 48.5076C27.1816 47.192 27.7044 46 30.3179 46H39.4724C41.8107 46 42.6889 46.9893 43.5566 49.4454C48.0345 62.0658 55.5791 73.0958 58.6805 73.0958C59.8444 73.0958 60.3776 72.5771 60.3776 69.7157V56.6693C60.1686 52.9565 58.8284 51.3503 57.8358 50.1608C57.2232 49.4266 56.743 48.8511 56.743 48.037C56.743 47.0443 57.6177 46 59.0708 46H73.456C75.3935 46 76.0347 47.003 76.0347 49.2564V66.8062C76.0347 68.6852 76.9094 69.3413 77.4913 69.3413C78.6553 69.3413 79.624 68.6852 81.7567 66.6173C88.3464 59.4861 92.9986 48.5076 92.9986 48.5076C93.5806 47.192 94.6539 46 96.9817 46H106.129Z"/>
        </g>
    </symbol>
    <symbol id="icon-be" viewBox="0 0 138 138">
        <g>
            <path d="M54.8766 62.5775C56.2165 61.6071 56.8634 60.0054 56.8634 57.8029C56.9096 56.7556 56.694 55.7237 56.2319 54.7842C55.8161 54.0295 55.2 53.398 54.4453 52.9513C53.6628 52.4768 52.7937 52.1627 51.8886 52.0272C50.9029 51.8424 49.9018 51.75 48.9161 51.7654H38.0886V64.0406H49.8094C51.827 64.056 53.5366 63.5632 54.8766 62.5775ZM56.694 73.6667C55.1846 72.5116 53.167 71.9417 50.6565 71.9417H38.0578V86.4194H50.41C51.5652 86.4194 52.6279 86.3116 53.6598 86.096C54.6362 85.9051 55.5668 85.5286 56.4013 84.987C57.1868 84.4788 57.8183 83.7857 58.2958 82.8924C58.7578 81.9991 58.9888 80.8594 58.9888 79.4886C58.9888 76.7625 58.2188 74.8373 56.694 73.6667ZM69 0C30.896 0 0 30.896 0 69C0 107.104 30.896 138 69 138C107.104 138 138 107.104 138 69C138 30.896 107.104 0 69 0ZM82.3225 44.1877H103.639V49.3781H82.3225V44.1877ZM69 86.9893C68.003 88.8818 66.5793 90.5165 64.8415 91.7638C63.0241 93.0268 61.0065 93.9509 58.8656 94.49C56.6258 95.0902 54.3152 95.3855 51.9964 95.3679H26.4911V42.8324H51.2879C53.7984 42.8324 56.0779 43.0634 58.1571 43.4946C60.221 43.9259 61.9768 44.6652 63.4554 45.6663C64.9185 46.6674 66.0737 48.0074 66.89 49.6708C67.6908 51.3187 68.1067 53.3826 68.1067 55.8315C68.1067 58.4806 67.506 60.6676 66.3047 62.4388C65.0879 64.21 63.3321 65.6424 60.9449 66.7667C64.1946 67.6908 66.5819 69.3388 68.1529 71.6491C69.7547 73.9902 70.5402 76.7933 70.5402 80.0893C70.5402 82.7692 70.0319 85.0641 69 86.9893ZM111.94 78.8571H84.4634C84.4634 81.8451 85.4953 84.7098 87.0509 86.25C88.6219 87.7748 90.8705 88.5449 93.8123 88.5449C95.9377 88.5449 97.7397 88.0058 99.2799 86.9431C100.805 85.8804 101.729 84.756 102.068 83.5855H111.278C109.799 88.1598 107.551 91.425 104.501 93.3964C101.482 95.3679 97.7859 96.3536 93.4888 96.3536C90.4855 96.3536 87.7902 95.8607 85.3721 94.9212C83.0464 94.0125 80.9518 92.6263 79.2268 90.8397C77.526 89.005 76.2113 86.8471 75.3609 84.4942C74.4214 81.8913 73.9594 79.1498 73.9902 76.3929C73.9902 73.5435 74.4676 70.8944 75.3917 68.4301C77.1629 63.6402 80.844 59.8051 85.5415 57.8183C88.052 56.771 90.7473 56.2473 93.4734 56.2781C96.7078 56.2781 99.5109 56.8942 101.944 58.1571C104.287 59.3631 106.321 61.0916 107.89 63.2089C109.445 65.319 110.539 67.7216 111.232 70.4324C111.894 73.0969 112.125 75.9 111.94 78.8571ZM93.15 64.133C91.4866 64.133 90.0851 64.4257 89.0069 64.9955C87.9288 65.5654 87.0355 66.2739 86.3578 67.0902C85.7124 67.8783 85.2354 68.7904 84.9562 69.7701C84.7098 70.5864 84.5404 71.4181 84.4788 72.2652H101.498C101.251 69.6007 100.327 67.6292 99.0951 66.2431C97.8013 64.8723 95.7221 64.133 93.15 64.133Z"/>
        </g>
    </symbol>
</svg>