<svg width="319" height="295" viewBox="0 0 319 295" fill="none" xmlns="http://www.w3.org/2000/svg">
<path d="M82.3361 154.777C49.9843 119.084 52.4458 70.6324 57.7206 50.8682C85.8527 72.0022 127.269 71.8065 144.461 69.0669C138.365 120.258 100.505 147.537 82.3361 154.777Z" fill="#DA5C42" stroke="black" stroke-width="2.46183"/>
<path d="M158.883 34.2293C160.387 26.9023 138.83 16.2698 110.735 10.481C82.6396 4.69226 58.6449 5.93931 57.1412 13.2664C55.6375 20.5934 77.1941 31.2259 105.289 37.0147C133.384 42.8034 157.379 41.5564 158.883 34.2293Z" stroke="black" stroke-width="2.46183" stroke-miterlimit="10"/>
<path d="M57.1368 13.3271C57.1368 13.3271 15.023 90.7255 68.4603 164.996C70.694 168.146 73.9624 170.408 77.6931 171.386C81.4237 172.364 85.3789 171.996 88.8659 170.346C111.689 159.423 157.886 125.997 158.883 34.2081" stroke="black" stroke-width="2.46183" stroke-miterlimit="10"/>
<path d="M84.3008 170.857L67.4858 260.954C67.4858 260.954 114.833 269.184 117.684 286.678C118.858 294.062 89.0883 294.615 57.1715 288.042C25.2547 281.47 0.601263 270.195 2.11497 262.87C2.11497 262.87 2.56087 248.491 56.7608 258.955L73.5758 168.823" stroke="black" stroke-width="2.46183" stroke-miterlimit="10"/>
<path d="M58.3799 49.2739C69.5156 47.2634 111.817 41.6786 144.614 65.4284C145.001 65.71 145.292 66.1031 145.45 66.5551C145.607 67.0072 145.623 67.4967 145.496 67.9582C145.368 68.4197 145.103 68.8311 144.736 69.1375C144.369 69.4439 143.917 69.6307 143.441 69.6728C129.36 71.3188 90.9656 73.2 57.8988 51.4019C57.7062 51.2685 57.5577 51.0804 57.4727 50.8617C57.3876 50.643 57.3698 50.4039 57.4216 50.175C57.4733 49.9461 57.5922 49.738 57.763 49.5774C57.9338 49.4168 58.1487 49.3111 58.3799 49.2739Z" fill="#F3694C" stroke="black" stroke-width="2.46183" stroke-miterlimit="10"/>
<path d="M57.7812 49.9453C57.7812 49.9453 42.2218 104.205 80.4164 153.316C80.9126 153.943 81.6069 154.382 82.3851 154.561C83.1634 154.741 83.9795 154.65 84.6993 154.303C95.483 149.083 136.846 125.627 144.825 69.4624" stroke="black" stroke-width="2.46183" stroke-miterlimit="10"/>
<path d="M236.762 155.159C269.113 119.466 266.652 71.0142 261.377 51.25C233.245 72.384 191.829 72.1883 174.637 69.4487C180.732 120.64 218.593 147.919 236.762 155.159Z" fill="#DA5C42" stroke="black" stroke-width="2.46183"/>
<path d="M160.215 34.6112C158.712 27.2841 180.268 16.6516 208.363 10.8629C236.459 5.0741 260.453 6.32115 261.957 13.6482C263.461 20.9753 241.904 31.6078 213.809 37.3965C185.714 43.1853 161.719 41.9382 160.215 34.6112Z" stroke="black" stroke-width="2.46183" stroke-miterlimit="10"/>
<path d="M261.961 13.709C261.961 13.709 304.075 91.1073 250.637 165.378C248.404 168.528 245.135 170.79 241.405 171.768C237.674 172.746 233.719 172.378 230.232 170.728C207.409 159.805 161.212 126.379 160.214 34.59" stroke="black" stroke-width="2.46183" stroke-miterlimit="10"/>
<path d="M234.797 171.239L251.612 261.335C251.612 261.335 204.265 269.565 201.413 287.06C200.24 294.444 230.009 294.996 261.926 288.424C293.843 281.852 318.496 270.577 316.983 263.252C316.983 263.252 316.537 248.873 262.337 259.337L245.522 169.205" stroke="black" stroke-width="2.46183" stroke-miterlimit="10"/>
<path d="M260.718 49.6557C249.582 47.6452 207.28 42.0605 174.484 65.8102C174.097 66.0918 173.805 66.4849 173.648 66.937C173.49 67.389 173.474 67.8785 173.602 68.34C173.729 68.8015 173.995 69.2129 174.362 69.5193C174.729 69.8258 175.181 70.0125 175.657 70.0546C189.738 71.7007 228.132 73.5818 261.199 51.7838C261.391 51.6503 261.54 51.4622 261.625 51.2435C261.71 51.0249 261.728 50.7857 261.676 50.5568C261.624 50.3279 261.505 50.1198 261.335 49.9592C261.164 49.7986 260.949 49.6929 260.718 49.6557Z" fill="#F3694C" stroke="black" stroke-width="2.46183" stroke-miterlimit="10"/>
<path d="M261.315 50.3271C261.315 50.3271 276.875 104.587 238.68 153.697C238.184 154.324 237.49 154.764 236.712 154.943C235.933 155.123 235.117 155.032 234.397 154.685C223.614 149.465 182.251 126.009 174.272 69.8443" stroke="black" stroke-width="2.46183" stroke-miterlimit="10"/>
</svg>
